<svg width="927" height="449" viewBox="0 0 927 449" fill="none" xmlns="http://www.w3.org/2000/svg">
<path d="M573.797 200.083C570.999 190.825 563.747 183.754 550.344 185.549L486.294 193.98C478.599 194.756 475.674 187.256 482.882 185.239L536.147 169.634C556.712 164.151 564.069 151.627 564.384 137.137C564.594 127.288 556.824 118.946 547.074 118.539C535.314 118.052 519.399 124.894 483.924 129.859C478.239 130.657 476.927 128.744 478.194 125.093C481.599 115.229 509.844 110.36 523.127 109.185C539.094 107.774 540.047 97.3777 541.787 92.5011C547.052 77.775 541.899 22.2992 538.757 5.31218C538.052 1.49951 534.354 -0.525057 528.894 0.117776C510.174 2.33444 452.177 36.0499 430.157 48.7367C424.344 52.0838 420.542 60.2707 426.962 77.9154C431.342 89.9445 429.527 103.592 424.757 109.643C421.299 114.025 416.859 113.057 415.457 108.313C410.979 93.2104 405.774 78.5582 405.774 78.5582C403.074 68.8123 390.519 65.9676 380.319 70.3935C371.634 74.1618 368.034 75.211 358.637 80.132C342.684 88.4963 336.339 103.038 343.022 116.109L367.329 163.634C369.917 168.688 359.559 171.85 355.929 167.114L322.389 123.364C317.147 115.909 302.402 114.971 295.239 121.613C291.257 125.308 284.162 135.12 280.899 139.413C272.867 149.979 275.619 158.506 282.482 169.848L309.024 213.058C313.682 221.223 307.254 224.304 304.569 221.223C294.857 210.058 276.564 185.527 276.564 185.527C271.547 178.633 260.732 180.141 257.859 188.135C254.597 197.209 249.669 211.521 248.664 214.322L287.897 426.109L569.109 424.151L576.639 210.317C575.762 206.874 574.817 203.467 573.797 200.083Z" fill="#74BAAB"/>
<path d="M314.837 327.748C311.822 327.874 310.509 325.591 312.977 323.884C314.567 322.791 315.857 321.852 316.314 321.416C320.957 316.946 321.07 312.838 319.937 308.294C316.794 295.695 309.227 283.866 304.127 278.901C300.939 275.797 295.569 276.196 292.532 279.44L291.692 280.334C289.824 282.329 286.652 279.905 288.144 277.63L295.412 266.517C297.294 263.635 297.677 260.029 296.424 256.83C283.607 224.267 269.229 213.11 256.307 205.108C250.854 201.731 243.647 204.517 242.049 210.664L231.872 249.744C230.687 254.296 223.817 253.069 224.327 248.399L228.857 206.881C229.285 202.352 228.354 197.039 224.462 194.593C215.304 188.837 198.144 185.461 184.344 184.788C180.872 184.618 177.969 187.352 178.029 190.781L178.622 223.787C178.464 229.247 171.34 228.035 170.41 222.649L164.064 190.249C162.872 185.874 159.624 182.69 155.102 181.855C134.927 178.101 115.142 177.163 102.452 178.818C92.8895 180.059 90.842 189.643 92.3495 196.581L99.2045 229.114C100.719 234.013 102.632 236.333 107.739 237.257L142.757 243.257C148.374 243.722 148.562 248.783 142.989 249.604C126.932 251.968 111.527 253.941 101.664 255.744C98.6045 256.305 96.2945 258.818 96.062 261.877C95.5595 268.453 94.322 275.775 99.8645 282.033C105.729 288.646 134.424 291.794 161.252 297.099C165.204 297.883 165.707 301.097 161.814 302.131C161.814 302.131 127.209 307.097 115.472 313.407C107.514 317.677 106.952 321.66 107.372 329.832C107.627 334.716 108.707 342.622 109.742 349.391C110.882 356.861 117.114 362.565 124.764 363.119C124.764 363.119 155.289 365.062 165.189 367.892C171.774 369.777 166.569 374.018 163.262 375.606C154.464 379.825 137.777 388.138 137.777 388.138C129.842 391.81 126.512 400.071 126.474 408.709C126.452 414.561 127.389 426.235 127.389 426.235H326.492C326.492 426.235 333.917 380.158 325.209 332.367C324.684 329.5 322.082 327.468 319.134 327.593L314.837 327.748Z" fill="#93B4F6"/>
<path d="M174.77 411.989C169.917 394.285 238.257 374.705 249.56 425.555C237.297 425.577 244.227 425.555 228.867 425.555C205.25 411.095 178.302 424.89 174.77 411.989Z" fill="#274D76"/>
<path d="M168.896 347.957C168.108 342.859 172.548 338.344 177.633 337.147C211.728 329.145 216.086 353.735 220.158 358.494C223.038 361.856 230.958 359.824 235.188 364.752C237.933 367.952 234.656 377.683 237.858 382.087C241.376 386.919 246.686 382.973 250.856 389.04C254.508 394.352 247.038 400.042 249.461 405.783C252.641 413.327 263.681 410.201 257.433 424.447C252.086 424.425 250.998 424.41 250.998 424.41C250.998 424.41 235.533 422.563 237.401 411.147C238.188 406.352 225.566 409.795 222.551 405.369C220.143 401.837 223.901 398.527 219.461 396.754C216.708 395.653 206.591 397.093 203.838 391.345C201.738 386.971 207.318 381.643 200.666 379.966C185.748 376.198 172.541 371.617 168.896 347.957Z" fill="#FDFFFF"/>
<path d="M244.706 393.259C248.823 381.148 249.978 368.779 257.786 365.994C263.433 363.976 264.911 368.934 268.938 367.826C274.556 366.282 273.993 339.866 309.881 342.556C320.853 343.376 327.626 361.139 308.073 366.636C297.633 369.577 309.513 371.099 306.311 376.7C301.796 384.591 284.081 380.934 278.418 388.286C275.073 392.63 280.998 400.529 275.111 411.96C273.731 414.642 272.141 417.206 270.513 419.556C265.983 426.11 255.911 425.171 252.723 417.893C248.531 408.317 243.498 396.813 244.706 393.259Z" fill="#FDFFFF"/>
<path d="M248.367 414.878C244.092 400.049 242.014 384.887 242.442 371.262C243.049 352.125 248.539 337.147 258.312 327.956L261.417 331.162C243.312 348.179 244.167 384.429 252.942 414.502C253.909 417.782 249.402 418.477 248.367 414.878Z" fill="#FDFFFF"/>
<path d="M238.541 328.17L264.783 327.194L262.638 333.652L270.011 343.915C270.633 344.965 269.118 346.361 267.221 345.785C265.391 345.238 263.516 343.332 262.338 341.374C261.738 340.376 260.943 341.012 260.988 341.743C261.101 343.59 261.228 346.738 261.228 346.738C261.356 348.652 259.811 349.154 257.943 347.063C255.378 344.189 255.101 340.871 254.756 338.396C254.636 337.546 253.758 337.199 252.956 337.517C252.956 337.517 247.143 339.076 245.246 339.726C242.951 340.516 241.533 338.854 243.371 337.295C244.083 336.689 246.131 334.746 246.131 334.746C246.693 334.302 246.513 333.423 245.816 333.231L238.286 330.896C236.208 330.327 236.381 328.192 238.541 328.17Z" fill="#274D76"/>
<path d="M239.412 298.88L241.272 299.205C242.059 299.345 242.749 298.68 242.637 297.905L242.149 294.602C241.797 292.208 244.369 290.442 246.522 291.609L248.022 292.422C248.749 292.814 249.649 292.356 249.747 291.543L250.077 288.765C250.317 286.755 252.837 285.942 254.232 287.427L255.319 288.587C255.837 289.141 256.744 289.06 257.157 288.432L259.527 284.826C260.862 282.794 263.937 282.979 265.017 285.151L266.299 287.745C266.644 288.432 267.559 288.609 268.137 288.092L270.147 286.297C271.827 284.797 274.527 285.772 274.827 287.981L275.044 289.555C275.149 290.294 275.929 290.745 276.634 290.471L279.949 289.186C281.299 288.661 282.672 289.902 282.259 291.277L281.959 292.267C281.697 293.131 282.499 293.944 283.384 293.708L286.774 292.799C289.392 292.097 291.439 295.045 289.827 297.195L288.942 298.378C288.394 299.102 288.874 300.136 289.789 300.21L294.694 300.602C297.297 300.808 298.354 304.008 296.374 305.685L294.852 306.971C294.109 307.599 294.432 308.796 295.392 308.973L297.882 309.453C299.269 309.719 299.607 311.515 298.414 312.261L297.357 312.919C296.472 313.473 296.712 314.803 297.739 315.017L299.367 315.357C301.129 315.727 301.287 318.143 299.584 318.734L297.582 319.428C296.652 319.754 296.517 320.988 297.357 321.497L299.247 322.643C301.114 323.781 300.462 326.603 298.279 326.825L296.584 326.995C295.692 327.083 295.234 328.088 295.752 328.805L296.862 330.357C297.897 331.797 296.449 333.696 294.754 333.127L292.894 332.499C292.099 332.233 291.282 332.854 291.349 333.682L291.529 335.891C291.627 337.103 290.314 337.93 289.249 337.332L288.049 336.659C287.337 336.26 286.437 336.696 286.317 337.494L286.219 338.167C285.979 339.755 283.984 340.383 282.859 339.216L281.922 338.248C281.284 337.59 280.167 337.879 279.942 338.765L279.514 340.45C278.974 342.585 276.094 343.058 274.887 341.204L274.017 339.866C273.544 339.142 272.464 339.164 272.022 339.903L271.782 340.302C271.317 341.078 270.169 341.056 269.742 340.258C269.322 339.475 268.197 339.438 267.717 340.184L267.357 340.753C266.824 341.58 265.557 341.425 265.249 340.494L264.934 339.519C264.732 338.891 264.034 338.558 263.404 338.795L261.604 339.467C260.749 339.785 259.872 339.061 260.037 338.181L260.142 337.635C260.292 336.829 259.572 336.135 258.754 336.297L256.879 336.674C256.099 336.829 255.387 336.194 255.484 335.411L255.559 334.746C255.657 333.94 254.907 333.297 254.112 333.497L251.757 334.088C250.789 334.332 249.972 333.342 250.422 332.455L250.564 332.182C250.962 331.391 250.354 330.467 249.454 330.519L247.249 330.637C245.712 330.719 244.602 329.219 245.157 327.8L245.524 326.847C245.787 326.167 245.352 325.421 244.624 325.295L241.249 324.748C239.892 324.527 239.562 322.753 240.747 322.074C241.684 321.534 241.437 320.145 240.372 319.946L238.729 319.643C236.907 319.31 236.539 316.887 238.189 316.052L238.542 315.867C239.487 315.387 239.344 314.012 238.317 313.732L237.439 313.495C235.497 312.971 235.602 310.222 237.574 309.838C238.677 309.623 238.864 308.153 237.859 307.673L235.759 306.675C234.289 305.973 234.799 303.794 236.434 303.801L238.564 303.816C239.599 303.823 240.132 302.597 239.412 301.865L238.392 300.831C237.574 300.018 238.294 298.688 239.412 298.88Z" fill="#FFF3A1"/>
<path d="M272.945 323.596L271.445 323.601L271.477 333.642L272.977 333.638L272.945 323.596Z" fill="black"/>
<path d="M272.855 295.444L271.355 295.449L271.388 305.727L272.888 305.722L272.855 295.444Z" fill="black"/>
<path d="M278.407 322.066L277.273 323.034L285.084 331.912L286.218 330.944L278.407 322.066Z" fill="black"/>
<path d="M258.919 295.084L257.613 295.811L263.184 305.526L264.49 304.799L258.919 295.084Z" fill="black"/>
<path d="M287.002 301.37L276.879 307.718L277.684 308.965L287.808 302.616L287.002 301.37Z" fill="black"/>
<path d="M243.781 302.947L243.27 304.336L256.665 309.125L257.176 307.736L243.781 302.947Z" fill="black"/>
<path d="M279.109 315.6L278.895 317.063L293.569 319.156L293.784 317.693L279.109 315.6Z" fill="black"/>
<path d="M265.089 321.417L255.758 329.003L256.713 330.143L266.043 322.557L265.089 321.417Z" fill="black"/>
<path d="M262.305 314.202L241.316 317.057L241.522 318.521L262.51 315.666L262.305 314.202Z" fill="black"/>
<path d="M258.957 398.8L257.637 398.091C269.959 375.85 296.697 355.383 296.967 355.176L297.882 356.344C297.627 356.558 271.129 376.833 258.957 398.8Z" fill="black"/>
<path d="M232.744 393C216.304 369.954 202.999 361.501 194.194 355.907C193.159 355.25 192.177 354.629 191.262 354.023L192.094 352.797C193.002 353.395 193.977 354.016 195.012 354.666C203.914 360.319 217.369 368.868 233.974 392.15L232.744 393Z" fill="black"/>
<path d="M98.5379 404.031L97.0754 403.714C98.6879 396.495 98.5529 393.377 98.1629 392.039C97.6979 390.458 96.9479 389.534 95.9279 389.305C94.5704 388.995 92.6729 389.933 90.9854 391.751C89.4179 393.443 87.4604 394.071 85.7429 393.421C84.0179 392.771 82.9304 390.997 82.9079 388.788C82.7954 377.276 80.5229 368.284 75.9554 361.287C74.6579 359.299 72.7454 358.109 71.2004 358.331C70.2254 358.472 69.5204 359.173 69.1679 360.37C68.8379 361.471 67.4129 365.003 62.7179 364.109C57.8729 363.186 53.5754 355.413 51.2654 351.238C50.9204 350.617 50.6429 350.107 50.4254 349.745C48.8879 347.181 46.8704 346.117 44.5904 346.657C40.3979 347.647 36.3929 353.536 36.0254 359.255C35.8679 361.723 35.9279 364.9 36.1904 367.752L34.6979 367.885C34.4279 364.959 34.3679 361.7 34.5329 359.159C34.9454 352.745 39.3929 346.361 44.2454 345.216C47.1854 344.521 49.8404 345.859 51.7229 348.992C51.9479 349.368 52.2404 349.893 52.5929 350.536C54.6254 354.216 58.8629 361.878 63.0179 362.668C66.2429 363.282 67.3604 361.235 67.7429 359.964C68.2679 358.198 69.4304 357.097 71.0054 356.875C73.1504 356.565 75.5954 357.991 77.2304 360.496C81.9554 367.73 84.3029 376.981 84.4229 388.781C84.4379 390.369 85.1579 391.618 86.2904 392.047C87.4229 392.475 88.7354 392.01 89.8904 390.761C91.9754 388.507 94.3679 387.429 96.2804 387.872C97.3679 388.123 98.8379 388.98 99.6179 391.633C100.24 393.813 99.8804 397.987 98.5379 404.031Z" fill="black"/>
<path d="M75.6922 420.036C74.9422 392.446 64.4722 371.993 64.3672 371.786L65.7022 371.114C65.8072 371.321 76.4347 392.054 77.1922 419.999L75.6922 420.036Z" fill="black"/>
<path d="M98.7502 426.398C98.4577 426.398 98.1727 426.398 97.8727 426.39L97.8952 424.913C106.685 425.053 113.21 423.124 116.203 419.482C117.875 417.45 118.385 414.945 117.71 412.041C116.9 408.546 114.56 406.004 110.945 404.697C104.36 402.31 94.4002 404.386 87.2677 409.632C78.7177 415.92 73.8127 425.977 73.7677 426.08L72.4102 425.445C72.6127 425.016 77.5251 414.952 86.3676 408.45C94.0026 402.835 104.323 400.721 111.463 403.315C115.58 404.807 118.243 407.711 119.173 411.723C119.945 415.048 119.315 418.056 117.365 420.427C114.193 424.284 107.593 426.398 98.7502 426.398Z" fill="black"/>
<path d="M72.341 425.836C70.8485 412.203 67.2186 403.64 64.4286 398.852C61.421 393.679 58.7285 391.692 58.6985 391.67C57.9335 391.13 57.311 390.894 56.9435 391.005C56.4485 391.16 56.1185 392.083 55.826 392.889C55.466 393.901 55.1211 394.854 54.2661 395.187C53.8011 395.364 53.291 395.312 52.751 395.024C51.5285 394.381 51.0935 393.044 50.4485 391.012C49.2935 387.414 47.366 381.392 39.161 372.503C36.9035 370.057 28.9985 362.203 22.2185 363.917C20.426 364.368 19.1435 365.513 18.791 366.969C18.4085 368.52 16.991 369.525 15.4085 369.348C13.1585 369.097 7.55605 368.823 4.20355 371.542C2.61355 372.835 1.71355 374.668 1.52605 376.995C0.896047 384.798 11.0885 388.263 19.286 391.049C23.366 392.431 26.8835 393.628 28.3535 395.179C29.0735 395.933 29.111 396.679 29.0135 397.167C28.6235 399.184 25.2036 400.788 22.4586 402.073C21.4761 402.531 20.5536 402.967 20.1411 403.263C18.9111 404.142 17.6585 405.753 18.191 407.408C18.596 408.694 20.771 411.716 32.0585 411.937C42.221 412.144 48.326 415.728 51.656 418.698C55.301 421.949 56.501 425.141 56.5535 425.274L55.1435 425.777C55.0985 425.659 50.471 413.777 32.0285 413.408C20.7935 413.179 17.5235 410.253 16.7585 407.837C16.1285 405.856 17.111 403.581 19.2635 402.051C19.7885 401.682 20.681 401.26 21.821 400.728C23.8685 399.768 27.3036 398.157 27.5436 396.879C27.5736 396.724 27.566 396.502 27.2585 396.177C26.0435 394.891 22.526 393.702 18.7985 392.431C10.571 389.638 -0.693969 385.81 0.033531 376.862C0.258531 374.121 1.33854 371.949 3.25104 370.39C6.91104 367.412 12.5435 367.53 15.5735 367.863C16.391 367.959 17.1335 367.427 17.336 366.607C17.8235 364.604 19.5111 363.06 21.8511 362.469C24.3036 361.848 31.0311 361.486 40.2711 371.491C48.7011 380.623 50.696 386.837 51.881 390.554C52.436 392.29 52.7736 393.347 53.4636 393.702C53.6361 393.79 53.7185 393.798 53.7335 393.79C53.951 393.709 54.2585 392.845 54.4235 392.379C54.8285 391.241 55.2935 389.948 56.5085 389.571C57.371 389.305 58.376 389.593 59.591 390.45C60.056 390.783 70.9085 398.852 73.841 425.651L72.341 425.836Z" fill="black"/>
<path d="M79.0473 426.301L78.0273 425.223C90.5823 413.696 104.705 410.068 104.847 410.031L105.215 411.464C105.08 411.494 91.3098 415.041 79.0473 426.301Z" fill="black"/>
<path d="M61.7128 425.651C61.6903 402.605 24.2578 378.747 23.8828 378.51L24.6928 377.262C24.7903 377.321 34.4053 383.417 43.8853 392.342C56.7028 404.401 63.2053 415.61 63.2128 425.651H61.7128Z" fill="black"/>
<path d="M747.116 110.53H576.296C573.078 110.53 570.401 109.385 568.556 107.22C566.943 105.328 566.051 102.749 566.051 99.9491C566.051 94.3631 569.771 88.4298 576.671 88.4298H588.881C590.103 88.4298 590.988 88.0973 591.588 87.4175C593.583 85.1639 592.728 79.1272 591.656 71.4797C591.356 69.3664 591.048 67.1793 590.771 64.8592L590.718 64.4381C589.638 55.564 587.396 37.0992 606.423 30.3753C613.766 27.7818 617.403 26.7843 624.011 24.9888C625.728 24.5233 627.648 23.9987 629.898 23.3706C635.786 21.7377 640.106 21.6933 643.916 23.2302C648.558 25.0996 652.331 29.4147 655.436 36.412C659.576 45.7442 663.003 48.6184 668.523 47.3845C705.326 39.1459 711.198 53.9828 716.876 68.332C717.228 69.2187 717.573 70.0979 717.933 70.9772C721.623 80.0434 726.108 88.4298 733.863 88.4298H746.741C753.933 88.4298 757.691 94.0897 757.691 99.6757C757.691 104.907 754.383 110.53 747.116 110.53ZM576.671 89.915C570.686 89.915 567.551 94.969 567.551 99.9565C567.551 102.402 568.316 104.648 569.703 106.274C571.256 108.092 573.536 109.06 576.296 109.06H747.116C753.356 109.06 756.191 104.198 756.191 99.6831C756.191 94.9763 753.236 89.915 746.741 89.915H733.863C725.208 89.915 720.423 81.0778 716.538 71.5314C716.178 70.6521 715.826 69.7655 715.473 68.8788C712.751 61.9997 709.931 54.8768 703.473 50.643C696.176 45.8476 684.843 45.2565 668.846 48.8401C661.616 50.4583 657.821 45.5151 654.048 37.0179C647.883 23.1268 640.091 22.0923 630.296 24.8114C628.046 25.4321 626.118 25.9641 624.401 26.4296C617.621 28.2768 614.216 29.2078 606.918 31.7866C589.016 38.1114 591.161 55.7857 592.196 64.2829L592.248 64.704C592.526 67.0094 592.833 69.1891 593.126 71.3023C594.296 79.6296 595.143 85.6516 592.706 88.4076C591.813 89.4125 590.523 89.9223 588.866 89.9223H576.671V89.915Z" fill="black"/>
<path d="M250.145 126.549H112.67C110.06 126.549 107.885 125.758 106.37 124.273C105.02 122.943 104.277 121.125 104.277 119.153C104.277 115.259 107.322 111.121 112.97 111.121H122.795C123.852 111.121 124.587 110.862 125.037 110.338C126.365 108.801 125.675 104.7 124.88 99.9489C124.64 98.5155 124.392 97.0377 124.167 95.4639L124.13 95.1757C123.252 89.0947 121.43 76.4523 136.902 71.849C142.82 70.0904 145.752 69.418 151.07 68.1989C152.45 67.8811 153.995 67.5265 155.795 67.1053C163.175 65.3837 170.795 65.2729 176.465 76.0237C179.36 81.4989 181.872 84.2919 186.882 83.3461C216.567 77.7601 221.322 87.8607 225.92 97.6288C226.205 98.2273 226.482 98.8258 226.767 99.4169C229.707 105.498 233.285 111.121 239.472 111.121H249.83C255.71 111.121 258.792 115.067 258.792 118.968C258.807 122.618 256.1 126.549 250.145 126.549ZM112.977 112.599C108.26 112.599 105.785 115.894 105.785 119.153C105.785 120.726 106.37 122.175 107.435 123.224C108.657 124.428 110.472 125.071 112.67 125.071H250.145C255.065 125.071 257.307 121.909 257.307 118.968C257.307 115.902 254.975 112.599 249.845 112.599H239.487C232.467 112.599 228.582 106.569 225.425 100.052C225.14 99.4539 224.855 98.8554 224.57 98.2569C220.01 88.5774 215.712 79.43 187.167 84.8017C181.295 85.91 178.212 82.5259 175.137 76.7035C170.225 67.4009 163.985 66.7137 156.14 68.5387C154.332 68.9599 152.787 69.3146 151.407 69.6323C145.947 70.8884 143.202 71.5165 137.33 73.2603C123.087 77.4941 124.73 88.8582 125.607 94.9614L125.652 95.2496C125.877 96.8087 126.125 98.279 126.357 99.7051C127.28 105.232 127.947 109.229 126.177 111.291C125.427 112.155 124.287 112.599 122.787 112.599H112.977Z" fill="black"/>
<path d="M244.445 401.911C243.275 395.911 242.105 387.015 242.098 386.926L243.583 386.734C243.59 386.823 244.753 395.675 245.915 401.63L244.445 401.911Z" fill="black"/>
<path d="M926.936 424.912H7.96875V426.39H926.936V424.912Z" fill="black"/>
<path d="M243.208 424.942H488.18V324.468C488.18 324.468 303.077 386.254 241.196 405.495C228.202 409.537 227.973 424.942 243.208 424.942Z" fill="#EC8C92"/>
<path d="M794.841 368.484L846.552 403.145C854.052 403.145 859.34 395.8 856.943 388.7L817.302 270.913C812.857 257.695 798.442 250.668 785.278 255.286L683.578 290.982C575.354 333.697 670.598 399.539 688.555 392.512L769.761 360.747C778.902 357.179 789.308 360.385 794.841 368.484Z" fill="#EC8C92"/>
<path d="M817.309 270.906C812.864 257.687 798.449 250.661 785.285 255.279L700.965 284.879C712.073 301.666 725.445 343.332 731.103 375.873L769.768 360.748C778.91 357.171 789.308 360.378 794.848 368.476L822.072 391.663C824.231 394.448 846.559 403.138 846.559 403.138C854.059 403.138 859.347 395.793 856.95 388.692L817.309 270.906Z" fill="#FFF3A1"/>
<path d="M435.176 311.545L550.588 402.598L541.217 424.942H609.392C615.442 424.942 622.068 424.942 626.772 424.942H647.599C673.1 424.942 693.771 404.29 693.771 378.813V257.739C693.771 208.647 656.06 201.45 620.515 187.508L435.176 291.233V311.545Z" fill="#274D76"/>
<path d="M326.464 418.499H324.984C324.984 414.576 326.404 410.785 328.978 407.822L336.906 398.712L338.023 399.68L330.095 408.79C327.758 411.48 326.464 414.93 326.464 418.499Z" fill="black"/>
<path d="M302.471 418.499H300.992C300.992 415.108 301.702 410.482 305.082 407.733C310.755 403.115 324.859 392.106 324.999 391.995L325.909 393.163C325.768 393.273 311.672 404.275 306.014 408.886C303.085 411.265 302.471 415.425 302.471 418.499Z" fill="black"/>
<path d="M271.143 418.499H269.664C269.664 414.62 269.664 409.803 277.836 405.731C285.654 401.845 306.236 392.003 306.444 391.907L307.08 393.237C306.873 393.333 286.305 403.167 278.495 407.054C271.143 410.711 271.143 414.849 271.143 418.499Z" fill="black"/>
<path d="M856.953 388.692L848.817 364.523L846.184 356.698L841.643 343.206L838.433 333.675L817.303 270.899C813.324 259.069 801.358 252.205 789.451 254.207L817.474 329.079C807.393 327.461 795.863 326.485 783.985 327.202C778.786 301.26 769.741 278.265 762.848 263.148L750.164 267.603C759.276 287.509 772.951 322.983 774.652 359.491C779.333 358.863 784.059 359.839 788.075 362.188C787.875 354.836 787.232 347.544 786.234 340.406C795.878 339.948 805.337 340.724 813.813 342.009C819.396 342.859 824.071 346.694 826.045 351.984L827.428 355.671C811.882 360.267 802.209 366.304 796.654 370.811L804.79 381.303C806.646 379.767 809.286 377.853 812.896 375.843C816.867 373.634 822.436 371.099 829.891 368.809C831.126 368.432 832.45 369.075 832.901 370.287L834.306 374.04C837.501 382.574 831.185 391.663 822.066 391.663L846.554 403.138C854.053 403.138 859.341 395.793 856.953 388.692Z" fill="#274D76"/>
<path d="M813.767 390.288L837.227 420.531C839.387 423.317 842.722 424.95 846.25 424.95H865.479C872.978 424.95 878.266 417.598 875.87 410.504L836.229 292.718C831.784 279.499 817.369 272.472 804.205 277.09L702.505 312.786C698.237 314.286 693.763 311.116 693.763 306.602V232.055C693.763 204.746 672.019 181.981 644.684 181.626C616.913 181.264 594.281 203.652 594.281 231.316V389.971C594.281 409.285 609.953 424.95 629.293 424.95H651.14C670.421 424.95 689.532 421.344 707.482 414.324L788.688 382.559C797.829 378.983 808.235 382.183 813.767 390.288Z" fill="#274D76"/>
<path d="M384.98 367.168L361.306 363.43C354.886 362.417 348.652 366.127 346.492 372.252L339.91 390.902C339.836 391.116 339.769 391.33 339.703 391.544C337.95 397.773 342.927 403.884 349.399 403.854L375.691 403.729L384.98 367.168Z" fill="#F2BDBA"/>
<path d="M836.237 292.711C831.792 279.492 817.377 272.465 804.213 277.083L702.513 312.779C699.066 313.991 695.487 312.151 694.237 309.018L683.195 328.495L615.441 422.083C619.694 423.915 624.376 424.935 629.294 424.935H651.141C670.422 424.935 689.533 421.329 707.483 414.31L788.689 382.545C797.83 378.969 808.229 382.175 813.768 390.273L837.228 420.516C839.387 423.302 842.723 424.935 846.251 424.935H865.48C872.979 424.935 878.267 417.583 875.871 410.49L836.237 292.711Z" fill="#F2BDBA"/>
<path d="M543.056 236.504L542.472 236.393C519.885 232.092 498.082 246.907 493.778 269.473L480.059 344.537C478.772 351.29 473.491 356.573 466.731 357.866C466.731 357.866 375.851 373.043 361.163 374.602C350.417 375.74 348.339 385.434 354.374 393.939C349.981 397.456 351.038 409.404 358.434 412.684C354.759 419.829 359.706 428.171 366.289 430.913C360.69 439.203 372.42 450.212 386.161 448.506C419.553 444.36 493.364 435.316 530.343 429.583C542.332 427.721 551.081 416.741 553.396 404.579L576.168 285.152C580.472 262.586 565.651 240.804 543.056 236.504Z" fill="#F2BDBA"/>
<path d="M645.821 312.986C644.142 312.986 642.47 312.587 640.939 311.789L622.805 302.309C616.822 299.184 613.102 293.043 613.102 286.297V241.971C613.102 237.154 617.029 233.23 621.851 233.23H669.791C674.613 233.23 678.54 237.154 678.54 241.971V286.297C678.54 293.043 674.82 299.184 668.837 302.309L650.695 311.789C649.171 312.587 647.492 312.986 645.821 312.986ZM621.851 234.701C617.842 234.701 614.581 237.959 614.581 241.964V286.29C614.581 292.489 617.998 298.12 623.493 300.994L641.627 310.474C644.253 311.848 647.389 311.848 650.014 310.474L668.156 300.994C673.651 298.12 677.068 292.489 677.068 286.29V241.964C677.068 237.959 673.806 234.701 669.798 234.701H621.851Z" fill="white"/>
<path d="M646.043 272.724C644.134 272.724 642.352 271.786 641.28 270.219C636.746 263.606 629.254 259.66 621.244 259.66H613.102V241.971C613.102 237.154 617.029 233.23 621.851 233.23H669.791C674.613 233.23 678.54 237.154 678.54 241.971V259.66H670.841C662.831 259.66 655.339 263.606 650.806 270.219C649.726 271.786 647.943 272.724 646.043 272.724ZM614.573 258.175H621.237C629.735 258.175 637.678 262.365 642.493 269.377C643.306 270.559 644.593 271.239 646.035 271.239C647.477 271.239 648.764 270.559 649.578 269.377C654.385 262.365 662.336 258.175 670.833 258.175H677.053V241.964C677.053 237.959 673.792 234.701 669.783 234.701H621.843C617.835 234.701 614.573 237.959 614.573 241.964V258.175Z" fill="white"/>
<path d="M645.85 264.862C642.81 264.862 640.348 262.401 640.348 259.365C640.348 256.328 642.81 253.867 645.85 253.867C648.89 253.867 651.353 256.328 651.353 259.365C651.353 262.394 648.89 264.862 645.85 264.862Z" fill="#FDFDFF"/>
<path d="M656.895 308.686L655.445 308.405C657.072 300.092 658.041 288.381 658.041 277.076C658.041 272.332 657.871 267.648 657.546 263.148L659.017 263.037C659.35 267.574 659.52 272.295 659.52 277.076C659.513 288.462 658.529 300.277 656.895 308.686Z" fill="white"/>
<path d="M636.319 309.506C634.574 300.949 633.531 288.824 633.531 277.068C633.531 272.576 633.679 268.128 633.975 263.842L635.454 263.946C635.158 268.194 635.01 272.613 635.01 277.076C635.01 288.743 636.038 300.757 637.769 309.217L636.319 309.506Z" fill="white"/>
<path d="M836.235 292.711C831.79 279.492 817.375 272.465 804.211 277.083L706.164 311.501C720.786 331.354 736.391 374.735 740.03 401.586L788.694 382.552C797.835 378.976 808.234 382.183 813.773 390.281L837.233 420.524C839.393 423.309 842.728 424.942 846.256 424.942H865.485C872.985 424.942 878.272 417.59 875.876 410.497L836.235 292.711Z" fill="#FFF3A1"/>
<path d="M875.878 410.497L867.743 386.328L865.11 378.503L860.569 365.011L857.359 355.479L836.229 292.703C832.25 280.874 820.284 274.01 808.377 276.012L836.399 350.884C826.319 349.265 814.789 348.29 802.911 349.007C797.712 323.064 788.667 300.07 781.774 284.953L769.09 289.408C778.202 309.314 791.876 344.788 793.578 381.296C798.259 380.668 802.985 381.644 807.001 383.993C806.801 376.641 806.158 369.348 805.159 362.211C814.804 361.753 824.263 362.528 832.738 363.814C838.322 364.664 842.996 368.499 844.971 373.789L846.354 377.476C830.808 382.072 821.134 388.109 815.58 392.616L823.716 403.108C825.572 401.571 828.212 399.658 831.821 397.655C835.793 395.446 841.362 392.912 848.817 390.621C850.052 390.244 851.376 390.887 851.827 392.099L853.232 395.852C856.427 404.386 850.111 413.475 840.992 413.475H831.755L837.228 420.531C839.387 423.317 842.723 424.95 846.251 424.95H865.48C872.979 424.942 878.267 417.598 875.878 410.497Z" fill="#274D76"/>
<path d="M356.446 393.801L356.082 395.233L371.343 399.109L371.707 397.677L356.446 393.801Z" fill="black"/>
<path d="M362.006 413.817L361.641 415.249L375.667 418.816L376.032 417.384L362.006 413.817Z" fill="black"/>
<path d="M369.061 431.74L368.668 433.164L379.834 436.238L380.227 434.813L369.061 431.74Z" fill="black"/>
<path d="M793.72 280.049L703.43 311.702L703.919 313.096L794.21 281.444L793.72 280.049Z" fill="black"/>
<path d="M699.347 313.082C696.588 312.661 694.273 310.473 693.852 307.562L594.289 355.634V389.971C594.289 408.916 609.369 424.336 628.192 424.92L699.347 313.082Z" fill="#93B4F6"/>
<path d="M378.78 377.254C375.237 377.358 371.517 376.486 370.955 373.183C370.046 367.907 368.773 351.969 368.773 351.969L379.823 348.896L386.449 370.109C387.293 374.934 383.809 377.114 378.78 377.254Z" fill="black"/>
<path d="M392.184 308.656C386.792 287.391 374.323 272.199 364.316 274.733L347.254 279.049C357.253 276.522 369.73 291.706 375.121 312.971C380.513 334.236 376.771 353.529 366.764 356.056L383.826 351.74C393.833 349.213 397.575 329.921 392.184 308.656Z" fill="black"/>
<path d="M366.75 356.04C376.752 353.511 380.492 334.223 375.105 312.96C369.717 291.697 357.241 276.511 347.239 279.04C337.237 281.57 333.496 300.858 338.884 322.121C344.272 343.384 356.748 358.57 366.75 356.04Z" fill="#274D76"/>
<path d="M359.418 283.401C354.648 289.977 353.531 303.58 357.244 318.239C360.831 332.404 367.916 343.554 375.001 347.47C378.27 339.357 378.566 326.574 375.12 312.971C371.814 299.93 365.845 289.186 359.418 283.401Z" fill="#74BAAB"/>
<path d="M363.442 351.386C354.804 347.603 347.756 337.17 344.109 322.761C339.317 303.831 341.906 287.384 350.403 282.751L351.113 284.051C343.325 288.292 340.988 304.422 345.544 322.407C349.079 336.364 355.824 346.436 364.034 350.034L363.442 351.386Z" fill="#FAFCFC"/>
<path d="M467.545 324.837C465.43 317.138 462.309 304.599 459.587 293.442C463.736 292.393 466.82 288.647 466.82 284.176C466.82 278.893 462.531 274.608 457.243 274.608H455.046C454.344 271.652 453.922 269.879 453.922 269.879H401.922V333.135C401.922 345.053 411.588 354.711 423.518 354.711H443.353C457.161 354.711 471.864 340.591 467.545 324.837Z" fill="#F2BDBA"/>
<path d="M414.25 220.344C414.25 220.344 409.406 200.15 409.953 190.707C410.456 181.937 419.583 176.58 426.697 178.368C435.195 180.51 432.799 191.911 437.858 194.948C444.536 198.953 451.88 191.838 461.465 196.507C473.476 202.359 468.765 222.745 435.047 229.181C429.937 230.156 424.641 229.477 419.93 227.267C419.908 227.26 419.901 227.253 419.901 227.253C416.831 226.033 414.709 223.432 414.25 220.344Z" fill="#274D76"/>
<path d="M391.149 272.554C403.973 277.534 433.978 285.758 473.93 274.608C477.014 273.751 477.502 269.583 474.699 268.039C457.386 258.5 438.763 248.562 433.187 245.592C432.144 245.038 430.894 245.038 429.851 245.584L390.794 266.081C388.087 267.5 388.301 271.445 391.149 272.554Z" fill="#FFF3A1"/>
<path d="M457.985 258.271C458.036 256.269 457.933 253.18 457.829 252.22C456.372 238.676 444.894 228.132 430.945 228.132C416.013 228.132 403.906 240.227 403.906 255.145V258.271C417.337 262.756 443.637 264.603 457.985 258.271Z" fill="#93B4F6"/>
<path d="M430.945 228.132C419.563 228.132 409.83 235.159 405.844 245.104C419.119 248.961 442.143 250.417 456.106 245.252C452.156 235.232 442.379 228.132 430.945 228.132Z" fill="#FFF3A1"/>
<path d="M406.767 217.581C399.771 211.958 396.827 205.433 395.592 200.956C394.253 196.086 394.571 192.576 394.586 192.429L396.058 192.569C396.043 192.702 394.934 206.179 407.699 216.428L406.767 217.581Z" fill="#274D76"/>
<path d="M407.314 215.704C400.88 202.47 402.855 191.342 402.944 190.877L404.401 191.15C404.378 191.261 402.441 202.285 408.653 215.061L407.314 215.704Z" fill="#274D76"/>
<path d="M406.462 212.179C408.252 211.692 410.094 212.77 410.552 214.566L411.107 216.775C411.329 217.64 411.891 218.386 412.66 218.837L420.869 223.58C424.316 225.568 433.494 233.075 430.314 235.469C429.256 236.304 427.844 236.533 426.579 236.09C422.97 234.811 420.662 233.976 418.17 233.112C414.694 231.9 411.765 229.484 409.901 226.314L404.525 217.145C403.341 215.246 404.317 212.763 406.462 212.179Z" fill="#274D76"/>
<path d="M416.618 218.844C416.618 218.844 418.407 198.709 421.78 190.16C424.916 182.217 434.804 180.074 440.691 183.917C447.724 188.505 442.067 198.295 445.72 202.655C450.535 208.411 459.358 204.088 466.599 211.352C475.666 220.44 465.201 237.804 432.785 233.407C427.83 232.742 416.048 226.048 416.618 218.844Z" fill="white"/>
<path d="M431.483 309.195L430.41 308.183C430.602 307.976 435.232 303.196 443.538 305.479L443.146 306.905C435.735 304.873 431.653 309.018 431.483 309.195Z" fill="black"/>
<path d="M445.815 296.634C445.209 296.582 442.228 296.294 439.351 295.984C434.056 295.422 433.272 295.334 433.168 294.824C433.072 294.713 432.991 294.58 432.932 294.44C432.732 293.937 432.865 293.376 433.264 293.021L439.913 287.014L440.904 288.107L434.47 293.915C436.289 294.218 444.587 295.045 445.941 295.156L445.815 296.634ZM434.1 293.767L434.137 295.23C434.344 295.164 434.596 294.949 434.625 294.602C434.647 294.336 434.529 294.122 434.381 293.996L434.241 294.122C434.285 294.085 434.315 294.011 434.3 293.937C434.248 293.9 434.204 293.878 434.152 293.871C434.181 293.878 434.226 293.893 434.285 293.9C434.263 293.811 434.174 293.767 434.1 293.767C434.108 293.767 434.108 293.767 434.1 293.767Z" fill="black"/>
<path d="M414.686 301.666C412.187 301.666 410.16 299.634 410.16 297.144V293.612C410.16 291.115 412.194 289.09 414.686 289.09C417.186 289.09 419.213 291.122 419.213 293.612V297.144C419.213 299.641 417.186 301.666 414.686 301.666ZM414.686 290.56C413.008 290.56 411.639 291.927 411.639 293.605V297.137C411.639 298.814 413.008 300.181 414.686 300.181C416.365 300.181 417.733 298.814 417.733 297.137V293.605C417.733 291.927 416.365 290.56 414.686 290.56Z" fill="black"/>
<path d="M410.139 319.274H408.66V339.253H410.139V319.274Z" fill="black"/>
<path d="M421.491 323.5H420.012V346.155H421.491V323.5Z" fill="black"/>
<path d="M433.94 321.756L432.461 321.779L432.903 350.674L434.383 350.651L433.94 321.756Z" fill="black"/>
<path d="M446.353 319.256L444.875 319.306L445.798 346.732L447.276 346.682L446.353 319.256Z" fill="black"/>
<path d="M455.925 310.506L454.457 310.687L457.745 337.232L459.213 337.05L455.925 310.506Z" fill="black"/>
<path d="M543.055 236.504L542.471 236.393C519.884 232.092 498.081 246.907 493.777 269.473L480.058 341.433C479.843 342.542 479.281 344.189 478.586 345.793C489.14 354.12 541.724 394.441 553.594 403.566L576.174 285.145C580.471 262.586 565.65 240.804 543.055 236.504Z" fill="#93B4F6"/>
<path d="M667.976 326.273L603.746 365.598L604.519 366.858L668.749 327.533L667.976 326.273Z" fill="black"/>
<path d="M657.843 343.629L601.602 395.416L602.604 396.502L658.845 344.715L657.843 343.629Z" fill="black"/>
<path d="M669.972 343.525L632.129 396.52L633.333 397.378L671.176 344.383L669.972 343.525Z" fill="black"/>
<path d="M493.133 340.334L492.305 341.558L542.311 375.321L543.139 374.096L493.133 340.334Z" fill="black"/>
<path d="M493.98 324.718L493.195 325.971L534.402 351.714L535.186 350.461L493.98 324.718Z" fill="black"/>
<path d="M528.133 334.753L527.398 336.035L547.904 347.766L548.639 346.483L528.133 334.753Z" fill="black"/>
<path d="M595.026 254.968H593.547V384.259H595.026V254.968Z" fill="black"/>
<path d="M432.644 263.103C423.236 263.103 413.74 261.869 406.625 259.993L407.002 258.566C419.309 261.81 438.841 263.111 452.376 259.305L452.775 260.731C446.836 262.394 439.766 263.103 432.644 263.103Z" fill="black"/>
<path d="M351.792 405.761C350.32 401.135 351.008 396.273 353.404 393.835C350.269 389.128 349.448 384.037 351.223 380.106C352.813 376.597 356.311 374.38 361.089 373.878L361.244 375.348C357.014 375.799 353.929 377.705 352.569 380.72C350.942 384.318 351.844 389.106 354.98 393.525L355.386 394.094L354.839 394.529C352.539 396.377 351.829 401.01 353.205 405.325L351.792 405.761Z" fill="black"/>
<path d="M484.445 324.675L482.988 324.409L493.054 269.34C497.425 246.405 519.657 231.302 542.613 235.668L543.198 235.779C552.753 237.597 561.14 242.452 567.449 249.818L566.325 250.779C560.238 243.671 552.139 238.986 542.917 237.228L542.332 237.117C531.601 235.077 520.714 237.331 511.684 243.464C502.654 249.604 496.552 258.884 494.504 269.606L484.445 324.675Z" fill="black"/>
</svg>
