<svg width="255" height="228" viewBox="0 0 255 228" fill="none" xmlns="http://www.w3.org/2000/svg">
<g clip-path="url(#clip0_1136_2509)">
<path d="M254.08 0H0V227.925H254.08V0Z" fill="#097B85"/>
<path d="M182.793 50.767V50.0664H183.494V50.767H182.793ZM120.08 50.767L127.086 46.7222V54.8118L120.08 50.767ZM125.959 50.767V50.0664H129.879V50.767V51.4676H125.959V50.767ZM133.799 50.767V50.0664H137.718V50.767V51.4676H133.799V50.767ZM141.638 50.767V50.0664H145.557V50.767V51.4676H141.638V50.767ZM149.477 50.767V50.0664H153.396V50.767V51.4676H149.477V50.767ZM157.316 50.767V50.0664H161.235V50.767V51.4676H157.316V50.767ZM165.155 50.767V50.0664H169.075V50.767V51.4676H165.155V50.767ZM172.994 50.767V50.0664H176.914V50.767V51.4676H172.994V50.767ZM180.833 50.767V50.0664H182.793V50.767V51.4676H180.833V50.767ZM182.793 50.767H183.494V52.9981H182.793H182.092V50.767H182.793ZM182.793 57.4604H183.494V61.9227H182.793H182.092V57.4604H182.793ZM182.793 66.385H183.494V70.8473H182.793H182.092V66.385H182.793ZM182.793 75.3095H183.494V79.7718H182.793H182.092V75.3095H182.793ZM182.793 84.2341H183.494V86.4652H182.793H182.092V84.2341H182.793Z" fill="#A9E5EB"/>
<mask id="mask0_1136_2509" style="mask-type:luminance" maskUnits="userSpaceOnUse" x="15" y="11" width="103" height="102">
<path d="M117.149 11.2095H15.8809V112.478H117.149V11.2095Z" fill="white"/>
</mask>
<g mask="url(#mask0_1136_2509)">
<mask id="mask1_1136_2509" style="mask-type:luminance" maskUnits="userSpaceOnUse" x="15" y="11" width="103" height="102">
<path d="M15.8809 11.2104H117.149V112.479H15.8809V11.2104Z" fill="white"/>
</mask>
<g mask="url(#mask1_1136_2509)">
<path d="M83.4252 22.2856C84.517 22.2856 85.4031 23.1717 85.4031 24.2635C85.4031 25.3553 84.517 26.2414 83.4252 26.2414C82.3334 26.2414 81.4473 25.3553 81.4473 24.2635C81.4473 23.1717 82.3334 22.2856 83.4252 22.2856Z" fill="#A9E5EB"/>
<path d="M33.8724 22.2856C34.9642 22.2856 35.8503 23.1717 35.8503 24.2635C35.8503 25.3553 34.9642 26.2414 33.8724 26.2414C32.7806 26.2414 31.8945 25.3553 31.8945 24.2635C31.8945 23.1717 32.7806 22.2856 33.8724 22.2856Z" fill="#A9E5EB"/>
<path d="M26.8275 22.2856C27.9194 22.2856 28.8055 23.1717 28.8055 24.2635C28.8055 25.3553 27.9194 26.2414 26.8275 26.2414C25.7357 26.2414 24.8496 25.3553 24.8496 24.2635C24.8496 23.1717 25.7357 22.2856 26.8275 22.2856Z" fill="#A9E5EB"/>
<path d="M115.169 32.1758V103.381C115.169 105.566 113.399 107.337 111.213 107.337H21.8113C19.6256 107.337 17.8555 105.566 17.8555 103.381V32.1758V20.3084C17.8555 18.1228 19.6256 16.3525 21.8113 16.3525H111.213C113.399 16.3525 115.169 18.1228 115.169 20.3084V32.1758Z" stroke="white" stroke-width="1.40118" stroke-miterlimit="10" stroke-linecap="round" stroke-linejoin="round"/>
<path d="M17.8555 32.1753H115.006" stroke="white" stroke-width="1.40118" stroke-miterlimit="10" stroke-linecap="round" stroke-linejoin="round"/>
<path d="M90.375 24.2637H106.198" stroke="#A9E5EB" stroke-width="1.40118" stroke-miterlimit="10" stroke-linecap="round" stroke-linejoin="round"/>
<path d="M67.6986 63.8226H29.7227V44.0435H67.6986V63.8226Z" stroke="white" stroke-width="1.40118" stroke-miterlimit="10" stroke-linecap="round" stroke-linejoin="round"/>
<path d="M103.302 63.8226H79.5664V44.0435H103.302V63.8226Z" stroke="white" stroke-width="1.40118" stroke-miterlimit="10" stroke-linecap="round" stroke-linejoin="round"/>
<path d="M79.5664 44.0435L103.302 63.8226" stroke="white" stroke-width="1.40118" stroke-miterlimit="10" stroke-linecap="round" stroke-linejoin="round"/>
<path d="M29.7227 75.6909H55.8311" stroke="#A9E5EB" stroke-width="1.40118" stroke-miterlimit="10" stroke-linecap="round" stroke-linejoin="round"/>
<path d="M29.3887 82.606H44.8257" stroke="#A9E5EB" stroke-width="1.40118" stroke-miterlimit="10" stroke-linecap="round" stroke-linejoin="round"/>
</g>
</g>
<path d="M234.194 84.271H73.5059V214.084H234.194V84.271Z" fill="#097B85" stroke="#A9E5EB" stroke-width="1.40118"/>
<path d="M75.9638 80.4116H69.6465V86.729H75.9638V80.4116Z" fill="#097B85" stroke="#A9E5EB" stroke-width="1.40118"/>
<path d="M237.087 80.4116H230.77V86.729H237.087V80.4116Z" fill="#097B85" stroke="#A9E5EB" stroke-width="1.40118"/>
<path d="M237.087 209.697H230.77V216.015H237.087V209.697Z" fill="#097B85" stroke="#A9E5EB" stroke-width="1.40118"/>
<path d="M75.9638 209.697H69.6465V216.015H75.9638V209.697Z" fill="#097B85" stroke="#A9E5EB" stroke-width="1.40118"/>
<path d="M222.136 96.332H86.1035V201.061H222.136V96.332Z" fill="#097B85"/>
<path d="M222.136 96.332H86.1035V201.061H222.136V96.332Z" stroke="white" stroke-width="1.40118"/>
<path d="M118.293 103.502H94.505C93.6943 103.502 93.0371 104.159 93.0371 104.97V111.196C93.0371 112.007 93.6943 112.664 94.505 112.664H118.293C119.103 112.664 119.76 112.007 119.76 111.196V104.97C119.76 104.159 119.103 103.502 118.293 103.502Z" fill="#A9E5EB"/>
<path d="M151.652 103.502H127.101C126.29 103.502 125.633 104.159 125.633 104.97V111.196C125.633 112.007 126.29 112.664 127.101 112.664H151.652C152.463 112.664 153.12 112.007 153.12 111.196V104.97C153.12 104.159 152.463 103.502 151.652 103.502Z" fill="#A9E5EB"/>
<path d="M184.246 103.502H160.458C159.647 103.502 158.99 104.159 158.99 104.97V111.196C158.99 112.007 159.647 112.664 160.458 112.664H184.246C185.056 112.664 185.714 112.007 185.714 111.196V104.97C185.714 104.159 185.056 103.502 184.246 103.502Z" fill="#A9E5EB"/>
<path d="M151.752 121.763H94.5056C94.0818 121.763 93.7383 122.107 93.7383 122.53V148.218C93.7383 148.642 94.0818 148.985 94.5056 148.985H151.752C152.176 148.985 152.519 148.642 152.519 148.218V122.53C152.519 122.107 152.176 121.763 151.752 121.763Z" fill="#097B85" stroke="white" stroke-width="1.40118"/>
<path d="M184.78 121.763H160.56C160.136 121.763 159.793 122.107 159.793 122.53V148.218C159.793 148.642 160.136 148.985 160.56 148.985H184.78C185.204 148.985 185.547 148.642 185.547 148.218V122.53C185.547 122.107 185.204 121.763 184.78 121.763Z" fill="#097B85" stroke="white" stroke-width="1.40118"/>
<path d="M93.0371 161.721H167.862" stroke="white" stroke-width="1.40118" stroke-linecap="round"/>
<path d="M93.0371 169.355H153.355" stroke="white" stroke-width="1.40118" stroke-linecap="round"/>
<path d="M177.852 181.318H93.7383V193.66H177.852V181.318Z" stroke="white" stroke-width="1.40118"/>
<path d="M44.567 125.796L45.3406 127.944C46.1998 130.328 48.0772 132.206 50.4615 133.065L52.6097 133.838C52.8032 133.908 52.8032 134.183 52.6097 134.252L50.4615 135.026C48.0772 135.885 46.1998 137.763 45.3406 140.147L44.567 142.295C44.4967 142.488 44.2221 142.488 44.1527 142.295L43.3792 140.147C42.52 137.763 40.6424 135.885 38.2583 135.026L36.1101 134.252C35.9164 134.182 35.9164 133.908 36.1101 133.838L38.2583 133.065C40.6424 132.206 42.52 130.328 43.3792 127.944L44.1527 125.796C44.2221 125.601 44.4967 125.601 44.567 125.796Z" fill="#A9E5EB"/>
<path d="M54.2354 120.633L54.6275 121.72C55.0629 122.928 56.0137 123.878 57.2207 124.314L58.3083 124.706C58.4066 124.741 58.4066 124.88 58.3083 124.916L57.2207 125.308C56.0137 125.743 55.0629 126.694 54.6275 127.901L54.2354 128.989C54.1998 129.087 54.061 129.087 54.0255 128.989L53.6334 127.901C53.1979 126.694 52.2472 125.743 51.0401 125.308L49.9526 124.916C49.8543 124.88 49.8543 124.741 49.9526 124.706L51.0401 124.314C52.2472 123.878 53.1979 122.928 53.6334 121.72L54.0255 120.633C54.061 120.534 54.2008 120.534 54.2354 120.633Z" fill="#A9E5EB"/>
<path d="M54.2354 139.101L54.6275 140.189C55.0629 141.396 56.0137 142.347 57.2207 142.782L58.3083 143.174C58.4066 143.21 58.4066 143.349 58.3083 143.384L57.2207 143.777C56.0137 144.212 55.0629 145.163 54.6275 146.37L54.2354 147.457C54.1998 147.555 54.061 147.555 54.0255 147.457L53.6334 146.37C53.1979 145.163 52.2472 144.212 51.0401 143.777L49.9526 143.384C49.8543 143.349 49.8543 143.21 49.9526 143.174L51.0401 142.782C52.2472 142.347 53.1979 141.396 53.6334 140.189L54.0255 139.101C54.061 139.003 54.2008 139.003 54.2354 139.101Z" fill="#A9E5EB"/>
</g>
<defs>
<clipPath id="clip0_1136_2509">
<rect width="254.08" height="227.925" fill="white"/>
</clipPath>
</defs>
</svg>
