<svg width="255" height="228" viewBox="0 0 255 228" fill="none" xmlns="http://www.w3.org/2000/svg">
<g clip-path="url(#clip0_1136_2279)">
<path d="M254.08 0H0V227.925H254.08V0Z" fill="#097B85"/>
<mask id="mask0_1136_2279" style="mask-type:luminance" maskUnits="userSpaceOnUse" x="12" y="80" width="142" height="142">
<path d="M153.154 80.063H12.1426V221.075H153.154V80.063Z" fill="white"/>
</mask>
<g mask="url(#mask0_1136_2279)">
<mask id="mask1_1136_2279" style="mask-type:luminance" maskUnits="userSpaceOnUse" x="12" y="80" width="142" height="142">
<path d="M12.1426 80.0625H153.154V221.074H12.1426V80.0625Z" fill="white"/>
</mask>
<g mask="url(#mask1_1136_2279)">
<path d="M144.891 181.414H20.4046C18.1231 181.414 16.2734 179.565 16.2734 177.283V95.2102C16.2734 92.9284 18.1231 91.0786 20.4046 91.0786H144.891C147.172 91.0786 149.023 92.9284 149.023 95.2102V177.283C149.023 179.565 147.172 181.414 144.891 181.414Z" stroke="white" stroke-width="1.40118" stroke-miterlimit="10" stroke-linecap="round" stroke-linejoin="round"/>
<path d="M65.0234 181.415H100.277V210.057H65.0234V181.415Z" stroke="white" stroke-width="1.40118" stroke-miterlimit="10" stroke-linecap="round" stroke-linejoin="round"/>
<path d="M38.5801 210.057H126.712" stroke="white" stroke-width="1.40118" stroke-miterlimit="10" stroke-linecap="round" stroke-linejoin="round"/>
</g>
<path d="M27.9941 114.509V102.916C27.9941 102.414 28.4009 102.007 28.9029 102.007H40.4956C40.9975 102.007 41.4044 102.414 41.4044 102.916V114.509C41.4044 115.01 40.9975 115.418 40.4956 115.418H28.9029C28.4009 115.418 27.9941 115.01 27.9941 114.509Z" stroke="white" stroke-width="1.40118"/>
<path d="M48.7188 114.509V102.916C48.7188 102.414 49.1257 102.007 49.6276 102.007H74.6306C75.1325 102.007 75.5394 102.414 75.5394 102.916V114.509C75.5394 115.01 75.1325 115.418 74.6306 115.418H49.6276C49.1257 115.418 48.7188 115.01 48.7188 114.509Z" stroke="white" stroke-width="1.40118"/>
<path d="M27.9941 138.58H62.074" stroke="white" stroke-width="1.40118" stroke-linecap="round"/>
<path d="M27.9941 147.115H71.8823" stroke="white" stroke-width="1.40118" stroke-linecap="round"/>
<path d="M27.9941 130.046H52.5316" stroke="white" stroke-width="1.40118" stroke-linecap="round"/>
</g>
<mask id="mask2_1136_2279" style="mask-type:luminance" maskUnits="userSpaceOnUse" x="86" y="130" width="65" height="65">
<path d="M86.3755 130.754H150.197V194.576H86.3755V130.754Z" fill="white"/>
</mask>
<g mask="url(#mask2_1136_2279)">
<path d="M86.3755 130.754H150.197V194.576H86.3755V130.754Z" fill="#097B85"/>
<mask id="mask3_1136_2279" style="mask-type:luminance" maskUnits="userSpaceOnUse" x="86" y="130" width="65" height="65">
<path d="M150.201 130.756H86.3789V194.578H150.201V130.756Z" fill="white"/>
</mask>
<g mask="url(#mask3_1136_2279)">
<path d="M88.2539 153.995C88.2539 165.797 97.821 175.364 109.623 175.364C114.106 175.364 118.268 173.982 121.706 171.621C123.877 170.13 125.758 168.249 127.249 166.079C129.61 162.64 130.992 158.479 130.992 153.995C130.992 142.193 121.424 132.626 109.623 132.626C97.821 132.626 88.2539 142.193 88.2539 153.995Z" stroke="white" stroke-width="1.40118" stroke-miterlimit="10" stroke-linecap="round" stroke-linejoin="round"/>
<path d="M143.042 192.708L148.331 187.419L133.631 172.719L128.342 178.007L143.042 192.708Z" stroke="white" stroke-width="1.40118" stroke-miterlimit="10" stroke-linecap="round" stroke-linejoin="round"/>
<path d="M124.729 169.104L130.988 175.363" stroke="white" stroke-width="1.40118" stroke-miterlimit="10" stroke-linecap="round" stroke-linejoin="round"/>
</g>
<path d="M119.213 153.655L116.532 152.889C115.324 152.549 114.225 151.904 113.338 151.018C112.451 150.13 111.806 149.031 111.466 147.824L110.7 145.143C110.662 145.049 110.597 144.969 110.512 144.912C110.428 144.856 110.329 144.826 110.228 144.826C110.126 144.826 110.027 144.856 109.943 144.912C109.859 144.969 109.793 145.049 109.754 145.143L108.988 147.824C108.648 149.031 108.004 150.13 107.116 151.018C106.23 151.904 105.13 152.549 103.923 152.889L101.243 153.655C101.14 153.684 101.049 153.746 100.984 153.832C100.919 153.917 100.885 154.021 100.885 154.128C100.885 154.235 100.919 154.339 100.984 154.424C101.049 154.51 101.14 154.572 101.243 154.601L103.923 155.367C105.13 155.708 106.23 156.352 107.116 157.239C108.004 158.126 108.648 159.226 108.988 160.432L109.754 163.113C109.784 163.216 109.846 163.307 109.931 163.371C110.017 163.436 110.12 163.471 110.228 163.471C110.334 163.471 110.439 163.436 110.524 163.371C110.609 163.307 110.672 163.216 110.7 163.113L111.466 160.432C111.806 159.226 112.451 158.126 113.338 157.239C114.225 156.352 115.324 155.708 116.532 155.367L119.213 154.601C119.316 154.572 119.406 154.51 119.471 154.424C119.535 154.339 119.57 154.235 119.57 154.128C119.57 154.021 119.535 153.917 119.471 153.832C119.406 153.746 119.316 153.684 119.213 153.655Z" fill="#A9E5EB"/>
</g>
<path d="M227.685 25.9337H219.773C218.341 25.9337 217.18 24.7728 217.18 23.3409V15.4282L227.685 25.9337Z" stroke="white" stroke-width="1.40118" stroke-miterlimit="10" stroke-linecap="round" stroke-linejoin="round"/>
<path d="M196.184 34.6274H219.869" stroke="white" stroke-width="1.40118" stroke-miterlimit="10" stroke-linecap="round" stroke-linejoin="round"/>
<path d="M196.184 41.2056H219.869" stroke="white" stroke-width="1.40118" stroke-miterlimit="10" stroke-linecap="round" stroke-linejoin="round"/>
<path d="M196.184 47.7837H219.869" stroke="white" stroke-width="1.40118" stroke-miterlimit="10" stroke-linecap="round" stroke-linejoin="round"/>
<path d="M188.363 25.3V18.022C188.363 16.5898 189.524 15.4287 190.957 15.4287H217.183L227.689 25.9342V64.3891C227.689 65.8213 226.528 66.9823 225.096 66.9823H190.957C189.524 66.9823 188.363 65.8213 188.363 64.3891V29.1681" stroke="white" stroke-width="1.40118" stroke-miterlimit="10" stroke-linecap="round" stroke-linejoin="round"/>
<path d="M241.33 49.1353H209.229V81.237H241.33V49.1353Z" fill="#097B85"/>
<mask id="mask4_1136_2279" style="mask-type:luminance" maskUnits="userSpaceOnUse" x="213" y="53" width="25" height="25">
<path d="M237.319 53.1484H213.242V77.2248H237.319V53.1484Z" fill="white"/>
</mask>
<g mask="url(#mask4_1136_2279)">
<mask id="mask5_1136_2279" style="mask-type:luminance" maskUnits="userSpaceOnUse" x="213" y="53" width="25" height="25">
<path d="M213.242 53.1479H237.319V77.2243H213.242V53.1479Z" fill="white"/>
</mask>
<g mask="url(#mask5_1136_2279)">
<path d="M236.613 65.1863C236.613 71.4453 231.54 76.5191 225.28 76.5191C219.021 76.5191 213.947 71.4453 213.947 65.1863C213.947 58.9273 219.021 53.8535 225.28 53.8535C231.54 53.8535 236.613 58.9273 236.613 65.1863Z" fill="#A9E5EB" stroke="#097B85" stroke-width="1.0956" stroke-miterlimit="10" stroke-linecap="round" stroke-linejoin="round"/>
<path d="M229.813 63.6756C229.813 66.1792 227.784 68.2087 225.279 68.2087C222.776 68.2087 220.746 66.1792 220.746 63.6756C220.746 61.1721 222.776 59.1426 225.279 59.1426C227.784 59.1426 229.813 61.1721 229.813 63.6756Z" fill="#097B85" stroke="#097B85" stroke-width="1.0956" stroke-miterlimit="10" stroke-linecap="round" stroke-linejoin="round"/>
<path d="M218.52 74.2825C218.882 70.8684 221.77 68.209 225.281 68.209C228.791 68.209 231.679 70.8686 232.042 74.2826" stroke="#097B85" stroke-width="1.0956" stroke-miterlimit="10" stroke-linecap="round" stroke-linejoin="round"/>
</g>
</g>
<path d="M209.242 105.555L213.287 98.5494H205.197L209.242 105.555ZM209.242 76.5977H208.541V79.0108H209.242H209.943V76.5977H209.242ZM209.242 83.8371H208.541V88.6634H209.242H209.943V83.8371H209.242ZM209.242 93.4893H208.541V98.3159H209.242H209.943V93.4893H209.242Z" fill="#A9E5EB"/>
<mask id="mask6_1136_2279" style="mask-type:luminance" maskUnits="userSpaceOnUse" x="187" y="113" width="45" height="45">
<path d="M187.602 113.806H231.505V157.71H187.602V113.806Z" fill="white"/>
</mask>
<g mask="url(#mask6_1136_2279)">
<path d="M217.271 125.383H201.836V115.092H217.271V125.383Z" stroke="white" stroke-width="1.40118" stroke-miterlimit="10"/>
</g>
<path d="M209.554 130.699L201.836 138.416L209.554 146.134L217.271 138.416L209.554 130.699Z" stroke="white" stroke-width="1.40118" stroke-miterlimit="10"/>
<mask id="mask7_1136_2279" style="mask-type:luminance" maskUnits="userSpaceOnUse" x="187" y="113" width="45" height="45">
<path d="M187.602 113.806H231.505V157.71H187.602V113.806Z" fill="white"/>
</mask>
<g mask="url(#mask7_1136_2279)">
<path d="M199.179 156.424H188.889V148.707H199.179V156.424Z" stroke="white" stroke-width="1.40118" stroke-miterlimit="10"/>
<path d="M230.22 156.424H219.93V148.707H230.22V156.424Z" stroke="white" stroke-width="1.40118" stroke-miterlimit="10"/>
</g>
<path d="M194.033 148.707V138.417H201.836" stroke="white" stroke-width="1.40118" stroke-miterlimit="10"/>
<path d="M217.271 138.417H225.074V148.707" stroke="white" stroke-width="1.40118" stroke-miterlimit="10"/>
<path d="M209.553 125.383V130.699" stroke="white" stroke-width="1.40118" stroke-miterlimit="10"/>
<path d="M82.2025 41.101V40.4004H81.502V41.101H82.2025ZM181.219 41.101L174.213 37.0562V45.1458L181.219 41.101ZM82.2025 88.741H82.9031V86.359H82.2025H81.502V88.741H82.2025ZM82.2025 81.595H82.9031V76.831H82.2025H81.502V81.595H82.2025ZM82.2025 72.067H82.9031V67.303H82.2025H81.502V72.067H82.2025ZM82.2025 62.539H82.9031V57.775H82.2025H81.502V62.539H82.2025ZM82.2025 53.011H82.9031V48.247H82.2025H81.502V53.011H82.2025ZM82.2025 43.483H82.9031V41.101H82.2025H81.502V43.483H82.2025ZM82.2025 41.101V41.8016H84.4529V41.101V40.4004H82.2025V41.101ZM88.9537 41.101V41.8016H93.454V41.101V40.4004H88.9537V41.101ZM97.9555 41.101V41.8016H102.456V41.101V40.4004H97.9555V41.101ZM106.957 41.101V41.8016H111.457V41.101V40.4004H106.957V41.101ZM115.958 41.101V41.8016H120.459V41.101V40.4004H115.958V41.101ZM124.96 41.101V41.8016H129.46V41.101V40.4004H124.96V41.101ZM133.961 41.101V41.8016H138.462V41.101V40.4004H133.961V41.101ZM142.962 41.101V41.8016H147.464V41.101V40.4004H142.962V41.101ZM151.964 41.101V41.8016H156.465V41.101V40.4004H151.964V41.101ZM160.965 41.101V41.8016H165.466V41.101V40.4004H160.965V41.101ZM169.968 41.101V41.8016H174.468V41.101V40.4004H169.968V41.101Z" fill="#A9E5EB"/>
<path d="M211.11 180.285V180.985H211.811V180.285H211.11ZM157.865 180.285L164.871 184.33V176.24L157.865 180.285ZM211.11 161.603H210.409V163.938H211.11H211.811V161.603H211.11ZM211.11 168.608H210.409V173.279H211.11H211.811V168.608H211.11ZM211.11 177.95H210.409V180.285H211.11H211.811V177.95H211.11ZM211.11 180.285V179.584H208.891V180.285V180.985H211.11V180.285ZM204.454 180.285V179.584H200.017V180.285V180.985H204.454V180.285ZM195.58 180.285V179.584H191.143V180.285V180.985H195.58V180.285ZM186.706 180.285V179.584H182.269V180.285V180.985H186.706V180.285ZM177.832 180.285V179.584H173.395V180.285V180.985H177.832V180.285ZM168.958 180.285V179.584H164.521V180.285V180.985H168.958V180.285Z" fill="#A9E5EB"/>
</g>
<defs>
<clipPath id="clip0_1136_2279">
<rect width="254.08" height="227.925" rx="20" fill="white"/>
</clipPath>
</defs>
</svg>
