<svg width="255" height="302" viewBox="0 0 255 302" fill="none" xmlns="http://www.w3.org/2000/svg">
<g clip-path="url(#clip0_1061_372)">
<g clip-path="url(#clip1_1061_372)">
<g clip-path="url(#clip2_1061_372)">
<rect y="36.8975" width="254.08" height="227.925" rx="20" fill="white"/>
<path d="M254.08 36.8975H0V264.822H254.08V36.8975Z" fill="#097B85"/>
<mask id="mask0_1061_372" style="mask-type:luminance" maskUnits="userSpaceOnUse" x="12" y="116" width="142" height="142">
<path d="M153.154 116.96H12.1426V257.972H153.154V116.96Z" fill="white"/>
</mask>
<g mask="url(#mask0_1061_372)">
<mask id="mask1_1061_372" style="mask-type:luminance" maskUnits="userSpaceOnUse" x="12" y="116" width="142" height="142">
<path d="M12.1426 116.96H153.154V257.972H12.1426V116.96Z" fill="white"/>
</mask>
<g mask="url(#mask1_1061_372)">
<path d="M144.891 218.312H20.4046C18.1231 218.312 16.2734 216.462 16.2734 214.18V132.108C16.2734 129.826 18.1231 127.976 20.4046 127.976H144.891C147.172 127.976 149.023 129.826 149.023 132.108V214.18C149.023 216.462 147.172 218.312 144.891 218.312Z" stroke="white" stroke-width="1.40118" stroke-miterlimit="10" stroke-linecap="round" stroke-linejoin="round"/>
<path d="M65.0234 218.312H100.277V246.955H65.0234V218.312Z" stroke="white" stroke-width="1.40118" stroke-miterlimit="10" stroke-linecap="round" stroke-linejoin="round"/>
<path d="M38.5801 246.955H126.712" stroke="white" stroke-width="1.40118" stroke-miterlimit="10" stroke-linecap="round" stroke-linejoin="round"/>
</g>
<path d="M27.9941 151.406V139.814C27.9941 139.311 28.4009 138.905 28.9029 138.905H40.4956C40.9975 138.905 41.4044 139.311 41.4044 139.814V151.406C41.4044 151.908 40.9975 152.315 40.4956 152.315H28.9029C28.4009 152.315 27.9941 151.908 27.9941 151.406Z" stroke="white" stroke-width="1.40118"/>
<path d="M48.7188 151.406V139.814C48.7188 139.311 49.1257 138.905 49.6276 138.905H74.6306C75.1325 138.905 75.5394 139.311 75.5394 139.814V151.406C75.5394 151.908 75.1325 152.315 74.6306 152.315H49.6276C49.1257 152.315 48.7188 151.908 48.7188 151.406Z" stroke="white" stroke-width="1.40118"/>
<path d="M27.9941 175.477H62.074" stroke="white" stroke-width="1.40118" stroke-linecap="round"/>
<path d="M27.9941 184.012H71.8823" stroke="white" stroke-width="1.40118" stroke-linecap="round"/>
<path d="M27.9941 166.944H52.5316" stroke="white" stroke-width="1.40118" stroke-linecap="round"/>
</g>
<mask id="mask2_1061_372" style="mask-type:luminance" maskUnits="userSpaceOnUse" x="86" y="167" width="65" height="65">
<path d="M86.3735 167.651H150.195V231.473H86.3735V167.651Z" fill="white"/>
</mask>
<g mask="url(#mask2_1061_372)">
<path d="M86.3755 167.651H150.197V231.473H86.3755V167.651Z" fill="#097B85"/>
<mask id="mask3_1061_372" style="mask-type:luminance" maskUnits="userSpaceOnUse" x="86" y="167" width="65" height="65">
<path d="M150.201 167.653H86.3789V231.475H150.201V167.653Z" fill="white"/>
</mask>
<g mask="url(#mask3_1061_372)">
<path d="M88.2539 190.892C88.2539 202.694 97.821 212.261 109.623 212.261C114.106 212.261 118.268 210.88 121.706 208.518C123.877 207.027 125.758 205.147 127.249 202.976C129.61 199.538 130.992 195.376 130.992 190.892C130.992 179.091 121.424 169.523 109.623 169.523C97.821 169.523 88.2539 179.091 88.2539 190.892Z" stroke="white" stroke-width="1.40118" stroke-miterlimit="10" stroke-linecap="round" stroke-linejoin="round"/>
<path d="M143.042 229.606L148.331 224.317L133.631 209.617L128.342 214.905L143.042 229.606Z" stroke="white" stroke-width="1.40118" stroke-miterlimit="10" stroke-linecap="round" stroke-linejoin="round"/>
<path d="M124.729 206.001L130.988 212.261" stroke="white" stroke-width="1.40118" stroke-miterlimit="10" stroke-linecap="round" stroke-linejoin="round"/>
</g>
<path d="M119.213 190.553L116.532 189.786C115.324 189.446 114.225 188.801 113.338 187.915C112.451 187.028 111.806 185.928 111.466 184.721L110.7 182.04C110.662 181.947 110.597 181.867 110.512 181.81C110.428 181.754 110.329 181.724 110.228 181.724C110.126 181.724 110.027 181.754 109.943 181.81C109.859 181.867 109.793 181.947 109.754 182.04L108.988 184.721C108.648 185.928 108.004 187.028 107.116 187.915C106.23 188.801 105.13 189.446 103.923 189.786L101.243 190.553C101.14 190.582 101.049 190.644 100.984 190.729C100.919 190.814 100.885 190.918 100.885 191.026C100.885 191.132 100.919 191.237 100.984 191.322C101.049 191.408 101.14 191.469 101.243 191.498L103.923 192.264C105.13 192.605 106.23 193.25 107.116 194.136C108.004 195.024 108.648 196.123 108.988 197.33L109.754 200.011C109.784 200.114 109.846 200.204 109.931 200.269C110.017 200.333 110.12 200.369 110.228 200.369C110.334 200.369 110.439 200.333 110.524 200.269C110.609 200.204 110.672 200.114 110.7 200.011L111.466 197.33C111.806 196.123 112.451 195.024 113.338 194.136C114.225 193.25 115.324 192.605 116.532 192.264L119.213 191.498C119.316 191.469 119.406 191.408 119.471 191.322C119.535 191.237 119.57 191.132 119.57 191.026C119.57 190.918 119.535 190.814 119.471 190.729C119.406 190.644 119.316 190.582 119.213 190.553Z" fill="#A9E5EB"/>
</g>
<path d="M227.685 62.8311H219.773C218.341 62.8311 217.18 61.6702 217.18 60.2383V52.3257L227.685 62.8311Z" stroke="white" stroke-width="1.40118" stroke-miterlimit="10" stroke-linecap="round" stroke-linejoin="round"/>
<path d="M196.184 71.5249H219.869" stroke="white" stroke-width="1.40118" stroke-miterlimit="10" stroke-linecap="round" stroke-linejoin="round"/>
<path d="M196.184 78.103H219.869" stroke="white" stroke-width="1.40118" stroke-miterlimit="10" stroke-linecap="round" stroke-linejoin="round"/>
<path d="M196.184 84.6812H219.869" stroke="white" stroke-width="1.40118" stroke-miterlimit="10" stroke-linecap="round" stroke-linejoin="round"/>
<path d="M188.363 62.1975V54.9195C188.363 53.4873 189.524 52.3262 190.957 52.3262H217.183L227.689 62.8316V101.287C227.689 102.719 226.528 103.88 225.096 103.88H190.957C189.524 103.88 188.363 102.719 188.363 101.287V66.0655" stroke="white" stroke-width="1.40118" stroke-miterlimit="10" stroke-linecap="round" stroke-linejoin="round"/>
<path d="M241.33 86.0327H209.229V118.135H241.33V86.0327Z" fill="#097B85"/>
<mask id="mask4_1061_372" style="mask-type:luminance" maskUnits="userSpaceOnUse" x="213" y="90" width="25" height="25">
<path d="M237.319 90.0459H213.242V114.122H237.319V90.0459Z" fill="white"/>
</mask>
<g mask="url(#mask4_1061_372)">
<mask id="mask5_1061_372" style="mask-type:luminance" maskUnits="userSpaceOnUse" x="213" y="90" width="25" height="25">
<path d="M213.242 90.0454H237.319V114.122H213.242V90.0454Z" fill="white"/>
</mask>
<g mask="url(#mask5_1061_372)">
<path d="M236.613 102.084C236.613 108.343 231.54 113.417 225.28 113.417C219.021 113.417 213.947 108.343 213.947 102.084C213.947 95.8247 219.021 90.751 225.28 90.751C231.54 90.751 236.613 95.8247 236.613 102.084Z" fill="#A9E5EB" stroke="#097B85" stroke-width="1.0956" stroke-miterlimit="10" stroke-linecap="round" stroke-linejoin="round"/>
<path d="M229.813 100.573C229.813 103.077 227.784 105.106 225.279 105.106C222.776 105.106 220.746 103.077 220.746 100.573C220.746 98.0696 222.776 96.04 225.279 96.04C227.784 96.04 229.813 98.0696 229.813 100.573Z" fill="#097B85" stroke="#097B85" stroke-width="1.0956" stroke-miterlimit="10" stroke-linecap="round" stroke-linejoin="round"/>
<path d="M218.52 111.18C218.882 107.766 221.77 105.106 225.281 105.106C228.791 105.106 231.679 107.766 232.042 111.18" stroke="#097B85" stroke-width="1.0956" stroke-miterlimit="10" stroke-linecap="round" stroke-linejoin="round"/>
</g>
</g>
<path d="M209.242 142.453L213.287 135.447H205.197L209.242 142.453ZM209.242 113.495H208.541V115.908H209.242H209.943V113.495H209.242ZM209.242 120.735H208.541V125.561H209.242H209.943V120.735H209.242ZM209.242 130.387H208.541V135.213H209.242H209.943V130.387H209.242Z" fill="#A9E5EB"/>
<mask id="mask6_1061_372" style="mask-type:luminance" maskUnits="userSpaceOnUse" x="187" y="150" width="45" height="45">
<path d="M187.602 150.704H231.505V194.607H187.602V150.704Z" fill="white"/>
</mask>
<g mask="url(#mask6_1061_372)">
<path d="M217.271 162.28H201.836V151.99H217.271V162.28Z" stroke="white" stroke-width="1.40118" stroke-miterlimit="10"/>
</g>
<path d="M209.554 167.596L201.836 175.314L209.554 183.032L217.271 175.314L209.554 167.596Z" stroke="white" stroke-width="1.40118" stroke-miterlimit="10"/>
<mask id="mask7_1061_372" style="mask-type:luminance" maskUnits="userSpaceOnUse" x="187" y="150" width="45" height="45">
<path d="M187.602 150.704H231.505V194.607H187.602V150.704Z" fill="white"/>
</mask>
<g mask="url(#mask7_1061_372)">
<path d="M199.179 193.322H188.889V185.604H199.179V193.322Z" stroke="white" stroke-width="1.40118" stroke-miterlimit="10"/>
<path d="M230.22 193.322H219.93V185.604H230.22V193.322Z" stroke="white" stroke-width="1.40118" stroke-miterlimit="10"/>
</g>
<path d="M194.033 185.604V175.314H201.836" stroke="white" stroke-width="1.40118" stroke-miterlimit="10"/>
<path d="M217.271 175.314H225.074V185.604" stroke="white" stroke-width="1.40118" stroke-miterlimit="10"/>
<path d="M209.553 162.28V167.596" stroke="white" stroke-width="1.40118" stroke-miterlimit="10"/>
<path d="M82.2025 77.9984V77.2978H81.502V77.9984H82.2025ZM181.219 77.9984L174.213 73.9536V82.0433L181.219 77.9984ZM82.2025 125.638H82.9031V123.256H82.2025H81.502V125.638H82.2025ZM82.2025 118.492H82.9031V113.728H82.2025H81.502V118.492H82.2025ZM82.2025 108.964H82.9031V104.2H82.2025H81.502V108.964H82.2025ZM82.2025 99.4364H82.9031V94.6724H82.2025H81.502V99.4364H82.2025ZM82.2025 89.9084H82.9031V85.1444H82.2025H81.502V89.9084H82.2025ZM82.2025 80.3804H82.9031V77.9984H82.2025H81.502V80.3804H82.2025ZM82.2025 77.9984V78.699H84.4529V77.9984V77.2978H82.2025V77.9984ZM88.9537 77.9984V78.699H93.454V77.9984V77.2978H88.9537V77.9984ZM97.9555 77.9984V78.699H102.456V77.9984V77.2978H97.9555V77.9984ZM106.957 77.9984V78.699H111.457V77.9984V77.2978H106.957V77.9984ZM115.958 77.9984V78.699H120.459V77.9984V77.2978H115.958V77.9984ZM124.96 77.9984V78.699H129.46V77.9984V77.2978H124.96V77.9984ZM133.961 77.9984V78.699H138.462V77.9984V77.2978H133.961V77.9984ZM142.962 77.9984V78.699H147.464V77.9984V77.2978H142.962V77.9984ZM151.964 77.9984V78.699H156.465V77.9984V77.2978H151.964V77.9984ZM160.965 77.9984V78.699H165.466V77.9984V77.2978H160.965V77.9984ZM169.968 77.9984V78.699H174.468V77.9984V77.2978H169.968V77.9984Z" fill="#A9E5EB"/>
<path d="M211.11 217.182V217.883H211.811V217.182H211.11ZM157.865 217.182L164.871 221.227V213.138L157.865 217.182ZM211.11 198.5H210.409V200.835H211.11H211.811V198.5H211.11ZM211.11 205.506H210.409V210.176H211.11H211.811V205.506H211.11ZM211.11 214.847H210.409V217.182H211.11H211.811V214.847H211.11ZM211.11 217.182V216.482H208.891V217.182V217.883H211.11V217.182ZM204.454 217.182V216.482H200.017V217.182V217.883H204.454V217.182ZM195.58 217.182V216.482H191.143V217.182V217.883H195.58V217.182ZM186.706 217.182V216.482H182.269V217.182V217.883H186.706V217.182ZM177.832 217.182V216.482H173.395V217.182V217.883H177.832V217.182ZM168.958 217.182V216.482H164.521V217.182V217.883H168.958V217.182Z" fill="#A9E5EB"/>
</g>
</g>
</g>
<defs>
<clipPath id="clip0_1061_372">
<rect width="254.08" height="301.72" fill="white"/>
</clipPath>
<clipPath id="clip1_1061_372">
<rect width="254.08" height="301.72" fill="white"/>
</clipPath>
<clipPath id="clip2_1061_372">
<rect y="36.8975" width="254.08" height="227.925" rx="20" fill="white"/>
</clipPath>
</defs>
</svg>
