<svg width="163" height="25" viewBox="0 0 163 25" fill="none" xmlns="http://www.w3.org/2000/svg">
<path d="M156.035 6.41162C156.876 6.41162 157.663 6.57214 158.397 6.89318C159.131 7.19894 159.765 7.627 160.3 8.17735C160.851 8.71242 161.279 9.34686 161.584 10.0807C161.905 10.8145 162.066 11.6018 162.066 12.4426C162.066 12.7331 161.967 12.9777 161.768 13.1764C161.569 13.3752 161.324 13.4745 161.034 13.4745H152.205C152.328 13.9026 152.511 14.3001 152.756 14.667C153 15.0186 153.291 15.3244 153.627 15.5843C153.963 15.8441 154.338 16.0505 154.751 16.2034C155.164 16.341 155.592 16.4098 156.035 16.4098C156.616 16.4098 157.166 16.2951 157.686 16.0658C158.206 15.8212 158.657 15.4772 159.039 15.0339C159.253 14.7893 159.513 14.667 159.819 14.667C160.078 14.667 160.308 14.7587 160.507 14.9422C160.721 15.1256 160.835 15.3626 160.851 15.6531C160.866 15.9282 160.782 16.1728 160.598 16.3869C160.017 17.0595 159.329 17.5793 158.534 17.9462C157.755 18.2978 156.922 18.4736 156.035 18.4736C155.209 18.4736 154.43 18.3208 153.696 18.015C152.962 17.694 152.32 17.2583 151.77 16.7079C151.219 16.1575 150.784 15.5155 150.463 14.7817C150.157 14.0478 150.004 13.2682 150.004 12.4426C150.004 11.6018 150.157 10.8145 150.463 10.0807C150.784 9.34686 151.219 8.71242 151.77 8.17735C152.32 7.627 152.962 7.19894 153.696 6.89318C154.43 6.57214 155.209 6.41162 156.035 6.41162ZM159.864 11.4107C159.757 10.9674 159.574 10.5699 159.314 10.2183C159.069 9.85136 158.779 9.5456 158.443 9.301C158.106 9.04111 157.732 8.84237 157.319 8.70478C156.906 8.5519 156.478 8.47546 156.035 8.47546C155.133 8.47546 154.33 8.75064 153.627 9.301C152.924 9.83607 152.45 10.5393 152.205 11.4107H159.864Z" fill="white"/>
<path d="M147.174 7.44352C147.174 7.15306 147.273 6.90845 147.472 6.70971C147.671 6.49569 147.915 6.38867 148.206 6.38867C148.496 6.38867 148.741 6.49569 148.94 6.70971C149.154 6.90845 149.261 7.15306 149.261 7.44352V12.4426C149.261 13.2681 149.1 14.0478 148.779 14.7816C148.458 15.5154 148.022 16.1575 147.472 16.7079C146.937 17.2582 146.303 17.6939 145.569 18.015C144.835 18.3207 144.048 18.4736 143.207 18.4736C142.381 18.4736 141.602 18.3207 140.868 18.015C140.134 17.6939 139.492 17.2582 138.942 16.7079C138.391 16.1575 137.955 15.5154 137.634 14.7816C137.329 14.0478 137.176 13.2681 137.176 12.4426V7.44352C137.176 7.15306 137.275 6.90845 137.474 6.70971C137.673 6.49569 137.917 6.38867 138.208 6.38867C138.498 6.38867 138.743 6.49569 138.942 6.70971C139.14 6.90845 139.24 7.15306 139.24 7.44352V12.4426C139.24 12.993 139.339 13.5128 139.538 14.002C139.752 14.4759 140.035 14.8963 140.386 15.2632C140.753 15.6148 141.174 15.8976 141.647 16.1117C142.137 16.3104 142.656 16.4098 143.207 16.4098C143.757 16.4098 144.269 16.3104 144.743 16.1117C145.232 15.8976 145.653 15.6148 146.004 15.2632C146.371 14.8963 146.654 14.4759 146.853 14.002C147.067 13.5128 147.174 12.993 147.174 12.4426V7.44352Z" fill="white"/>
<path d="M134.068 16.9831C133.518 17.4723 132.899 17.8468 132.211 18.1067C131.538 18.3513 130.835 18.4736 130.101 18.4736C129.276 18.4736 128.496 18.3208 127.762 18.015C127.028 17.694 126.386 17.2583 125.836 16.7079C125.286 16.1575 124.85 15.5155 124.529 14.7817C124.223 14.0478 124.07 13.2682 124.07 12.4426C124.07 11.6018 124.223 10.8145 124.529 10.0807C124.85 9.34686 125.286 8.71242 125.836 8.17735C126.386 7.627 127.028 7.19894 127.762 6.89318C128.496 6.57214 129.276 6.41162 130.101 6.41162C130.942 6.41162 131.729 6.57214 132.463 6.89318C133.197 7.19894 133.831 7.627 134.367 8.17735C134.917 8.71242 135.345 9.34686 135.651 10.0807C135.972 10.8145 136.132 11.6018 136.132 12.4426V22.9682C136.132 23.2587 136.033 23.5033 135.834 23.702C135.635 23.9008 135.391 24.0001 135.1 24.0001C134.81 24.0001 134.565 23.9008 134.367 23.702C134.168 23.5033 134.068 23.2587 134.068 22.9682V16.9831ZM130.101 16.4098C130.652 16.4098 131.164 16.3104 131.638 16.1117C132.127 15.8977 132.547 15.6148 132.899 15.2632C133.266 14.8963 133.549 14.4759 133.747 14.002C133.961 13.5128 134.068 12.993 134.068 12.4426C134.068 11.8923 133.961 11.3801 133.747 10.9062C133.549 10.417 133.266 9.99659 132.899 9.64497C132.547 9.27807 132.127 8.99525 131.638 8.79651C131.164 8.58248 130.652 8.47546 130.101 8.47546C129.551 8.47546 129.031 8.58248 128.542 8.79651C128.068 8.99525 127.648 9.27807 127.281 9.64497C126.929 9.99659 126.646 10.417 126.432 10.9062C126.234 11.3801 126.134 11.8923 126.134 12.4426C126.134 12.993 126.234 13.5128 126.432 14.002C126.646 14.4759 126.929 14.8963 127.281 15.2632C127.648 15.6148 128.068 15.8977 128.542 16.1117C129.031 16.3104 129.551 16.4098 130.101 16.4098Z" fill="white"/>
<path d="M123.382 6.52588C123.673 6.52588 123.917 6.62525 124.116 6.82399C124.315 7.02273 124.414 7.26733 124.414 7.5578C124.414 7.84827 124.315 8.09287 124.116 8.29161C123.917 8.49035 123.673 8.58972 123.382 8.58972H121.502C121.013 8.58972 120.6 8.75789 120.264 9.09422C119.927 9.41526 119.759 9.82038 119.759 10.3096V17.4413C119.759 17.7318 119.66 17.9764 119.461 18.1751C119.262 18.3739 119.018 18.4732 118.727 18.4732C118.437 18.4732 118.192 18.3739 117.993 18.1751C117.795 17.9764 117.695 17.7318 117.695 17.4413V10.3096C117.695 9.77452 117.795 9.27767 117.993 8.81904C118.192 8.36041 118.46 7.96292 118.796 7.62659C119.148 7.27498 119.553 7.00744 120.011 6.82399C120.485 6.62525 120.982 6.52588 121.502 6.52588H123.382Z" fill="white"/>
<path d="M110.73 18.4736C109.905 18.4736 109.125 18.3207 108.391 18.015C107.657 17.6939 107.015 17.2582 106.465 16.7079C105.915 16.1575 105.479 15.5154 105.158 14.7816C104.852 14.0478 104.699 13.2681 104.699 12.4426C104.699 11.6018 104.852 10.8145 105.158 10.0807C105.479 9.34685 105.915 8.71241 106.465 8.17734C107.015 7.62698 107.657 7.19128 108.391 6.87023C109.125 6.54919 109.905 6.38867 110.73 6.38867C111.571 6.38867 112.358 6.54919 113.092 6.87023C113.826 7.19128 114.46 7.62698 114.995 8.17734C115.546 8.71241 115.982 9.34685 116.303 10.0807C116.624 10.8145 116.784 11.6018 116.784 12.4426C116.784 13.2681 116.624 14.0478 116.303 14.7816C115.982 15.5154 115.546 16.1575 114.995 16.7079C114.46 17.2582 113.826 17.6939 113.092 18.015C112.358 18.3207 111.571 18.4736 110.73 18.4736ZM110.73 16.4098C111.281 16.4098 111.793 16.3104 112.267 16.1117C112.756 15.8976 113.176 15.6148 113.528 15.2632C113.895 14.8963 114.178 14.4759 114.376 14.002C114.59 13.5128 114.697 12.993 114.697 12.4426C114.697 11.8923 114.59 11.3801 114.376 10.9062C114.178 10.417 113.895 9.99657 113.528 9.64496C113.176 9.27805 112.756 8.99523 112.267 8.79649C111.793 8.58246 111.281 8.47545 110.73 8.47545C110.18 8.47545 109.66 8.58246 109.171 8.79649C108.697 8.99523 108.277 9.27805 107.91 9.64496C107.558 9.99657 107.275 10.417 107.061 10.9062C106.862 11.3801 106.763 11.8923 106.763 12.4426C106.763 12.993 106.862 13.5128 107.061 14.002C107.275 14.4759 107.558 14.8963 107.91 15.2632C108.277 15.6148 108.697 15.8976 109.171 16.1117C109.66 16.3104 110.18 16.4098 110.73 16.4098Z" fill="white"/>
<path d="M98.921 2.26093C98.921 1.97046 99.0204 1.72586 99.2192 1.52711C99.4179 1.32837 99.6625 1.229 99.953 1.229C100.243 1.229 100.488 1.32837 100.687 1.52711C100.886 1.72586 100.985 1.97046 100.985 2.26093V6.41154H103.507C103.798 6.41154 104.042 6.51091 104.241 6.70965C104.44 6.90839 104.539 7.153 104.539 7.44346C104.539 7.73393 104.44 7.97854 104.241 8.17728C104.042 8.37602 103.798 8.47539 103.507 8.47539H100.985V14.5523C100.985 15.0415 101.153 15.4542 101.489 15.7906C101.826 16.1269 102.231 16.2951 102.705 16.2951H103.37C103.645 16.2951 103.882 16.3944 104.081 16.5932C104.295 16.7919 104.402 17.0365 104.402 17.327C104.402 17.6174 104.295 17.8621 104.081 18.0608C103.882 18.2595 103.645 18.3589 103.37 18.3589H102.705C102.185 18.3589 101.696 18.2595 101.237 18.0608C100.778 17.8621 100.373 17.5945 100.022 17.2582C99.6854 16.9066 99.4179 16.5014 99.2192 16.0428C99.0204 15.5689 98.921 15.072 98.921 14.5523V8.47539H97.6139C97.3235 8.47539 97.0789 8.37602 96.8801 8.17728C96.6814 7.97854 96.582 7.73393 96.582 7.44346C96.582 7.153 96.6814 6.90839 96.8801 6.70965C97.0789 6.51091 97.3235 6.41154 97.6139 6.41154H98.921V2.26093Z" fill="white"/>
<path d="M84.6359 2.26093C84.6359 1.97046 84.7353 1.72586 84.934 1.52711C85.1327 1.32837 85.3773 1.229 85.6678 1.229C85.9583 1.229 86.2029 1.32837 86.4016 1.52711C86.6004 1.72586 86.6997 1.97046 86.6997 2.26093V6.41154H89.2222C89.5127 6.41154 89.7573 6.51091 89.956 6.70965C90.1547 6.90839 90.2541 7.153 90.2541 7.44346C90.2541 7.73393 90.1547 7.97854 89.956 8.17728C89.7573 8.37602 89.5127 8.47539 89.2222 8.47539H86.6997V14.5523C86.6997 15.0415 86.8679 15.4542 87.2042 15.7906C87.5406 16.1269 87.9457 16.2951 88.4196 16.2951H89.0846C89.3598 16.2951 89.5967 16.3944 89.7955 16.5932C90.0095 16.7919 90.1165 17.0365 90.1165 17.327C90.1165 17.6174 90.0095 17.8621 89.7955 18.0608C89.5967 18.2595 89.3598 18.3589 89.0846 18.3589H88.4196C87.8998 18.3589 87.4106 18.2595 86.952 18.0608C86.4933 17.8621 86.0882 17.5945 85.7366 17.2582C85.4003 16.9066 85.1327 16.5014 84.934 16.0428C84.7353 15.5689 84.6359 15.072 84.6359 14.5523V8.47539H83.3288C83.0383 8.47539 82.7937 8.37602 82.595 8.17728C82.3962 7.97854 82.2969 7.73393 82.2969 7.44346C82.2969 7.153 82.3962 6.90839 82.595 6.70965C82.7937 6.51091 83.0383 6.41154 83.3288 6.41154H84.6359V2.26093Z" fill="white"/>
<path d="M72.7552 17.4416C72.7552 17.7321 72.6559 17.9767 72.4571 18.1754C72.2584 18.3742 72.0138 18.4736 71.7233 18.4736C71.4329 18.4736 71.1883 18.3742 70.9895 18.1754C70.7908 17.9767 70.6914 17.7321 70.6914 17.4416V2.26093C70.6914 1.97046 70.7908 1.72586 70.9895 1.52711C71.1883 1.32837 71.4329 1.229 71.7233 1.229C72.0138 1.229 72.2584 1.32837 72.4571 1.52711C72.6559 1.72586 72.7552 1.97046 72.7552 2.26093V7.87916C73.3056 7.38996 73.9171 7.02305 74.5898 6.77845C75.2777 6.51856 75.9886 6.38861 76.7224 6.38861C77.5632 6.38861 78.3505 6.54913 79.0843 6.87017C79.8182 7.19122 80.4526 7.62692 80.9877 8.17727C81.538 8.71234 81.9661 9.34678 82.2718 10.0806C82.5929 10.8144 82.7534 11.6017 82.7534 12.4425V17.4416C82.7534 17.7321 82.654 17.9767 82.4553 18.1754C82.2565 18.3742 82.0119 18.4736 81.7215 18.4736C81.431 18.4736 81.1864 18.3742 80.9877 18.1754C80.7889 17.9767 80.6896 17.7321 80.6896 17.4416V12.4425C80.6896 11.8922 80.5825 11.3801 80.3685 10.9061C80.1698 10.4169 79.8869 9.99651 79.52 9.6449C79.1684 9.27799 78.748 8.99517 78.2588 8.79643C77.7849 8.5824 77.2728 8.47539 76.7224 8.47539C76.172 8.47539 75.6523 8.5824 75.1631 8.79643C74.6891 8.99517 74.2687 9.27799 73.9018 9.6449C73.5502 9.99651 73.2674 10.4169 73.0534 10.9061C72.8546 11.3801 72.7552 11.8922 72.7552 12.4425V17.4416Z" fill="white"/>
<path d="M67.3067 16.9831C66.7564 17.4723 66.1372 17.8468 65.4493 18.1067C64.7766 18.3513 64.0734 18.4736 63.3396 18.4736C62.514 18.4736 61.7344 18.3207 61.0006 18.015C60.2668 17.6939 59.6247 17.2582 59.0743 16.7079C58.524 16.1575 58.0883 15.5154 57.7672 14.7816C57.4615 14.0478 57.3086 13.2681 57.3086 12.4426C57.3086 11.6018 57.4615 10.8145 57.7672 10.0807C58.0883 9.34685 58.524 8.71241 59.0743 8.17734C59.6247 7.62698 60.2668 7.19128 61.0006 6.87023C61.7344 6.54919 62.514 6.38867 63.3396 6.38867C64.1804 6.38867 64.9677 6.54919 65.7015 6.87023C66.4353 7.19128 67.0698 7.62698 67.6048 8.17734C68.1552 8.71241 68.5833 9.34685 68.889 10.0807C69.2101 10.8145 69.3706 11.6018 69.3706 12.4426V17.9462C69.3706 18.787 69.2101 19.5743 68.889 20.3081C68.5833 21.042 68.1552 21.684 67.6048 22.2344C67.0698 22.7848 66.4353 23.2128 65.7015 23.5186C64.9677 23.8396 64.1804 24.0001 63.3396 24.0001C62.193 24.0001 61.1382 23.702 60.175 23.1058C59.2119 22.5096 58.4705 21.6993 57.9507 20.675C57.8284 20.4152 57.8054 20.1476 57.8819 19.8724C57.9736 19.5973 58.1494 19.3985 58.4093 19.2762C58.5622 19.1998 58.7151 19.1616 58.8679 19.1616C59.0514 19.1616 59.2272 19.2074 59.3954 19.2992C59.5635 19.4062 59.7011 19.5514 59.8081 19.7349C60.1445 20.4075 60.626 20.9349 61.2528 21.3171C61.8949 21.7146 62.5905 21.9134 63.3396 21.9134C63.8899 21.9134 64.4021 21.8063 64.876 21.5923C65.3652 21.3936 65.7856 21.1107 66.1372 20.7438C66.5041 20.3922 66.787 19.9718 66.9857 19.4826C67.1997 19.0087 67.3067 18.4965 67.3067 17.9462V16.9831ZM63.3396 16.4098C63.8899 16.4098 64.4021 16.3104 64.876 16.1117C65.3652 15.8976 65.7856 15.6148 66.1372 15.2632C66.5041 14.8963 66.787 14.4759 66.9857 14.002C67.1997 13.5128 67.3067 12.993 67.3067 12.4426C67.3067 11.8923 67.1997 11.3801 66.9857 10.9062C66.787 10.417 66.5041 9.99657 66.1372 9.64496C65.7856 9.27805 65.3652 8.99523 64.876 8.79649C64.4021 8.58246 63.8899 8.47545 63.3396 8.47545C62.7892 8.47545 62.2694 8.58246 61.7802 8.79649C61.3063 8.99523 60.8859 9.27805 60.519 9.64496C60.1674 9.99657 59.8846 10.417 59.6705 10.9062C59.4718 11.3801 59.3724 11.8923 59.3724 12.4426C59.3724 12.993 59.4718 13.5128 59.6705 14.002C59.8846 14.4759 60.1674 14.8963 60.519 15.2632C60.8859 15.6148 61.3063 15.8976 61.7802 16.1117C62.2694 16.3104 62.7892 16.4098 63.3396 16.4098Z" fill="white"/>
<path d="M53.4844 2.78835C53.4844 2.34501 53.6296 1.9781 53.9201 1.68763C54.2258 1.38188 54.6004 1.229 55.0437 1.229C55.4718 1.229 55.831 1.38188 56.1215 1.68763C56.4273 1.9781 56.5801 2.34501 56.5801 2.78835C56.5801 3.21641 56.4273 3.58331 56.1215 3.88907C55.831 4.17953 55.4718 4.32477 55.0437 4.32477C54.6004 4.32477 54.2258 4.17953 53.9201 3.88907C53.6296 3.58331 53.4844 3.21641 53.4844 2.78835ZM56.0756 17.4416C56.0756 17.7321 55.9763 17.9767 55.7775 18.1754C55.5788 18.3742 55.3342 18.4736 55.0437 18.4736C54.7533 18.4736 54.5087 18.3742 54.3099 18.1754C54.1112 17.9767 54.0118 17.7321 54.0118 17.4416V7.44346C54.0118 7.153 54.1112 6.90839 54.3099 6.70965C54.5087 6.51091 54.7533 6.41154 55.0437 6.41154C55.3342 6.41154 55.5788 6.51091 55.7775 6.70965C55.9763 6.90839 56.0756 7.153 56.0756 7.44346V17.4416Z" fill="white"/>
<path d="M51.9175 6.52588C52.208 6.52588 52.4526 6.62525 52.6513 6.82399C52.85 7.02273 52.9494 7.26733 52.9494 7.5578C52.9494 7.84827 52.85 8.09287 52.6513 8.29161C52.4526 8.49035 52.208 8.58972 51.9175 8.58972H50.0371C49.5479 8.58972 49.1351 8.75789 48.7988 9.09422C48.4625 9.41526 48.2943 9.82038 48.2943 10.3096V17.4413C48.2943 17.7318 48.1949 17.9764 47.9962 18.1751C47.7975 18.3739 47.5529 18.4732 47.2624 18.4732C46.9719 18.4732 46.7273 18.3739 46.5286 18.1751C46.3298 17.9764 46.2305 17.7318 46.2305 17.4413V10.3096C46.2305 9.77452 46.3298 9.27767 46.5286 8.81904C46.7273 8.36041 46.9949 7.96292 47.3312 7.62659C47.6828 7.27498 48.0879 7.00744 48.5466 6.82399C49.0205 6.62525 49.5173 6.52588 50.0371 6.52588H51.9175Z" fill="white"/>
<path d="M33.0273 2.03192C33.0273 1.74145 33.1267 1.49685 33.3255 1.29811C33.5242 1.09937 33.7688 1 34.0593 1C34.3497 1 34.5943 1.09937 34.7931 1.29811C34.9918 1.49685 35.0912 1.74145 35.0912 2.03192V7.65016C35.6415 7.16095 36.253 6.79405 36.9257 6.54944C37.6136 6.28955 38.3245 6.15961 39.0583 6.15961C39.8992 6.15961 40.6865 6.32013 41.4203 6.64117C42.1541 6.96221 42.7885 7.39791 43.3236 7.94827C43.874 8.48334 44.3097 9.11778 44.6307 9.85159C44.9517 10.5854 45.1123 11.3727 45.1123 12.2135C45.1123 13.0391 44.9517 13.8188 44.6307 14.5526C44.3097 15.2864 43.874 15.9285 43.3236 16.4788C42.7885 17.0292 42.1541 17.4649 41.4203 17.7859C40.6865 18.0917 39.8992 18.2446 39.0583 18.2446C38.2328 18.2446 37.4531 18.0917 36.7193 17.7859C35.9855 17.4649 35.3434 17.0292 34.7931 16.4788C34.2427 15.9285 33.807 15.2864 33.486 14.5526C33.1802 13.8188 33.0273 13.0391 33.0273 12.2135V2.03192ZM39.0583 16.1807C39.6087 16.1807 40.1208 16.0813 40.5947 15.8826C41.084 15.6686 41.5044 15.3857 41.856 15.0341C42.2229 14.6672 42.5057 14.2468 42.7044 13.7729C42.9185 13.2837 43.0255 12.7639 43.0255 12.2135C43.0255 11.6632 42.9185 11.151 42.7044 10.6771C42.5057 10.1879 42.2229 9.76751 41.856 9.41589C41.5044 9.04899 41.084 8.76616 40.5947 8.56742C40.1208 8.35339 39.6087 8.24638 39.0583 8.24638C38.508 8.24638 37.9882 8.35339 37.499 8.56742C37.0251 8.76616 36.6047 9.04899 36.2378 9.41589C35.8861 9.76751 35.6033 10.1879 35.3893 10.6771C35.1906 11.151 35.0912 11.6632 35.0912 12.2135C35.0912 12.7639 35.1906 13.2837 35.3893 13.7729C35.6033 14.2468 35.8861 14.6672 36.2378 15.0341C36.6047 15.3857 37.0251 15.6686 37.499 15.8826C37.9882 16.0813 38.508 16.1807 39.0583 16.1807Z" fill="white"/>
<path d="M15.3309 19.8213L15.1899 19.6803M15.1899 4.47236L15.3309 4.33134M7.58594 1.31578V1.229M7.58594 22.9237V22.8369M18.4332 12.0763H18.3465" stroke="white" stroke-width="2.4" stroke-linecap="round" stroke-linejoin="round"/>
<path d="M7.58151 18.4585C11.1064 18.4585 13.9638 15.6011 13.9638 12.0762C13.9638 8.55131 11.1064 5.69385 7.58151 5.69385C4.05667 5.69385 1.19922 8.55131 1.19922 12.0762C1.19922 15.6011 4.05667 18.4585 7.58151 18.4585Z" stroke="white" stroke-width="2.4" stroke-linecap="round" stroke-linejoin="round"/>
<rect x="0.0273438" width="2.34834" height="12.3244" rx="1.17417" fill="white"/>
</svg>
