<svg width="255" height="228" viewBox="0 0 255 228" fill="none" xmlns="http://www.w3.org/2000/svg">
<g clip-path="url(#clip0_1136_2404)">
<path d="M176.442 22.8906L201.182 37.1747V65.7425L176.442 80.0264L151.701 65.7425V37.1747L176.442 22.8906Z" stroke="#A9E5EB" stroke-width="0.934118" stroke-miterlimit="10"/>
<path d="M176.797 81.0916C177.792 81.0916 178.598 80.2853 178.598 79.2907C178.598 78.2961 177.792 77.4897 176.797 77.4897C175.802 77.4897 174.996 78.2961 174.996 79.2907C174.996 80.2853 175.802 81.0916 176.797 81.0916Z" fill="#097B85" stroke="#A9E5EB" stroke-width="0.747294"/>
<path d="M201.063 67.1756C202.057 67.1756 202.864 66.3693 202.864 65.3747C202.864 64.38 202.057 63.5737 201.063 63.5737C200.068 63.5737 199.262 64.38 199.262 65.3747C199.262 66.3693 200.068 67.1756 201.063 67.1756Z" fill="#097B85" stroke="#A9E5EB" stroke-width="0.747294"/>
<path d="M201.063 38.6292C202.057 38.6292 202.864 37.8229 202.864 36.8283C202.864 35.8337 202.057 35.0273 201.063 35.0273C200.068 35.0273 199.262 35.8337 199.262 36.8283C199.262 37.8229 200.068 38.6292 201.063 38.6292Z" fill="#097B85" stroke="#A9E5EB" stroke-width="0.747294"/>
<path d="M176.797 24.7132C177.792 24.7132 178.598 23.9069 178.598 22.9123C178.598 21.9176 177.792 21.1113 176.797 21.1113C175.802 21.1113 174.996 21.9176 174.996 22.9123C174.996 23.9069 175.802 24.7132 176.797 24.7132Z" fill="#097B85" stroke="#A9E5EB" stroke-width="0.747294"/>
<path d="M151.82 38.6292C152.815 38.6292 153.621 37.8229 153.621 36.8283C153.621 35.8337 152.815 35.0273 151.82 35.0273C150.826 35.0273 150.02 35.8337 150.02 36.8283C150.02 37.8229 150.826 38.6292 151.82 38.6292Z" fill="#097B85" stroke="#A9E5EB" stroke-width="0.747294"/>
<path d="M151.82 67.1756C152.815 67.1756 153.621 66.3693 153.621 65.3747C153.621 64.38 152.815 63.5737 151.82 63.5737C150.826 63.5737 150.02 64.38 150.02 65.3747C150.02 66.3693 150.826 67.1756 151.82 67.1756Z" fill="#097B85" stroke="#A9E5EB" stroke-width="0.747294"/>
<path d="M58.5877 12.5249H34.9121V21.7697H58.5877V12.5249Z" stroke="white" stroke-width="1.40118" stroke-miterlimit="22.9256" stroke-linecap="round" stroke-linejoin="round"/>
<path d="M58.5877 31.0142H34.9121V40.2589H58.5877V31.0142Z" stroke="white" stroke-width="1.40118" stroke-miterlimit="22.9256" stroke-linecap="round" stroke-linejoin="round"/>
<path d="M58.5877 49.5034H34.9121V58.7482H58.5877V49.5034Z" stroke="white" stroke-width="1.40118" stroke-miterlimit="22.9256" stroke-linecap="round" stroke-linejoin="round"/>
<path d="M58.5877 67.9932H34.9121V77.2379H58.5877V67.9932Z" stroke="white" stroke-width="1.40118" stroke-miterlimit="22.9256" stroke-linecap="round" stroke-linejoin="round"/>
<path d="M34.2539 17.147H25.6667C20.5821 17.147 16.4219 21.3071 16.4219 26.3917C16.4219 31.4764 20.5821 35.6366 25.6667 35.6366H27.6773" stroke="white" stroke-width="1.40118" stroke-miterlimit="22.9256" stroke-linecap="round" stroke-linejoin="round"/>
<path d="M26.0332 38.5962L28.9927 35.6367L26.0332 32.6772" stroke="white" stroke-width="1.40118" stroke-miterlimit="22.9256" stroke-linecap="round" stroke-linejoin="round"/>
<path d="M34.2539 54.126H25.6667C20.5821 54.126 16.4219 58.2861 16.4219 63.3708C16.4219 68.4554 20.5821 72.6156 25.6667 72.6156H27.6773" stroke="white" stroke-width="1.40118" stroke-miterlimit="22.9256" stroke-linecap="round" stroke-linejoin="round"/>
<path d="M26.0332 75.5757L28.9927 72.6162L26.0332 69.6567" stroke="white" stroke-width="1.40118" stroke-miterlimit="22.9256" stroke-linecap="round" stroke-linejoin="round"/>
<path d="M59.2461 35.6367H67.8333C72.9179 35.6367 77.0781 39.7969 77.0781 44.8816C77.0781 49.9662 72.9179 54.1264 67.8333 54.1264H65.8227" stroke="white" stroke-width="1.40118" stroke-miterlimit="22.9256" stroke-linecap="round" stroke-linejoin="round"/>
<path d="M67.4653 57.085L64.5059 54.1255L67.4653 51.166" stroke="white" stroke-width="1.40118" stroke-miterlimit="22.9256" stroke-linecap="round" stroke-linejoin="round"/>
<mask id="mask0_1136_2404" style="mask-type:luminance" maskUnits="userSpaceOnUse" x="35" y="79" width="138" height="138">
<path d="M172.78 79.376H35.2051V216.951H172.78V79.376Z" fill="white"/>
</mask>
<g mask="url(#mask0_1136_2404)">
<path d="M172.78 79.376H35.2051V216.951H172.78V79.376Z" fill="#097B85"/>
<mask id="mask1_1136_2404" style="mask-type:luminance" maskUnits="userSpaceOnUse" x="35" y="79" width="138" height="138">
<path d="M35.2051 79.3755H172.78V216.95H35.2051V79.3755Z" fill="white"/>
</mask>
<g mask="url(#mask1_1136_2404)">
<path d="M164.478 177.987H43.5521C41.3358 177.987 39.5391 176.367 39.5391 174.369V102.499C39.5391 100.501 41.3358 98.8813 43.5521 98.8813H164.478C166.695 98.8813 168.491 100.501 168.491 102.499V174.369C168.491 176.367 166.695 177.987 164.478 177.987Z" stroke="white" stroke-width="1.40118" stroke-miterlimit="10" stroke-linecap="round" stroke-linejoin="round"/>
<path d="M86.7969 178.258H121.19V206.203H86.7969V178.258Z" stroke="white" stroke-width="1.40118" stroke-miterlimit="10" stroke-linecap="round" stroke-linejoin="round"/>
<path d="M60.9961 206.203H146.98" stroke="white" stroke-width="1.40118" stroke-miterlimit="10" stroke-linecap="round" stroke-linejoin="round"/>
</g>
<path d="M51.752 132.476H85.0013" stroke="white" stroke-width="1.40118" stroke-linecap="round"/>
<path d="M51.752 143.312H94.5707" stroke="white" stroke-width="1.40118" stroke-linecap="round"/>
<path d="M51.752 121.639H75.6915" stroke="white" stroke-width="1.40118" stroke-linecap="round"/>
<path d="M39.5391 165.367H168.491" stroke="white" stroke-width="1.40118"/>
<path d="M150.071 118.387H113.228C112.031 118.387 111.061 119.358 111.061 120.554V144.394C111.061 145.591 112.031 146.562 113.228 146.562H150.071C151.268 146.562 152.239 145.591 152.239 144.394V120.554C152.239 119.358 151.268 118.387 150.071 118.387Z" fill="#A9E5EB"/>
<path d="M126.23 138.116C126.23 138.964 127.162 139.484 127.884 139.037L136.089 133.966C136.773 133.543 136.775 132.55 136.093 132.125L127.888 127.006C127.166 126.555 126.23 127.075 126.23 127.926V138.116Z" fill="#097B85"/>
</g>
<path d="M233.936 42.5562H193.425C191.457 42.5562 189.861 44.1517 189.861 46.1198V116.48C189.861 118.448 191.457 120.044 193.425 120.044H233.936C235.904 120.044 237.499 118.448 237.499 116.48V46.1198C237.499 44.1517 235.904 42.5562 233.936 42.5562Z" fill="#097B85"/>
<path d="M233.936 42.5562H193.425C191.457 42.5562 189.861 44.1517 189.861 46.1198V116.48C189.861 118.448 191.457 120.044 193.425 120.044H233.936C235.904 120.044 237.499 118.448 237.499 116.48V46.1198C237.499 44.1517 235.904 42.5562 233.936 42.5562Z" stroke="white" stroke-width="1.40118"/>
<path d="M210.482 50.3843H216.879" stroke="white" stroke-width="1.44309" stroke-linecap="round"/>
<path d="M210.482 113.282H216.879" stroke="white" stroke-width="1.44309" stroke-linecap="round"/>
<path d="M196.623 64.2432H225.951" stroke="white" stroke-width="1.5991" stroke-linecap="round"/>
<path d="M196.623 73.8379H217.944" stroke="white" stroke-width="1.5991" stroke-linecap="round"/>
<path d="M196.623 83.4326H211.548" stroke="white" stroke-width="1.5991" stroke-linecap="round"/>
<path d="M190.227 107.23H237.133" stroke="white" stroke-width="1.44309"/>
<path d="M111.159 47.64H111.88V46.9185H111.159V47.64ZM111.159 94.3459L115.325 87.1304H106.993L111.159 94.3459ZM85.0039 47.64V48.3615H87.1835V47.64V46.9185H85.0039V47.64ZM91.5427 47.64V48.3615H95.9023V47.64V46.9185H91.5427V47.64ZM100.261 47.64V48.3615H104.62V47.64V46.9185H100.261V47.64ZM108.98 47.64V48.3615H111.159V47.64V46.9185H108.98V47.64ZM111.159 47.64H110.438V49.586H111.159H111.88V47.64H111.159ZM111.159 53.4782H110.438V57.3704H111.159H111.88V53.4782H111.159ZM111.159 61.2625H110.438V65.1547H111.159H111.88V61.2625H111.159ZM111.159 69.0469H110.438V72.939H111.159H111.88V69.0469H111.159ZM111.159 76.8311H110.438V80.7233H111.159H111.88V76.8311H111.159ZM111.159 84.6154H110.438V88.5076H111.159H111.88V84.6154H111.159Z" fill="#A9E5EB"/>
<path d="M214.629 152.012V152.733H215.35V152.012H214.629ZM171.336 152.012L178.551 156.177V147.845L171.336 152.012ZM176.747 152.012V152.733H180.355V152.012V151.289H176.747V152.012ZM183.963 152.012V152.733H187.571V152.012V151.289H183.963V152.012ZM191.178 152.012V152.733H194.786V152.012V151.289H191.178V152.012ZM198.394 152.012V152.733H202.001V152.012V151.289H198.394V152.012ZM205.61 152.012V152.733H209.217V152.012V151.289H205.61V152.012ZM212.825 152.012V152.733H214.629V152.012V151.289H212.825V152.012ZM214.629 152.012H215.35V150.268H214.629H213.907V152.012H214.629ZM214.629 146.78H215.35V143.292H214.629H213.907V146.78H214.629ZM214.629 139.805H215.35V136.317H214.629H213.907V139.805H214.629ZM214.629 132.83H215.35V129.342H214.629H213.907V132.83H214.629ZM214.629 125.855H215.35V124.111H214.629H213.907V125.855H214.629Z" fill="#A9E5EB"/>
</g>
<defs>
<clipPath id="clip0_1136_2404">
<rect width="254.08" height="227.925" fill="white"/>
</clipPath>
</defs>
</svg>
