<svg width="36" height="36" viewBox="0 0 36 36" fill="none" xmlns="http://www.w3.org/2000/svg">
<g clip-path="url(#clip0_970_842)">
<g clip-path="url(#clip1_970_842)">
<path d="M29.25 4.5H25.875V3.375C25.875 3.07663 25.7565 2.79048 25.5455 2.5795C25.3345 2.36853 25.0484 2.25 24.75 2.25C24.4516 2.25 24.1655 2.36853 23.9545 2.5795C23.7435 2.79048 23.625 3.07663 23.625 3.375V4.5H12.375V3.375C12.375 3.07663 12.2565 2.79048 12.0455 2.5795C11.8345 2.36853 11.5484 2.25 11.25 2.25C10.9516 2.25 10.6655 2.36853 10.4545 2.5795C10.2435 2.79048 10.125 3.07663 10.125 3.375V4.5H6.75C6.15326 4.5 5.58097 4.73705 5.15901 5.15901C4.73705 5.58097 4.5 6.15326 4.5 6.75V29.25C4.5 29.8467 4.73705 30.419 5.15901 30.841C5.58097 31.2629 6.15326 31.5 6.75 31.5H29.25C29.8467 31.5 30.419 31.2629 30.841 30.841C31.2629 30.419 31.5 29.8467 31.5 29.25V6.75C31.5 6.15326 31.2629 5.58097 30.841 5.15901C30.419 4.73705 29.8467 4.5 29.25 4.5ZM10.125 6.75V7.875C10.125 8.17337 10.2435 8.45952 10.4545 8.67049C10.6655 8.88147 10.9516 9 11.25 9C11.5484 9 11.8345 8.88147 12.0455 8.67049C12.2565 8.45952 12.375 8.17337 12.375 7.875V6.75H23.625V7.875C23.625 8.17337 23.7435 8.45952 23.9545 8.67049C24.1655 8.88147 24.4516 9 24.75 9C25.0484 9 25.3345 8.88147 25.5455 8.67049C25.7565 8.45952 25.875 8.17337 25.875 7.875V6.75H29.25V11.25H6.75V6.75H10.125ZM29.25 29.25H6.75V13.5H29.25V29.25ZM23.8584 17.2041C23.963 17.3085 24.046 17.4326 24.1026 17.5692C24.1592 17.7058 24.1884 17.8522 24.1884 18C24.1884 18.1478 24.1592 18.2942 24.1026 18.4308C24.046 18.5674 23.963 18.6915 23.8584 18.7959L17.1084 25.5459C17.004 25.6505 16.8799 25.7335 16.7433 25.7901C16.6067 25.8467 16.4603 25.8759 16.3125 25.8759C16.1647 25.8759 16.0183 25.8467 15.8817 25.7901C15.7451 25.7335 15.621 25.6505 15.5166 25.5459L12.1416 22.1709C11.9305 21.9598 11.8119 21.6735 11.8119 21.375C11.8119 21.0765 11.9305 20.7902 12.1416 20.5791C12.3527 20.368 12.639 20.2494 12.9375 20.2494C13.236 20.2494 13.5223 20.368 13.7334 20.5791L16.3125 23.1595L22.2666 17.2041C22.371 17.0995 22.4951 17.0165 22.6317 16.9599C22.7683 16.9033 22.9147 16.8741 23.0625 16.8741C23.2103 16.8741 23.3567 16.9033 23.4933 16.9599C23.6299 17.0165 23.754 17.0995 23.8584 17.2041Z" fill="#014751"/>
</g>
</g>
<defs>
<clipPath id="clip0_970_842">
<rect width="36" height="36" fill="white"/>
</clipPath>
<clipPath id="clip1_970_842">
<rect width="36" height="36" fill="white"/>
</clipPath>
</defs>
</svg>
