<svg width="147" height="148" viewBox="0 0 147 148" fill="none" xmlns="http://www.w3.org/2000/svg">
<mask id="mask0_91_6097" style="mask-type:luminance" maskUnits="userSpaceOnUse" x="0" y="0" width="147" height="148">
<path d="M115.623 0.880902L0.289062 31.7847L31.1928 147.119L146.527 116.215L115.623 0.880902Z" fill="white"/>
</mask>
<g mask="url(#mask0_91_6097)">
<path fill-rule="evenodd" clip-rule="evenodd" d="M75.5133 65.772C74.5902 69.3806 70.0749 70.5904 67.471 67.9269L31.235 30.861C28.6815 28.2491 29.8858 23.8542 33.414 22.9089L82.4983 9.75677C86.0269 8.81127 89.2669 12.0153 88.3615 15.554L75.5133 65.772ZM67.3351 79.9371C69.9986 77.3333 68.7887 72.8181 65.1801 71.8948L14.9621 59.0464C11.4234 58.141 8.21948 61.3814 9.16486 64.9096L22.317 113.994C23.2625 117.523 27.6572 118.726 30.2691 116.173L67.3351 79.9371ZM79.3453 80.0733C76.7414 77.4093 72.2264 78.6197 71.3031 82.2282L58.4547 132.446C57.5493 135.985 60.7896 139.189 64.3178 138.243L113.402 125.091C116.931 124.146 118.135 119.751 115.581 117.139L79.3453 80.0733ZM79.4814 68.0628C76.8175 70.6669 78.0273 75.1821 81.6364 76.1051L131.854 88.9533C135.393 89.8587 138.597 86.6188 137.651 83.0901L124.499 34.0059C123.554 30.4777 119.159 29.2735 116.547 31.8268L79.4814 68.0628Z" fill="#097B85"/>
</g>
</svg>
