<svg width="104" height="104" viewBox="0 0 104 104" fill="none" xmlns="http://www.w3.org/2000/svg">
<g clip-path="url(#clip0_60_2930)">
<g clip-path="url(#clip1_60_2930)">
<path d="M51.2293 0.866699L51.2333 51.9491L59.1098 1.49623L51.2411 51.9503L66.7963 3.36934L51.2486 51.9528L74.0994 6.4399L51.2556 51.9564L80.8395 10.6323L51.262 51.9611L86.8504 15.8433L51.2676 51.9668L91.9842 21.9446L51.2723 51.9733L96.1145 28.786L51.2759 51.9805L99.1395 36.199L51.2783 51.9881L100.985 44.001L51.2795 51.996L101.605 52L51.2795 52.004L100.985 59.999L51.2783 52.012L99.1395 67.8011L51.2759 52.0196L96.1145 75.2141L51.2723 52.0267L91.9842 82.0555L51.2676 52.0332L86.8504 88.1568L51.262 52.0389L80.8395 93.3678L51.2556 52.0436L74.0994 97.5602L51.2486 52.0473L66.7963 100.631L51.2411 52.0498L59.1098 102.504L51.2333 52.051L51.2293 103.133L51.2254 52.051L43.3488 102.504L51.2176 52.0498L35.6623 100.631L51.21 52.0473L28.3592 97.5602L51.203 52.0436L21.6192 93.3678L51.1966 52.0389L15.6082 88.1568L51.191 52.0332L10.4744 82.0555L51.1864 52.0267L6.34415 75.2141L51.1828 52.0196L3.31908 67.8011L51.1803 52.012L1.47372 59.999L51.1791 52.004L0.853516 52L51.1791 51.996L1.47372 44.001L51.1803 51.9881L3.31908 36.199L51.1828 51.9805L6.34415 28.786L51.1864 51.9733L10.4744 21.9446L51.191 51.9668L15.6082 15.8433L51.1966 51.9611L21.6192 10.6323L51.203 51.9564L28.3592 6.4399L51.21 51.9528L35.6623 3.36934L51.2176 51.9503L43.3488 1.49623L51.2254 51.9491L51.2293 0.866699Z" fill="#097B85" stroke="#097B85" stroke-width="4"/>
</g>
</g>
<defs>
<clipPath id="clip0_60_2930">
<rect width="104" height="104" fill="white"/>
</clipPath>
<clipPath id="clip1_60_2930">
<rect width="104" height="104" fill="white"/>
</clipPath>
</defs>
</svg>
