<svg width="104" height="104" viewBox="0 0 104 104" fill="none" xmlns="http://www.w3.org/2000/svg">
<g clip-path="url(#clip0_60_2923)">
<g clip-path="url(#clip1_60_2923)">
<path d="M51.2296 0.866699L51.2384 51.9497L68.4592 3.95042L51.2548 51.9557L83.6106 12.8296L51.2682 51.9672L94.8563 26.4334L51.277 51.9825L100.84 43.1208L51.28 52L100.84 60.8792L51.277 52.0175L94.8563 77.5667L51.2682 52.0329L83.6106 91.1704L51.2548 52.0443L68.4592 100.05L51.2384 52.0504L51.2296 103.133L51.2209 52.0504L34.0001 100.05L51.2044 52.0443L18.8487 91.1704L51.191 52.0329L7.60289 77.5667L51.1823 52.0175L1.61914 60.8792L51.1792 52L1.61914 43.1208L51.1823 51.9825L7.60289 26.4334L51.191 51.9672L18.8487 12.8296L51.2044 51.9557L34.0001 3.95042L51.2209 51.9497L51.2296 0.866699Z" fill="#097B85" stroke="#097B85" stroke-width="4"/>
</g>
</g>
<defs>
<clipPath id="clip0_60_2923">
<rect width="104" height="104" fill="white"/>
</clipPath>
<clipPath id="clip1_60_2923">
<rect width="104" height="104" fill="white"/>
</clipPath>
</defs>
</svg>
