<svg width="30" height="30" viewBox="0 0 30 30" fill="none" xmlns="http://www.w3.org/2000/svg">
<g clip-path="url(#clip0_1136_2365)">
<g clip-path="url(#clip1_1136_2365)">
<path fill-rule="evenodd" clip-rule="evenodd" d="M5 6.25C5 3.1434 7.5184 0.625 10.625 0.625H19.375C22.4816 0.625 25 3.1434 25 6.25C25 8.01704 24.1852 9.59378 22.9109 10.625C24.1852 11.6562 25 13.233 25 15C25 18.1066 22.4816 20.625 19.375 20.625C18.2186 20.625 17.1438 20.2761 16.25 19.6777V23.75C16.25 26.8566 13.7316 29.375 10.625 29.375C7.5184 29.375 5 26.8566 5 23.75C5 21.983 5.81479 20.4062 7.08917 19.375C5.81479 18.3437 5 16.767 5 15C5 13.233 5.81479 11.6562 7.08916 10.625C5.81479 9.59378 5 8.01704 5 6.25ZM10.625 9.375H13.75V3.125H10.625C8.89911 3.125 7.5 4.52411 7.5 6.25C7.5 7.97589 8.89911 9.375 10.625 9.375ZM16.25 3.125V9.375H19.375C21.1009 9.375 22.5 7.97589 22.5 6.25C22.5 4.52411 21.1009 3.125 19.375 3.125H16.25ZM13.75 11.875H10.625C8.89911 11.875 7.5 13.2741 7.5 15C7.5 16.7258 8.89911 18.125 10.625 18.125H13.75V11.875ZM13.75 20.625H10.625C8.89911 20.625 7.5 22.0241 7.5 23.75C7.5 25.4758 8.89911 26.875 10.625 26.875C12.3509 26.875 13.75 25.4758 13.75 23.75V20.625ZM19.375 11.875C17.6491 11.875 16.25 13.2741 16.25 15C16.25 16.7258 17.6491 18.125 19.375 18.125C21.1009 18.125 22.5 16.7258 22.5 15C22.5 13.2741 21.1009 11.875 19.375 11.875Z" fill="white"/>
</g>
</g>
<defs>
<clipPath id="clip0_1136_2365">
<rect width="30" height="30" fill="white"/>
</clipPath>
<clipPath id="clip1_1136_2365">
<rect width="30" height="30" fill="white"/>
</clipPath>
</defs>
</svg>
