<svg width="89" height="87" viewBox="0 0 89 87" fill="none" xmlns="http://www.w3.org/2000/svg">
<g clip-path="url(#clip0_60_2899)">
<g clip-path="url(#clip1_60_2899)">
<path fill-rule="evenodd" clip-rule="evenodd" d="M85.5102 31.015L50.1276 66.3976L70.0093 18.1324C68.8661 17.5046 67.6971 16.9179 66.5044 16.3741L46.5501 64.8154V11.6712C45.9014 11.6477 45.2496 11.6357 44.5951 11.6357C43.9405 11.6357 43.2886 11.6477 42.6397 11.6712V64.8153L22.6856 16.3742C21.4929 16.918 20.3239 17.5046 19.1806 18.1325L39.0623 66.3976L3.67986 31.0151C2.84637 32.0319 2.05006 33.0804 1.29297 34.1584L43.2123 76.078L44.5949 77.4605L45.9775 76.078L87.8971 34.1583C87.14 33.0803 86.3437 32.0319 85.5102 31.015Z" fill="#05070F"/>
<path d="M44.5949 51.9034C52.2951 51.9034 58.5374 45.6611 58.5374 37.9608C58.5374 30.2606 52.2951 24.0183 44.5949 24.0183C36.8946 24.0183 30.6523 30.2606 30.6523 37.9608C30.6523 45.6611 36.8946 51.9034 44.5949 51.9034Z" stroke="#05070F" stroke-width="3.91045"/>
</g>
</g>
<defs>
<clipPath id="clip0_60_2899">
<rect width="88" height="86.03" fill="white" transform="translate(0.666016 0.344238)"/>
</clipPath>
<clipPath id="clip1_60_2899">
<rect width="88" height="86.03" fill="white" transform="translate(0.666016 0.344238)"/>
</clipPath>
</defs>
</svg>
