<svg width="36" height="36" viewBox="0 0 36 36" fill="none" xmlns="http://www.w3.org/2000/svg">
<g clip-path="url(#clip0_970_825)">
<g clip-path="url(#clip1_970_825)">
<g clip-path="url(#clip2_970_825)">
<mask id="mask0_970_825" style="mask-type:luminance" maskUnits="userSpaceOnUse" x="0" y="-1" width="36" height="37">
<path d="M35.3532 -0.00354004H0.326172V35.0235H35.3532V-0.00354004Z" fill="white"/>
</mask>
<g mask="url(#mask0_970_825)">
<path d="M31.8409 19.2968C31.4336 18.9834 30.9595 18.7682 30.4555 18.6678C29.9514 18.5674 29.4311 18.5846 28.9348 18.718L23.2101 20.0343C23.3433 19.4717 23.3474 18.8861 23.222 18.3217C23.0968 17.7573 22.8454 17.2285 22.4867 16.7751C22.128 16.3216 21.6713 15.9552 21.1509 15.7033C20.6304 15.4515 20.0598 15.3206 19.4815 15.3207H12.6322C12.057 15.3192 11.4871 15.4318 10.9557 15.6519C10.4242 15.8719 9.94164 16.1951 9.53582 16.6028L6.44085 19.6991H2.51536C1.93475 19.6991 1.37792 19.9298 0.96737 20.3403C0.556817 20.7508 0.326172 21.3077 0.326172 21.8883V27.3612C0.326172 27.9418 0.556817 28.4986 0.96737 28.9092C1.37792 29.3198 1.93475 29.5504 2.51536 29.5504H16.7451C16.8346 29.5505 16.9238 29.5394 17.0106 29.5176L25.7673 27.3284C25.8235 27.3149 25.8784 27.2966 25.9315 27.2737L31.2485 25.0106L31.3087 24.9832C31.8198 24.7278 32.2576 24.3465 32.5806 23.8752C32.9036 23.4039 33.1013 22.858 33.1551 22.2892C33.2088 21.7203 33.117 21.1471 32.888 20.6236C32.6591 20.1001 32.3006 19.6435 31.8464 19.2968H31.8409ZM5.79915 27.3612H2.51536V21.8883H5.79915V27.3612ZM30.3496 23.0115L25.1502 25.2255L16.6083 27.3612H7.98834V21.2466L11.0847 18.1516C11.2873 17.9474 11.5284 17.7855 11.794 17.6754C12.0596 17.5652 12.3446 17.509 12.6322 17.5099H19.4815C19.917 17.5099 20.3346 17.6829 20.6426 17.9908C20.9504 18.2987 21.1234 18.7164 21.1234 19.1518C21.1234 19.5873 20.9504 20.0049 20.6426 20.3127C20.3346 20.6207 19.917 20.7937 19.4815 20.7937H15.6505C15.3602 20.7937 15.0818 20.909 14.8765 21.1143C14.6713 21.3195 14.5559 21.5979 14.5559 21.8883C14.5559 22.1786 14.6713 22.457 14.8765 22.6623C15.0818 22.8675 15.3602 22.9828 15.6505 22.9828H20.0288C20.1112 22.9827 20.1934 22.9734 20.2738 22.9555L29.441 20.8471L29.4834 20.8361C29.7632 20.7584 30.0619 20.7869 30.322 20.9163C30.5821 21.0456 30.7852 21.2664 30.8922 21.5364C30.9991 21.8064 31.0025 22.1065 30.9015 22.3788C30.8006 22.6512 30.6025 22.8765 30.3455 23.0115H30.3496ZM21.4436 8.43296C21.3419 8.33129 21.2611 8.21058 21.206 8.0777C21.151 7.94481 21.1227 7.80238 21.1227 7.65853C21.1227 7.51469 21.151 7.37224 21.206 7.23936C21.2611 7.10649 21.3419 6.98576 21.4436 6.8841L25.822 2.50572C25.9237 2.40395 26.0444 2.32321 26.1772 2.26813C26.3102 2.21304 26.4526 2.18469 26.5964 2.18469C26.7403 2.18469 26.8828 2.21304 27.0156 2.26813C27.1485 2.32321 27.2692 2.40395 27.3709 2.50572L31.7493 6.8841C31.8509 6.98581 31.9316 7.10653 31.9867 7.23941C32.0416 7.37229 32.0701 7.51471 32.0701 7.65853C32.0701 7.80236 32.0416 7.94477 31.9867 8.07765C31.9316 8.21052 31.8509 8.33125 31.7493 8.43296C31.6476 8.53465 31.5268 8.61532 31.3939 8.67036C31.261 8.72541 31.1187 8.75373 30.9748 8.75373C30.831 8.75373 30.6885 8.72541 30.5557 8.67036C30.4228 8.61532 30.3021 8.53465 30.2004 8.43296L27.691 5.92223V14.2261C27.691 14.5164 27.5757 14.7948 27.3704 15.0001C27.1652 15.2054 26.8867 15.3207 26.5964 15.3207C26.3062 15.3207 26.0277 15.2054 25.8224 15.0001C25.6172 14.7948 25.5018 14.5164 25.5018 14.2261V5.92223L22.9925 8.43296C22.8908 8.53472 22.7701 8.61546 22.6372 8.67055C22.5044 8.72563 22.3619 8.75398 22.218 8.75398C22.0742 8.75398 21.9318 8.72563 21.7989 8.67055C21.6661 8.61546 21.5453 8.53472 21.4436 8.43296Z" fill="#014751"/>
</g>
</g>
</g>
</g>
<defs>
<clipPath id="clip0_970_825">
<rect width="36" height="35.02" fill="white"/>
</clipPath>
<clipPath id="clip1_970_825">
<rect width="36" height="35.02" fill="white"/>
</clipPath>
<clipPath id="clip2_970_825">
<rect width="36" height="35.027" fill="white" transform="translate(0 -0.00354004)"/>
</clipPath>
</defs>
</svg>
