<svg width="30" height="30" viewBox="0 0 30 30" fill="none" xmlns="http://www.w3.org/2000/svg">
<g clip-path="url(#clip0_1136_2370)">
<g clip-path="url(#clip1_1136_2370)">
<mask id="mask0_1136_2370" style="mask-type:luminance" maskUnits="userSpaceOnUse" x="0" y="0" width="30" height="30">
<path d="M30 0H0V30H30V0Z" fill="white"/>
</mask>
<g mask="url(#mask0_1136_2370)">
<path fill-rule="evenodd" clip-rule="evenodd" d="M19.0713 0.0682694L2.43375 1.29327C1.0925 1.40952 0.625 2.28702 0.625 3.33327V21.532C0.625 22.3495 0.91625 23.0483 1.6175 23.982L5.52875 29.057C6.17 29.8733 6.75375 30.0495 7.98125 29.9883L27.3025 28.8233C28.9362 28.707 29.4038 27.9483 29.4038 26.6645V6.19202C29.4038 5.52952 29.1413 5.33702 28.3675 4.77327L28.235 4.67577L22.925 0.943269C21.6413 0.0107694 21.1125 -0.106731 19.0713 0.0682694ZM8.42 5.85577C6.84125 5.96327 6.48375 5.98702 5.5875 5.25952L3.30875 3.44952C3.07625 3.21577 3.19375 2.92452 3.7775 2.86702L19.7725 1.70077C21.115 1.58327 21.815 2.05077 22.34 2.45827L25.0837 4.44202C25.2 4.50077 25.4913 4.84952 25.1425 4.84952L8.6225 5.84202L8.42 5.85577ZM6.57875 26.4908V9.10827C6.57875 8.35077 6.8125 8.00077 7.51375 7.94202L26.4837 6.83452C27.1275 6.77577 27.4187 7.18452 27.4187 7.94202V25.2045C27.4187 25.9658 27.3025 26.607 26.2512 26.6645L8.0975 27.7145C7.045 27.7733 6.57875 27.4245 6.57875 26.4895V26.4908ZM24.5012 10.0408C24.6175 10.5683 24.5013 11.0933 23.9738 11.1533L23.1 11.327V24.157C22.34 24.5658 21.64 24.7983 21.0562 24.7983C20.1225 24.7983 19.8888 24.5083 19.1875 23.6333L13.4675 14.652V23.342L15.2775 23.7508C15.2775 23.7508 15.2775 24.8008 13.8163 24.8008L9.79 25.0333C9.6725 24.7995 9.79 24.2158 10.1988 24.0995L11.2487 23.8095V12.3158L9.79 12.1995C9.67375 11.6745 9.965 10.917 10.7825 10.8583L15.1025 10.5683L21.0562 19.667V11.617L19.5387 11.442C19.4212 10.8008 19.8888 10.3333 20.4725 10.2758L24.5012 10.042V10.0408Z" fill="white"/>
</g>
</g>
</g>
<defs>
<clipPath id="clip0_1136_2370">
<rect width="30" height="30" fill="white"/>
</clipPath>
<clipPath id="clip1_1136_2370">
<rect width="30" height="30" fill="white"/>
</clipPath>
</defs>
</svg>
