<svg width="30" height="30" viewBox="0 0 30 30" fill="none" xmlns="http://www.w3.org/2000/svg">
<g clip-path="url(#clip0_1136_2360)">
<path fill-rule="evenodd" clip-rule="evenodd" d="M7.16773 2.5L14.2865 9.05875V9.0575V2.515H15.6721V9.08812L22.8234 2.5V9.97812H25.759V20.7644H22.8321V27.4231L15.6727 21.1331V27.4956H14.2871V21.2369L7.17586 27.5V20.765H4.24023V9.97812H7.16836L7.16773 2.5ZM13.2421 11.3469H5.62586V19.3956H7.17398V16.8569L13.2421 11.3469ZM8.56148 17.4644V24.4456L14.2865 19.4031V12.2644L8.56148 17.4644ZM15.7127 19.3362V12.2575L21.4396 17.4581V20.765H21.4471V24.3744L15.7127 19.3362ZM22.8321 19.3956H24.3734V11.3469H16.814L22.8321 16.8V19.3956ZM21.4377 9.97812V5.64875L16.7384 9.97812H21.4377ZM13.2527 9.97812H8.55336V5.64875L13.2527 9.97812Z" fill="white"/>
</g>
<defs>
<clipPath id="clip0_1136_2360">
<rect width="30" height="30" fill="white"/>
</clipPath>
</defs>
</svg>
