<svg width="30" height="30" viewBox="0 0 30 30" fill="none" xmlns="http://www.w3.org/2000/svg">
<g clip-path="url(#clip0_1136_2469)">
<path d="M15.4998 9.99388H4.87587C3.82971 9.99388 3 9.14603 3 8.11778V1.87611C3 0.829816 3.84775 0 4.87587 0H13.6239C14.6701 0 15.4998 0.847856 15.4998 1.87611V9.99388Z" fill="white"/>
<path d="M26.1239 19.9875H15.5V9.97559H26.1239C27.152 9.97559 27.9998 10.8234 27.9998 11.8517V18.1114C27.9998 19.1577 27.152 19.9875 26.1239 19.9875Z" fill="white"/>
<path d="M13.6239 29.9998H4.87587C3.84775 29.9998 3 29.1519 3 28.1237V21.8639C3 20.8357 3.84775 19.9878 4.87587 19.9878H15.4998V28.1237C15.4998 29.1519 14.652 29.9998 13.6239 29.9998Z" fill="white"/>
</g>
<defs>
<clipPath id="clip0_1136_2469">
<rect width="30" height="30" fill="white"/>
</clipPath>
</defs>
</svg>
