<svg width="36" height="36" viewBox="0 0 36 36" fill="none" xmlns="http://www.w3.org/2000/svg">
<g clip-path="url(#clip0_970_812)">
<g clip-path="url(#clip1_970_812)">
<path d="M31.2766 6.44357C31.2442 5.90985 31.0175 5.40647 30.6394 5.02837C30.2613 4.65028 29.758 4.42364 29.2242 4.39121C27.5029 4.28859 23.1041 4.44594 19.4536 8.09504L18.8037 8.75316H10.8228C10.5341 8.75154 10.2481 8.80732 9.98124 8.91724C9.71441 9.02717 9.4721 9.18906 9.2684 9.3935L4.57532 14.0893C4.2875 14.3769 4.08554 14.739 3.9921 15.135C3.89866 15.5311 3.91743 15.9453 4.04631 16.3313C4.1752 16.7172 4.4091 17.0596 4.72174 17.3199C5.0344 17.5804 5.41343 17.7485 5.81632 17.8055L11.0799 18.5402L17.129 24.5892L17.8637 29.8555C17.9202 30.2584 18.0882 30.6375 18.3489 30.9499C18.6096 31.2624 18.9524 31.4956 19.3387 31.6233C19.5637 31.6985 19.7993 31.7369 20.0364 31.7369C20.3236 31.7375 20.6081 31.6811 20.8735 31.5713C21.1389 31.4613 21.3798 31.3 21.5826 31.0966L26.2784 26.4035C26.4829 26.1998 26.6448 25.9575 26.7546 25.6906C26.8646 25.4238 26.9204 25.1378 26.9187 24.8492V16.8682L27.5714 16.2155C31.2218 12.5651 31.3792 8.16619 31.2766 6.44357ZM10.8228 10.9424H16.6145L11.2058 16.3497L6.12143 15.6409L10.8228 10.9424ZM21.0039 9.64937C22.0556 8.59108 23.3212 7.76941 24.7158 7.23923C26.1105 6.70905 27.6023 6.48257 29.0915 6.57492C29.1874 8.06491 28.9633 9.55817 28.4342 10.9544C27.9051 12.3505 27.0832 13.6173 26.0239 14.6695L18.162 22.5287L13.1433 17.51L21.0039 9.64937ZM24.7296 24.8492L20.0323 29.5505L19.3223 24.4647L24.7296 19.0574V24.8492ZM14.5826 26.149C13.9669 27.4981 11.9077 30.6451 6.12143 30.6451C5.83113 30.6451 5.55272 30.5297 5.34744 30.3244C5.14216 30.1192 5.02684 29.8407 5.02684 29.5505C5.02684 23.7641 8.1738 21.7049 9.52289 21.0879C9.65369 21.0282 9.79501 20.995 9.93862 20.9899C10.0823 20.9848 10.2255 21.0081 10.3603 21.0584C10.495 21.1087 10.6184 21.1851 10.7236 21.2831C10.8287 21.3811 10.9135 21.4989 10.9732 21.6297C11.0329 21.7605 11.0662 21.9018 11.0713 22.0455C11.0763 22.1892 11.053 22.3324 11.0027 22.4671C10.9524 22.6017 10.876 22.7252 10.778 22.8304C10.68 22.9356 10.5622 23.0204 10.4314 23.08C9.55162 23.4809 7.61008 24.7712 7.26802 28.4039C10.9007 28.0619 12.1937 26.1203 12.5918 25.2405C12.6515 25.1097 12.7363 24.9919 12.8415 24.8939C12.9467 24.7959 13.0701 24.7195 13.2048 24.6692C13.3395 24.6189 13.4828 24.5956 13.6265 24.6007C13.7701 24.6058 13.9114 24.639 14.0422 24.6987C14.173 24.7583 14.2908 24.8432 14.3888 24.9483C14.4868 25.0535 14.5632 25.177 14.6135 25.3117C14.6638 25.4463 14.6871 25.5895 14.6821 25.7332C14.677 25.877 14.6436 26.0182 14.584 26.149H14.5826Z" fill="#014751"/>
</g>
</g>
<defs>
<clipPath id="clip0_970_812">
<rect width="36" height="35.02" fill="white"/>
</clipPath>
<clipPath id="clip1_970_812">
<rect width="36" height="35.02" fill="white"/>
</clipPath>
</defs>
</svg>
