<svg width="124" height="123" viewBox="0 0 124 123" fill="none" xmlns="http://www.w3.org/2000/svg">
<path fill-rule="evenodd" clip-rule="evenodd" d="M66.4068 0H57.5936V38.9007L42.9758 2.83258L34.8044 6.12377L49.8009 43.1262L21.4935 14.9067L15.2618 21.1192L42.3931 48.1662L7.23291 32.8521L3.70446 40.903L40.9081 57.1071H0.308594V65.8929H40.908L3.70447 82.097L7.23291 90.1479L42.3931 74.8338L15.2618 101.881L21.4935 108.093L49.8009 79.8737L34.8044 116.876L42.9758 120.167L57.5936 84.0994V123H66.4068V84.0994L81.0246 120.167L89.1956 116.876L74.1996 79.8737L102.507 108.093L108.738 101.881L81.6069 74.8338L116.767 90.1479L120.296 82.097L83.0925 65.8929H123.692V57.1071H83.0919L120.296 40.903L116.767 32.8521L81.6069 48.1662L108.738 21.1191L102.507 14.9067L74.1996 43.1261L89.1956 6.12377L81.0246 2.83258L66.4068 38.9007V0Z" fill="#097B85"/>
</svg>
