<svg width="22" height="21" viewBox="0 0 22 21" fill="none" xmlns="http://www.w3.org/2000/svg">
<path d="M13.6094 1C13.6094 6.04858 16.8654 9.94206 20.6611 9.94238V10.9434C16.8654 10.9437 13.6094 14.8372 13.6094 19.8857H12.6094C12.6094 16.0191 14.4205 12.5753 17.126 10.9434H1V9.94336H17.1279C14.4214 8.3119 12.6094 4.86751 12.6094 1H13.6094Z" fill="#014751"/>
<path d="M13.6094 1H14.6094V0H13.6094V1ZM20.6611 9.94238H21.6611V8.94247L20.6612 8.94238L20.6611 9.94238ZM20.6611 10.9434L20.6612 11.9434L21.6611 11.9433V10.9434H20.6611ZM13.6094 19.8857V20.8857H14.6094L14.6094 19.8857H13.6094ZM12.6094 19.8857H11.6094V20.8857H12.6094V19.8857ZM17.126 10.9434L17.6425 11.7996L20.72 9.94336H17.126V10.9434ZM1 10.9434H0V11.9434H1V10.9434ZM1 9.94336V8.94336H0V9.94336H1ZM17.1279 9.94336V10.9434H20.7239L17.6442 9.08692L17.1279 9.94336ZM12.6094 1V0H11.6094V1H12.6094ZM13.6094 1H12.6094C12.6094 6.38502 16.1196 10.942 20.661 10.9424L20.6611 9.94238L20.6612 8.94238C17.6113 8.94213 14.6094 5.71213 14.6094 1H13.6094ZM20.6611 9.94238H19.6611V10.9434H20.6611H21.6611V9.94238H20.6611ZM20.6611 10.9434L20.661 9.94336C16.1196 9.94374 12.6094 14.5007 12.6094 19.8857H13.6094H14.6094C14.6094 15.1736 17.6113 11.9436 20.6612 11.9434L20.6611 10.9434ZM13.6094 19.8857V18.8857H12.6094V19.8857V20.8857H13.6094V19.8857ZM12.6094 19.8857H13.6094C13.6094 16.3033 15.2897 13.2188 17.6425 11.7996L17.126 10.9434L16.6095 10.0871C13.5512 11.9318 11.6094 15.7349 11.6094 19.8857H12.6094ZM17.126 10.9434V9.94336H1V10.9434V11.9434H17.126V10.9434ZM1 10.9434H2V9.94336H1H0V10.9434H1ZM1 9.94336V10.9434H17.1279V9.94336V8.94336H1V9.94336ZM17.1279 9.94336L17.6442 9.08692C15.2905 7.66818 13.6094 4.58321 13.6094 1H12.6094H11.6094C11.6094 5.1518 13.5522 8.95561 16.6117 10.7998L17.1279 9.94336ZM12.6094 1V2H13.6094V1V0H12.6094V1Z" fill="#014751"/>
</svg>
