<svg width="30" height="30" viewBox="0 0 30 30" fill="none" xmlns="http://www.w3.org/2000/svg">
<g clip-path="url(#clip0_1136_2563)">
<g clip-path="url(#clip1_1136_2563)">
<g clip-path="url(#clip2_1136_2563)">
<path d="M11.6436 0.482422H17.4658C23.6305 0.482422 28.626 5.46724 28.626 11.6123V17.418C28.626 23.563 23.6305 28.5479 17.4658 28.5479H11.6436C5.47909 28.5476 0.483398 23.5629 0.483398 17.418V11.6123C0.483398 5.46738 5.47909 0.482644 11.6436 0.482422ZM7.86035 9.61816C7.43286 9.61816 7.08496 9.96456 7.08496 10.3926V14.666C7.08496 18.6991 10.4173 21.9667 14.4971 21.9668C18.3446 21.9668 21.5263 19.0614 21.877 15.3477L21.9023 14.9854C21.9217 14.5326 21.5505 14.1826 21.126 14.1826H18.8027C18.4176 14.1826 18.0528 14.4726 18.0225 14.8994V14.9004C17.899 16.6716 16.3744 18.0957 14.4971 18.0957C12.5371 18.0956 10.9639 16.5449 10.9639 14.666V10.3926C10.9639 9.96439 10.6161 9.61843 10.1895 9.61816H7.86035ZM19.9697 9.38574C19.8174 9.38576 19.662 9.40296 19.5059 9.4375C18.7454 9.6057 18.135 10.2134 17.9658 10.9736C17.6008 12.6149 19.2198 14.0141 20.8613 13.2988C21.2401 13.1339 21.5561 12.8454 21.7559 12.4863L21.834 12.3281C22.483 10.8468 21.4006 9.38574 19.9697 9.38574Z" fill="white" stroke="white" stroke-width="0.967742"/>
</g>
</g>
</g>
<defs>
<clipPath id="clip0_1136_2563">
<rect width="30" height="29.03" fill="white"/>
</clipPath>
<clipPath id="clip1_1136_2563">
<rect width="30" height="29.03" fill="white"/>
</clipPath>
<clipPath id="clip2_1136_2563">
<rect width="30" height="29.0323" fill="white" transform="translate(0 -0.000976562)"/>
</clipPath>
</defs>
</svg>
