<svg width="88" height="89" viewBox="0 0 88 89" fill="none" xmlns="http://www.w3.org/2000/svg">
<path d="M68.4533 54.3669H80.0891L75.4321 32.2459C72.0626 16.241 57.9427 4.78418 41.587 4.78418C22.4851 4.78418 7 20.2693 7 39.3712V84.7842H7.03101H7.08907H7.14788H7.20744H7.26776H7.32883H7.39063H7.45319H7.51648H7.58051H7.64526H7.71075H7.77697H7.84392H7.91158H7.97997H8.04907H8.1189H8.18943H8.26067H8.33262H8.40527H8.47863H8.55269H8.62744H8.70288H8.77902H8.85584H8.93336H9.01154H9.09042H9.16998H9.2502H9.3311H9.41267H9.4949H9.57781H9.66136H9.74558H9.83046H9.91599H10.0022H10.089H10.1765H10.2646H10.3534H10.4428H10.5328H10.6235H10.7148H10.8067H10.8993H10.9924H11.0862H11.1806H11.2756H11.3713H11.4675H11.5643H11.6618H11.7598H11.8585H11.9577H12.0576H12.158H12.259H12.3606H12.4628H12.5655H12.6688H12.7727H12.8772H12.9823H13.0879H13.194H13.3008H13.4081H13.5159H13.6243H13.7333H13.8428H13.9528H14.0634H14.1745H14.2862H14.3984H14.5111H14.6243H14.7381H14.8524H14.9672H15.0826H15.1984H15.3148H15.4317H15.5491H15.6669H15.7853H15.9042H16.0236H16.1435H16.2639H16.3847H16.5061H16.6279H16.7502H16.873H16.9963H17.12H17.2442H17.3689H17.494H17.6196H17.7457H17.8722H17.9991H18.1266H18.2544H18.3827H18.5115H18.6407H18.7703H18.9004H19.0309H19.1618H19.2932H19.425H19.5572H19.6898H19.8229H19.9563H20.0902H20.2245H20.3592H20.4942H20.6297H20.7656H20.9019H21.0386H21.1756H21.3131H21.4509H21.5891H21.7277H21.8667H22.0061H22.1458H22.2859H22.4263H22.5671H22.7083H22.8498H22.9917H23.134H23.2766H23.4195H23.5628H23.7064H23.8504H23.9947H24.1393H24.2843H24.4296H24.5752H24.7212H24.8674H25.014H25.1609H25.3081H25.4556H25.6035H25.7516H25.9H26.0488H26.1978H26.3471H26.4968H26.6467H26.7969H26.9473H27.0981H27.2491H27.4004H27.552H27.7039H27.856H28.0084H28.161H28.3139H28.4671H28.6205H28.7742H28.9281H29.0823H29.2367H29.3913H29.5462H29.7013H29.8567H30.0123H30.1681H30.3241H30.4804H30.6369H30.7936H30.9505H31.1076H31.2649H31.4225H31.5802H31.7381H31.8963H32.0546H32.2131H32.3718H32.5307H32.6898H32.8491H33.0086H33.1682H33.328H33.488H33.6481H33.8084H33.9689H34.1295H34.2903H34.4512H34.6123H34.7736H34.935H35.0965H35.2582H35.42H35.582H35.7441H35.9063H36.0687H36.2311H36.3938H36.5565H36.7193H36.8823H37.0453H37.2085H37.3718H37.5352H37.6987H37.8623H38.026H38.1898H38.3537H38.5176H38.6817H38.8458H39.01H39.1743H39.3387H39.5031H39.6677H39.8322H39.9969H40.1616H40.3264H40.4912H40.6561H40.821H40.986H41.151H41.3161H41.4812H41.6463H41.8115H41.9767H42.142H42.3073H42.4726H42.6379H42.8032H42.9686H43.1339H43.2993H43.4647H43.6301H43.7955H43.9609H44.1263H44.2917H44.4571H44.6225H44.7879H44.9532H45.1186H45.2839H45.4492H45.6144H45.7797H45.9449H46.1101H46.2752H46.4403H46.6054H46.7704H46.9353H47.1003H47.2651H47.4299H47.5947H47.7594H47.924H48.0886H48.2531H48.4175H48.5818H48.7461H48.9103H49.0744H49.2384H49.4024H49.5662H49.73H49.8936H50.0572H50.2207H50.384H50.5473H50.7104H50.8735H51.0364H51.1992H51.3619H51.5245H51.6869H51.8492H52.0114H52.1735H52.3354H52.4972H52.6588H52.8203H52.9817H53.1429H53.3039H53.4648H53.6256H53.7862H53.9466H54.1068H54.2669H54.4268H54.5866H54.7462H54.9056H55.0648H55.2238H55.3827H55.5413H55.6998H55.8581H56.0162H56.174H56.3317H56.4892H56.6465H56.8035H56.9604H57.117H57.2734H57.4296H57.5856H57.7413H57.8968H58.0521H58.2072H58.362H58.5166H58.6709H58.825H58.9788H59.1324H59.2858H59.4389H59.5917H59.7443H59.8966H60.0486H60.2004H60.3519H60.5031H60.6541H60.8048H60.9552H61.1053H61.2551H61.4046H61.5539H61.7028H61.8515H61.9998H62.1479H62.2956H62.443H62.5901H62.737H62.8834H63.0296H63.1755H63.321H63.4662H63.6111H63.7556H63.8998H64.0437H64.1872H64.3304H64.4732H64.6157H64.7579H64.8996H65.0411H65.1821H65.3229H65.4632H65.6032H65.7428H65.882H66.0209H66.1594H66.2975H66.4352H66.4533V56.3669V54.3669H68.4533Z" stroke="#05070F" stroke-width="4"/>
</svg>
