<svg width="134" height="34" viewBox="0 0 134 34" fill="none" xmlns="http://www.w3.org/2000/svg">
<path fill-rule="evenodd" clip-rule="evenodd" d="M1.15028 18.2984H11.3385L11.3385 22.5709H3.5741L4.37861 24.2723C4.46078 24.4726 4.60114 24.6985 4.64222 24.8714H11.3385L11.3385 32.5948C11.3385 32.7334 12.2851 33.1374 12.4494 33.2093L13.6408 33.7433L13.6408 15.9961H0C0.0393699 16.1621 0.191714 16.4189 0.273877 16.5849L0.958571 18.0365C1.01848 18.1683 1.01677 18.2967 1.15028 18.2967V18.2984Z" fill="#175D63"/>
<path fill-rule="evenodd" clip-rule="evenodd" d="M14.791 33.7449L16.5644 32.9284C16.6945 32.8753 17.0933 32.7384 17.0933 32.5946L17.0933 24.8712H23.7896C23.8187 24.7429 23.8598 24.6881 23.9128 24.5837C23.9625 24.4861 23.9916 24.3971 24.0361 24.2961L24.8577 22.5707H17.0933V18.2982H27.2815C27.4168 18.2982 27.4031 18.1972 27.4613 18.0671L28.2966 16.3143C28.3565 16.1945 28.3822 16.1055 28.4335 15.9993H14.7944L14.7944 33.7466L14.791 33.7449Z" fill="#175D63"/>
<path fill-rule="evenodd" clip-rule="evenodd" d="M10.0719 0.18158C9.94865 0.710505 9.17324 2.09872 9.08594 3.13945C10.8627 2.19971 9.79288 2.4171 11.8384 2.89296L10.2362 6.54923C10.1438 6.73923 10.0616 6.93608 9.97262 7.14833C9.89216 7.34005 9.74667 7.5951 9.70216 7.78167L14.0055 12.1055L18.3601 7.7714C18.1222 7.40509 18.0126 7.14491 17.8346 6.83851C17.3296 5.96724 16.6946 4.692 16.217 3.89604L15.6727 2.92035C15.5991 2.78341 15.5648 2.69954 15.4861 2.57116C14.8562 1.53556 15.1438 1.69989 14.2297 0.785821C13.4149 -0.0289634 13.6289 -0.0340986 12.9904 0.0189651L10.0719 0.18158Z" fill="#175D63"/>
<path fill-rule="evenodd" clip-rule="evenodd" d="M2.09931 14.9304H8.05614C10.0863 14.9304 12.0137 14.9715 14.013 14.9715C16.0123 14.9715 17.9106 14.9304 19.9287 14.9304H25.9266C26.0276 14.7387 26.0892 14.5812 26.1868 14.3689L26.9948 12.6298H1.07227C1.09281 12.866 1.69362 14.0078 1.82885 14.3381C1.91101 14.5401 2.0548 14.7387 2.09931 14.9304Z" fill="#175D63"/>
<path fill-rule="evenodd" clip-rule="evenodd" d="M15.8594 11.602H24.1579C24.2623 11.4052 25.1729 9.5291 25.226 9.30144H18.694C18.3157 9.30144 18.201 9.24495 18.0435 9.39045L15.8594 11.602Z" fill="#175D63"/>
<path fill-rule="evenodd" clip-rule="evenodd" d="M3.865 11.6019H12.1635L9.99985 9.41088C9.8321 9.24313 9.76705 9.29962 9.36993 9.30133H2.79688C2.83796 9.47422 2.9749 9.6899 3.05706 9.86278C3.15976 10.0767 3.22994 10.2531 3.33094 10.4516L3.865 11.6019Z" fill="#175D63"/>
<path fill-rule="evenodd" clip-rule="evenodd" d="M154.055 0.424851H150.734V8.64748C150.734 8.84674 150.754 9.14562 150.794 9.5707L150.176 8.90652C146.676 5.10737 142.512 1.86614 138.028 0.424851H135.086V14.4325H138.407V5.02766C138.407 4.88818 138.387 4.54945 138.347 4.05131C138.686 4.17087 139.005 4.31034 139.27 4.39005C142.91 5.77155 146.61 9.19211 150.455 14.4325H154.055V0.424851ZM120.946 0.424851C116.522 0.424851 113.945 3.12809 113.945 7.40545V14.4259H125.548C129.992 14.4259 132.529 11.8223 132.529 7.46523V0.424851H120.946ZM129.128 7.40545C129.128 10.3079 128.205 11.105 125.469 11.105H117.346V7.46523C117.346 4.58266 118.209 3.72586 121.012 3.72586H129.135V7.40545H129.128ZM111.899 11.1116H97.8186V7.47187C97.8186 4.96789 99.0407 3.7325 101.478 3.7325H111.899V0.431489H101.418C96.9552 0.431489 94.418 3.02847 94.418 7.4121V14.4325H111.899V11.1116ZM75.2296 0.424851V14.4325H85.9961C89.7753 14.4325 92.2793 12.5927 92.8771 9.01278H89.3569C88.8786 10.4142 87.7362 11.1116 85.9363 11.1116H78.6369V0.424851H75.2363H75.2296ZM72.6127 0.424851H61.368C56.9313 0.424851 54.3874 3.02182 54.3874 7.40545V14.4259H57.7881V9.00614H69.1922V14.4259H72.6127V0.418213V0.424851ZM69.1855 5.92432H58.0006C58.2796 4.62251 58.9371 3.72586 63.0219 3.72586H69.1855V5.92432ZM51.8436 5.86454H39.4432C39.8617 4.48303 40.8447 3.72586 42.9236 3.72586H52.9661V0.424851H42.8638C38.4403 0.424851 35.8633 3.12809 35.8633 7.40545V14.4259H39.2639V9.00614H51.8502V5.86454H51.8436Z" fill="#175D63"/>
<path fill-rule="evenodd" clip-rule="evenodd" d="M155.636 19.3274H144.916C140.659 19.3274 138.533 21.3067 138.533 25.2254V27.9087H152.435C152.215 29.2703 151.438 30.0076 150.057 30.0076H138.533V33.3285H149.333C153.577 33.3285 155.696 31.3492 155.696 27.4305V24.7671H141.774C141.954 23.3258 142.757 22.6284 144.179 22.6284H155.643V19.3274H155.636ZM136.109 19.3274H125.389C121.131 19.3274 119.006 21.3067 119.006 25.2254V27.9087H132.908C132.688 29.2703 131.911 30.0076 130.53 30.0076H119.006V33.3285H129.812C134.057 33.3285 136.175 31.3492 136.175 27.4305V24.7671H122.254C122.433 23.3258 123.23 22.6284 124.652 22.6284H136.116V19.3274H136.109ZM117.08 19.3274H99.3129V26.3678C99.3129 30.6452 101.97 33.3285 106.313 33.3285H117.073V30.0076H106.373C104.294 30.0076 103.311 29.2703 102.893 27.9087H116.715V24.7671H102.714V22.6284H117.073V19.3274H117.08ZM96.8156 19.3274H93.4947V27.5501C93.4947 27.7493 93.5146 28.0482 93.5544 28.4733L92.9368 27.8091C89.4365 24.01 85.272 20.7687 80.7954 19.3274H77.8531V33.3285H81.174V23.9236C81.174 23.7841 81.1541 23.4454 81.1142 22.9406C81.453 23.0602 81.7784 23.1997 82.0375 23.2794C85.6772 24.6609 89.3834 28.0814 93.2224 33.3219H96.8222V19.3208L96.8156 19.3274ZM75.9668 19.3274H64.3037C60.4846 19.3274 58.4455 21.1274 58.14 24.7671H61.3613C61.4809 23.3258 62.2845 22.6284 63.7657 22.6284H66.1235V33.3285H69.5242V22.6284H75.9668V19.3274ZM56.267 19.3274H52.8664V33.3285H56.267V19.3274ZM50.203 24.7671H37.8026C38.2211 23.3856 39.2041 22.6284 41.283 22.6284H51.3255V19.3274H41.2232C36.7997 19.3274 34.2227 22.0307 34.2227 26.308V33.3285H37.6233V27.9087H50.203V24.7671Z" fill="#175D63"/>
</svg>
