<svg width="156" height="34" viewBox="0 0 156 34" fill="none" xmlns="http://www.w3.org/2000/svg">
<path fill-rule="evenodd" clip-rule="evenodd" d="M1.15028 18.2984H11.3385L11.3385 22.5709H3.5741L4.37861 24.2723C4.46078 24.4726 4.60114 24.6985 4.64222 24.8714H11.3385L11.3385 32.5948C11.3385 32.7334 12.2851 33.1374 12.4494 33.2093L13.6408 33.7433L13.6408 15.9961H0C0.0393699 16.1621 0.191714 16.4189 0.273877 16.5849L0.958571 18.0365C1.01848 18.1683 1.01677 18.2967 1.15028 18.2967V18.2984Z" fill="#175D63"/>
<path fill-rule="evenodd" clip-rule="evenodd" d="M14.791 33.7448L16.5644 32.9283C16.6945 32.8752 17.0933 32.7383 17.0933 32.5945L17.0933 24.8712H23.7896C23.8187 24.7428 23.8598 24.688 23.9128 24.5836C23.9625 24.486 23.9916 24.397 24.0361 24.296L24.8577 22.5706H17.0933V18.2981H27.2815C27.4168 18.2981 27.4031 18.1971 27.4613 18.067L28.2966 16.3142C28.3565 16.1944 28.3822 16.1054 28.4335 15.9993H14.7944L14.7944 33.7465L14.791 33.7448Z" fill="#175D63"/>
<path fill-rule="evenodd" clip-rule="evenodd" d="M10.0719 0.181458C9.94865 0.710383 9.17324 2.0986 9.08594 3.13933C10.8627 2.19959 9.79288 2.41698 11.8384 2.89284L10.2362 6.5491C10.1438 6.73911 10.0616 6.93596 9.97262 7.14821C9.89216 7.33992 9.74667 7.59497 9.70216 7.78155L14.0055 12.1054L18.3601 7.77128C18.1222 7.40497 18.0126 7.14479 17.8346 6.83839C17.3296 5.96712 16.6946 4.69187 16.217 3.89592L15.6727 2.92023C15.5991 2.78329 15.5648 2.69942 15.4861 2.57104C14.8562 1.53544 15.1438 1.69976 14.2297 0.785699C13.4149 -0.0290855 13.6289 -0.0342207 12.9904 0.018843L10.0719 0.181458Z" fill="#175D63"/>
<path fill-rule="evenodd" clip-rule="evenodd" d="M2.09931 14.9303H8.05614C10.0863 14.9303 12.0137 14.9714 14.013 14.9714C16.0123 14.9714 17.9106 14.9303 19.9287 14.9303H25.9266C26.0276 14.7386 26.0892 14.5811 26.1868 14.3689L26.9948 12.6298H1.07227C1.09281 12.866 1.69362 14.0077 1.82885 14.3381C1.91101 14.5401 2.0548 14.7386 2.09931 14.9303Z" fill="#175D63"/>
<path fill-rule="evenodd" clip-rule="evenodd" d="M15.8594 11.6019H24.1579C24.2623 11.405 25.1729 9.52898 25.226 9.30132H18.694C18.3157 9.30132 18.201 9.24483 18.0435 9.39033L15.8594 11.6019Z" fill="#175D63"/>
<path fill-rule="evenodd" clip-rule="evenodd" d="M3.865 11.6018H12.1635L9.99985 9.41082C9.8321 9.24307 9.76705 9.29956 9.36993 9.30127H2.79688C2.83796 9.47416 2.9749 9.68983 3.05706 9.86272C3.15976 10.0767 3.22994 10.253 3.33094 10.4516L3.865 11.6018Z" fill="#175D63"/>
<path fill-rule="evenodd" clip-rule="evenodd" d="M154.055 0.424729H150.734V8.64736C150.734 8.84662 150.754 9.1455 150.794 9.57058L150.176 8.90639C146.676 5.10725 142.512 1.86601 138.028 0.424729H135.086V14.4324H138.407V5.02754C138.407 4.88806 138.387 4.54933 138.347 4.05119C138.686 4.17075 139.005 4.31022 139.27 4.38992C142.91 5.77143 146.61 9.19199 150.455 14.4324H154.055V0.424729ZM120.946 0.424729C116.522 0.424729 113.945 3.12796 113.945 7.40533V14.4258H125.548C129.992 14.4258 132.529 11.8222 132.529 7.46511V0.424729H120.946ZM129.128 7.40533C129.128 10.3078 128.205 11.1049 125.469 11.1049H117.346V7.46511C117.346 4.58254 118.209 3.72574 121.012 3.72574H129.135V7.40533H129.128ZM111.899 11.1115H97.8186V7.47175C97.8186 4.96777 99.0407 3.73238 101.478 3.73238H111.899V0.431367H101.418C96.9552 0.431367 94.418 3.02834 94.418 7.41197V14.4324H111.899V11.1115ZM75.2296 0.424729V14.4324H85.9961C89.7753 14.4324 92.2793 12.5926 92.8771 9.01266H89.3569C88.8786 10.4141 87.7362 11.1115 85.9363 11.1115H78.6369V0.424729H75.2363H75.2296ZM72.6127 0.424729H61.368C56.9313 0.424729 54.3874 3.0217 54.3874 7.40533V14.4258H57.7881V9.00602H69.1922V14.4258H72.6127V0.418091V0.424729ZM69.1855 5.92419H58.0006C58.2796 4.62239 58.9371 3.72574 63.0219 3.72574H69.1855V5.92419ZM51.8436 5.86442H39.4432C39.8617 4.48291 40.8447 3.72574 42.9236 3.72574H52.9661V0.424729H42.8638C38.4403 0.424729 35.8633 3.12796 35.8633 7.40533V14.4258H39.2639V9.00602H51.8502V5.86442H51.8436Z" fill="#175D63"/>
<path fill-rule="evenodd" clip-rule="evenodd" d="M155.636 19.3274H144.916C140.659 19.3274 138.533 21.3067 138.533 25.2254V27.9087H152.435C152.215 29.2703 151.438 30.0076 150.057 30.0076H138.533V33.3285H149.333C153.577 33.3285 155.696 31.3492 155.696 27.4305V24.7671H141.774C141.954 23.3258 142.757 22.6284 144.179 22.6284H155.643V19.3274H155.636ZM136.109 19.3274H125.389C121.131 19.3274 119.006 21.3067 119.006 25.2254V27.9087H132.908C132.688 29.2703 131.911 30.0076 130.53 30.0076H119.006V33.3285H129.812C134.057 33.3285 136.175 31.3492 136.175 27.4305V24.7671H122.254C122.433 23.3258 123.23 22.6284 124.652 22.6284H136.116V19.3274H136.109ZM117.08 19.3274H99.3129V26.3678C99.3129 30.6452 101.97 33.3285 106.313 33.3285H117.073V30.0076H106.373C104.294 30.0076 103.311 29.2703 102.893 27.9087H116.715V24.7671H102.714V22.6284H117.073V19.3274H117.08ZM96.8156 19.3274H93.4947V27.5501C93.4947 27.7493 93.5146 28.0482 93.5544 28.4733L92.9368 27.8091C89.4365 24.01 85.272 20.7687 80.7954 19.3274H77.8531V33.3285H81.174V23.9236C81.174 23.7841 81.1541 23.4454 81.1142 22.9406C81.453 23.0602 81.7784 23.1997 82.0375 23.2794C85.6772 24.6609 89.3834 28.0814 93.2224 33.3219H96.8222V19.3208L96.8156 19.3274ZM75.9668 19.3274H64.3037C60.4846 19.3274 58.4455 21.1274 58.14 24.7671H61.3613C61.4809 23.3258 62.2845 22.6284 63.7657 22.6284H66.1235V33.3285H69.5242V22.6284H75.9668V19.3274ZM56.267 19.3274H52.8664V33.3285H56.267V19.3274ZM50.203 24.7671H37.8026C38.2211 23.3856 39.2041 22.6284 41.283 22.6284H51.3255V19.3274H41.2232C36.7997 19.3274 34.2227 22.0307 34.2227 26.308V33.3285H37.6233V27.9087H50.203V24.7671Z" fill="#175D63"/>
</svg>
