<svg width="131" height="25" viewBox="0 0 131 25" fill="none" xmlns="http://www.w3.org/2000/svg">
<path d="M124.185 19.9891C123.159 19.9891 122.281 19.8103 121.55 19.4527C120.835 19.0796 120.252 18.5977 119.802 18.007C119.351 17.4007 119.017 16.74 118.799 16.0249C118.581 15.3098 118.472 14.6102 118.472 13.9262C118.472 13.0712 118.573 12.2784 118.776 11.5477C118.993 10.8171 119.327 10.1797 119.778 9.63561C120.229 9.07597 120.812 8.64069 121.527 8.32977C122.258 8.01886 123.144 7.8634 124.185 7.8634C125.351 7.8634 126.401 8.11991 127.333 8.63292C128.266 9.14592 129.005 9.86103 129.549 10.7782C130.108 11.6799 130.388 12.7292 130.388 13.9262C130.388 15.1543 130.108 16.227 129.549 17.1442C128.989 18.0458 128.243 18.7454 127.31 19.2429C126.377 19.7403 125.336 19.9891 124.185 19.9891ZM123.206 17.6339C124.03 17.6339 124.745 17.4784 125.351 17.1675C125.973 16.8566 126.447 16.4291 126.774 15.885C127.116 15.3253 127.287 14.6724 127.287 13.9262C127.287 12.8069 126.929 11.9053 126.214 11.2213C125.515 10.5373 124.512 10.1953 123.206 10.1953C122.382 10.1953 121.628 10.3429 120.944 10.6383C120.276 10.9337 119.747 11.3612 119.359 11.9208C118.97 12.4649 118.776 13.1334 118.776 13.9262C118.776 14.6724 118.954 15.3253 119.312 15.885C119.669 16.4291 120.182 16.8566 120.851 17.1675C121.519 17.4784 122.304 17.6339 123.206 17.6339ZM115.744 8.11991H118.636L118.776 11.198V24.373H115.744V8.11991Z" fill="#175D63"/>
<path d="M106.39 19.9892C104.929 19.9892 103.638 19.756 102.519 19.2896C101.415 18.8233 100.553 18.147 99.9308 17.2609C99.309 16.3593 98.998 15.2555 98.998 13.9497C98.998 12.6438 99.309 11.5401 99.9308 10.6384C100.553 9.72124 101.415 9.02945 102.519 8.56308C103.638 8.09671 104.929 7.86353 106.39 7.86353C107.851 7.86353 109.126 8.09671 110.214 8.56308C111.318 9.02945 112.181 9.72124 112.803 10.6384C113.424 11.5401 113.735 12.6438 113.735 13.9497C113.735 15.2555 113.424 16.3593 112.803 17.2609C112.181 18.147 111.318 18.8233 110.214 19.2896C109.126 19.756 107.851 19.9892 106.39 19.9892ZM106.39 17.6573C107.198 17.6573 107.921 17.5174 108.559 17.2376C109.212 16.9422 109.725 16.5225 110.098 15.9784C110.471 15.4187 110.657 14.7425 110.657 13.9497C110.657 13.1568 110.471 12.4806 110.098 11.921C109.725 11.3458 109.219 10.9105 108.582 10.6151C107.945 10.3197 107.214 10.1721 106.39 10.1721C105.582 10.1721 104.851 10.3197 104.198 10.6151C103.545 10.9105 103.024 11.338 102.636 11.8976C102.263 12.4573 102.076 13.1413 102.076 13.9497C102.076 14.7425 102.263 15.4187 102.636 15.9784C103.009 16.5225 103.522 16.9422 104.175 17.2376C104.828 17.5174 105.566 17.6573 106.39 17.6573Z" fill="#175D63"/>
<path d="M91.3612 19.9892C90.3352 19.9892 89.4569 19.8104 88.7262 19.4529C88.0111 19.0798 87.4282 18.5978 86.9774 18.0071C86.5265 17.4008 86.1923 16.7401 85.9747 16.025C85.757 15.3099 85.6482 14.6104 85.6482 13.9264C85.6482 13.0713 85.7492 12.2785 85.9513 11.5479C86.169 10.8172 86.5032 10.1798 86.954 9.63574C87.4049 9.07609 87.9878 8.64081 88.7029 8.3299C89.4336 8.01898 90.3197 7.86353 91.3612 7.86353C92.5272 7.86353 93.5765 8.12003 94.5093 8.63304C95.442 9.14605 96.1804 9.86115 96.7245 10.7783C97.2842 11.68 97.564 12.7293 97.564 13.9264C97.564 15.1545 97.2842 16.2271 96.7245 17.1443C96.1649 18.046 95.4187 18.7455 94.4859 19.243C93.5532 19.7405 92.5116 19.9892 91.3612 19.9892ZM90.3819 17.634C91.2058 17.634 91.9209 17.4785 92.5272 17.1676C93.149 16.8567 93.6231 16.4292 93.9496 15.8851C94.2916 15.3255 94.4626 14.6725 94.4626 13.9264C94.4626 12.8071 94.1051 11.9054 93.39 11.2214C92.6904 10.5374 91.6877 10.1954 90.3819 10.1954C89.5579 10.1954 88.804 10.3431 88.12 10.6384C87.4515 10.9338 86.9229 11.3613 86.5343 11.921C86.1457 12.4651 85.9513 13.1335 85.9513 13.9264C85.9513 14.6725 86.1301 15.3255 86.4877 15.8851C86.8452 16.4292 87.3582 16.8567 88.0267 17.1676C88.6952 17.4785 89.4802 17.634 90.3819 17.634ZM82.9199 8.12003H85.8114L85.9513 11.1981V24.3731H82.9199V8.12003Z" fill="#175D63"/>
<path d="M71.9449 19.9661C70.7945 19.9661 69.7452 19.7174 68.7969 19.2199C67.8642 18.7069 67.118 17.9996 66.5583 17.0979C66.0142 16.1807 65.7422 15.1236 65.7422 13.9266C65.7422 12.6985 66.022 11.6336 66.5817 10.732C67.1413 9.8303 67.8953 9.13075 68.8436 8.63328C69.8074 8.12027 70.8956 7.86377 72.1082 7.86377C73.4451 7.86377 74.5177 8.13582 75.3261 8.67992C76.15 9.20847 76.7485 9.93135 77.1216 10.8485C77.4947 11.7657 77.6813 12.7918 77.6813 13.9266C77.6813 14.6106 77.5725 15.3102 77.3548 16.0253C77.1372 16.7248 76.803 17.3777 76.3521 17.984C75.9013 18.5748 75.3106 19.0567 74.5799 19.4298C73.8493 19.7873 72.9709 19.9661 71.9449 19.9661ZM72.9243 17.6343C73.8415 17.6343 74.6343 17.4788 75.3028 17.1679C75.9713 16.857 76.4843 16.4217 76.8418 15.862C77.1994 15.3024 77.3782 14.6572 77.3782 13.9266C77.3782 13.1338 77.1916 12.4653 76.8185 11.9212C76.461 11.3616 75.9479 10.9418 75.2795 10.662C74.6266 10.3666 73.8415 10.2189 72.9243 10.2189C71.634 10.2189 70.6313 10.561 69.9162 11.245C69.2011 11.9134 68.8436 12.8073 68.8436 13.9266C68.8436 14.6728 69.0146 15.3257 69.3566 15.8854C69.6986 16.4295 70.1727 16.857 70.779 17.1679C71.4008 17.4788 72.1159 17.6343 72.9243 17.6343ZM77.3782 8.12027H80.4096V19.7096H77.588C77.588 19.7096 77.5647 19.5619 77.5181 19.2666C77.487 18.9556 77.4559 18.567 77.4248 18.1006C77.3937 17.6343 77.3782 17.1757 77.3782 16.7248V8.12027Z" fill="#175D63"/>
<path d="M55.7656 8.12006H64.7666V10.4752H55.7656V8.12006ZM58.7504 4.94873H61.7818V19.7094H58.7504V4.94873Z" fill="#175D63"/>
<path d="M43.1835 15.8617H45.9818C46.1528 16.3902 46.5025 16.8255 47.0311 17.1675C47.5752 17.494 48.2825 17.6572 49.1531 17.6572C49.7438 17.6572 50.2024 17.6028 50.5289 17.494C50.8553 17.3852 51.0808 17.2297 51.2051 17.0276C51.3295 16.81 51.3917 16.569 51.3917 16.3047C51.3917 15.9783 51.2906 15.7295 51.0885 15.5585C50.8864 15.372 50.5755 15.2243 50.1558 15.1155C49.7361 15.0067 49.1997 14.9056 48.5468 14.8123C47.8939 14.7035 47.2643 14.5714 46.658 14.4159C46.0517 14.2605 45.5154 14.0584 45.049 13.8096C44.5826 13.5454 44.2096 13.2189 43.9297 12.8303C43.6655 12.4261 43.5333 11.9364 43.5333 11.3612C43.5333 10.8015 43.6655 10.3041 43.9297 9.8688C44.2096 9.43352 44.5904 9.0682 45.0723 8.77283C45.5698 8.47746 46.145 8.25205 46.7979 8.09659C47.4664 7.94113 48.1815 7.8634 48.9432 7.8634C50.0936 7.8634 51.0497 8.03441 51.8114 8.37641C52.5731 8.70287 53.1406 9.16924 53.5137 9.77553C53.9023 10.3663 54.0966 11.0503 54.0966 11.8276H51.415C51.2906 11.2524 51.0419 10.8404 50.6688 10.5917C50.2957 10.3274 49.7205 10.1953 48.9432 10.1953C48.1815 10.1953 47.6063 10.3119 47.2176 10.545C46.829 10.7782 46.6347 11.0969 46.6347 11.5011C46.6347 11.8276 46.7513 12.0841 46.9845 12.2706C47.2332 12.4416 47.5907 12.5815 48.0571 12.6903C48.539 12.7992 49.1375 12.9158 49.8526 13.0401C50.4589 13.1645 51.0341 13.3044 51.5782 13.4599C52.1379 13.6153 52.6353 13.8174 53.0706 14.0661C53.5059 14.2993 53.8479 14.618 54.0966 15.0222C54.3609 15.4108 54.493 15.9083 54.493 16.5146C54.493 17.2608 54.2754 17.8904 53.8401 18.4034C53.4204 18.9164 52.8141 19.3128 52.0213 19.5926C51.2284 19.8569 50.2802 19.9891 49.1764 19.9891C48.197 19.9891 47.3498 19.888 46.6347 19.6859C45.9351 19.4683 45.3522 19.1962 44.8858 18.8698C44.4194 18.5278 44.0541 18.1702 43.7898 17.7971C43.5411 17.4085 43.3701 17.0431 43.2768 16.7011C43.1835 16.3591 43.1524 16.0793 43.1835 15.8617Z" fill="#175D63"/>
<path d="M27.7168 8.11991H30.7482L30.7482 19.7092H27.7168L27.7168 8.11991ZM36.1348 7.8634C36.8499 7.8634 37.5106 7.95668 38.1169 8.14323C38.7232 8.32977 39.2517 8.61737 39.7025 9.00601C40.1534 9.39466 40.5031 9.89212 40.7519 10.4984C41.0006 11.0891 41.125 11.7965 41.125 12.6204V19.7092H38.0936V13.1567C38.0936 12.1773 37.8526 11.4622 37.3707 11.0114C36.9043 10.545 36.1348 10.3119 35.0621 10.3119C34.2538 10.3119 33.5231 10.4673 32.8702 10.7782C32.2173 11.0891 31.6887 11.4856 31.2845 11.9675C30.8803 12.4338 30.6472 12.9235 30.585 13.4365L30.5617 12.2473C30.6394 11.7032 30.8182 11.1746 31.098 10.6616C31.3778 10.1486 31.7509 9.68225 32.2173 9.26252C32.6992 8.82724 33.2666 8.48523 33.9195 8.2365C34.5725 7.98777 35.3109 7.8634 36.1348 7.8634Z" fill="#175D63"/>
<path d="M25.1852 3.03638V5.69469H21.6641V3.03638H25.1852ZM21.8972 8.11983H24.9287L24.9287 19.7092H21.8972L21.8972 8.11983Z" fill="#175D63"/>
<path d="M10.8355 1.19946C10.9379 0.76272 10.7435 0.308491 10.3672 0.10466C9.99069 -0.0991649 9.53219 0.00153703 9.26191 0.347382L0.20982 11.9309C-0.0150339 12.2186 -0.0635081 12.6191 0.0854708 12.9584C0.23445 13.2974 0.55398 13.5142 0.90522 13.5142C0.90522 13.5142 3.82201 13.5142 5.61582 13.5142C6.31082 13.5142 6.82491 14.2077 6.65716 14.9231C6.20759 16.8409 5.45828 20.0371 5.45828 20.0371C5.35591 20.4738 5.55023 20.9281 5.92662 21.1318C6.30307 21.3357 6.76162 21.235 7.03185 20.8892L16.0839 9.30565C16.3088 9.01795 16.3573 8.61746 16.2083 8.27826C16.0593 7.93907 15.7398 7.72241 15.3885 7.72241C15.3885 7.72241 12.4717 7.72241 10.6779 7.72241C9.98294 7.72241 9.46885 7.02888 9.63659 6.31347C10.0862 4.3957 10.8355 1.19946 10.8355 1.19946Z" fill="#175D63"/>
<path d="M9.54883 0.571289C9.71367 0.360533 9.97925 0.309135 10.1934 0.424805C10.4157 0.545245 10.5478 0.828725 10.4805 1.11621V1.11816C10.4801 1.11971 10.4792 1.12292 10.4785 1.12598C10.4771 1.13201 10.4753 1.14089 10.4727 1.15234C10.4671 1.17622 10.4579 1.21224 10.4473 1.25781C10.4259 1.34892 10.395 1.48106 10.3564 1.64551C10.2792 1.97512 10.1716 2.43472 10.0498 2.9541C9.80627 3.99288 9.50701 5.27158 9.28223 6.23047C9.06697 7.14875 9.72236 8.08678 10.6777 8.08691H15.3887C15.5854 8.08698 15.7801 8.20867 15.875 8.4248C15.9709 8.64337 15.9375 8.90095 15.7969 9.08105L6.74512 20.665C6.58033 20.8759 6.31469 20.9273 6.10059 20.8115H6.09961C5.87749 20.6911 5.74612 20.4074 5.81348 20.1201V20.1182C5.81383 20.1167 5.81474 20.1143 5.81543 20.1113C5.81686 20.1052 5.8185 20.0959 5.82129 20.084C5.82687 20.0602 5.83506 20.0249 5.8457 19.9795C5.86707 19.8883 5.89886 19.7556 5.9375 19.5908C6.01477 19.2612 6.1224 18.8015 6.24414 18.2822C6.48765 17.2435 6.78695 15.9647 7.01172 15.0059C7.22677 14.0878 6.5714 13.1497 5.61621 13.1494H0.905273L0.832031 13.1445C0.661602 13.1183 0.50209 13.0008 0.418945 12.8115C0.323068 12.5929 0.35633 12.3354 0.49707 12.1553L9.54883 0.571289Z" stroke="white" stroke-opacity="0.2" stroke-width="0.728705"/>
</svg>
