<svg width="132" height="44" viewBox="0 0 132 44" fill="none" xmlns="http://www.w3.org/2000/svg">
<g clip-path="url(#clip0_970_885)">
<path d="M34.7441 15.8623V13.3377H35.6255C36.2669 13.3377 36.7769 13.1533 37.1589 12.7827C37.5392 12.412 37.7293 11.9179 37.7293 11.2983V0.820312H40.4746V11.1981C40.4746 12.1273 40.2774 12.942 39.8829 13.6403C39.4885 14.3404 38.927 14.8865 38.2002 15.2751C37.4717 15.6654 36.6134 15.8605 35.6255 15.8605H34.7441V15.8623Z" fill="#175D63"/>
<path d="M46.3881 16.1058C45.6258 16.1058 44.9613 15.9769 44.3944 15.7227C43.8258 15.4666 43.3887 15.0996 43.0813 14.6215C42.7739 14.1434 42.6211 13.5884 42.6211 12.9563C42.6211 12.3243 42.7579 11.8086 43.0316 11.3306C43.3052 10.8525 43.7228 10.4514 44.2843 10.1291C44.8458 9.80684 45.553 9.57766 46.4077 9.44337L49.9543 8.85787V10.8776L46.9087 11.4219C46.3881 11.5168 46.0008 11.6815 45.7467 11.9161C45.4926 12.1524 45.3664 12.4639 45.3664 12.8543C45.3664 13.2446 45.5103 13.5311 45.7964 13.7531C46.0843 13.9751 46.4414 14.0861 46.8679 14.0861C47.4152 14.0861 47.9003 13.968 48.3214 13.7334C48.7425 13.4989 49.0659 13.1712 49.2933 12.754C49.5208 12.3368 49.6345 11.8856 49.6345 11.4004V8.55349C49.6345 8.08259 49.455 7.68867 49.0943 7.37175C48.7336 7.05484 48.2521 6.89727 47.6515 6.89727C47.09 6.89727 46.5925 7.05305 46.1589 7.36101C45.7253 7.67077 45.4073 8.06826 45.2065 8.5517L43.0618 7.50246C43.275 6.92413 43.6126 6.42279 44.0728 5.99844C44.533 5.57409 45.0785 5.24105 45.7058 4.99934C46.333 4.75762 47.0154 4.63586 47.7492 4.63586C48.6448 4.63586 49.4319 4.80059 50.1143 5.13004C50.7948 5.4595 51.3261 5.92145 51.7064 6.51231C52.0866 7.10497 52.2767 7.78357 52.2767 8.5517V15.8605H49.7927V13.9823L50.3542 13.9626C50.0734 14.421 49.7358 14.8113 49.3413 15.1336C48.9468 15.4559 48.5062 15.6994 48.0193 15.8605C47.5307 16.0217 46.9869 16.1023 46.3863 16.1023L46.3881 16.1058Z" fill="#175D63"/>
<path d="M54.6836 15.8624V0.578613H57.3294V15.8641H54.6836V15.8624Z" fill="#175D63"/>
<path d="M64.8225 16.1059C63.767 16.1059 62.8217 15.8534 61.9866 15.3485C61.1514 14.8436 60.494 14.1542 60.0124 13.2787C59.5309 12.4031 59.291 11.4344 59.291 10.3709C59.291 9.30732 59.5344 8.32433 60.0231 7.4631C60.51 6.60187 61.1692 5.91611 61.9972 5.40402C62.8253 4.89194 63.7599 4.6359 64.8029 4.6359C65.631 4.6359 66.3684 4.80062 67.017 5.13007C67.6655 5.45953 68.1755 5.92148 68.5504 6.51234L68.1488 7.05666V0.578613H70.7733V15.8641H68.2892V13.7442L68.57 14.2688C68.195 14.874 67.6744 15.3324 67.0063 15.6421C66.3382 15.9519 65.6097 16.1059 64.8225 16.1059ZM65.1032 13.6833C65.6914 13.6833 66.2156 13.5419 66.6758 13.259C67.136 12.9761 67.4967 12.5857 67.7579 12.088C68.0191 11.5902 68.1488 11.0173 68.1488 10.3709C68.1488 9.72451 68.0191 9.17303 67.7579 8.67527C67.4967 8.17751 67.136 7.78718 66.6758 7.50428C66.2156 7.22138 65.6896 7.07993 65.1032 7.07993C64.5169 7.07993 63.9874 7.22138 63.52 7.50428C63.0527 7.78718 62.6884 8.17751 62.4272 8.67527C62.166 9.17303 62.0363 9.73883 62.0363 10.3709C62.0363 11.0029 62.166 11.5884 62.4272 12.088C62.6884 12.5857 63.0509 12.9761 63.52 13.259C63.9874 13.5419 64.5151 13.6833 65.1032 13.6833Z" fill="#175D63"/>
<path d="M73.1973 15.8624V0.578613H75.8431V7.04054L75.4824 6.65737C75.7365 5.99847 76.154 5.49713 76.7351 5.15335C77.3161 4.80957 77.9931 4.63769 78.7696 4.63769C79.5461 4.63769 80.2818 4.81316 80.9037 5.1623C81.5256 5.51324 82.0089 6.00026 82.3572 6.62694C82.7037 7.25361 82.8778 7.97698 82.8778 8.79703V15.8641H80.2533V9.4237C80.2533 8.93848 80.1591 8.52129 79.9726 8.17214C79.786 7.82299 79.5283 7.55263 79.2014 7.36462C78.8745 7.17662 78.4906 7.08172 78.05 7.08172C77.6093 7.08172 77.2415 7.17662 76.9074 7.36462C76.5734 7.55263 76.3122 7.82299 76.1256 8.17214C75.939 8.52308 75.8448 8.94027 75.8448 9.4237V15.8641H73.199L73.1973 15.8624Z" fill="#175D63"/>
<path d="M88.4076 16.1057C87.6454 16.1057 86.9808 15.9767 86.414 15.7225C85.8454 15.4664 85.4082 15.0994 85.1008 14.6213C84.7934 14.1433 84.6406 13.5882 84.6406 12.9562C84.6406 12.3241 84.7774 11.8084 85.0511 11.3304C85.3247 10.8523 85.7423 10.4512 86.3038 10.1289C86.8653 9.80666 87.5725 9.57747 88.4272 9.44319L91.9739 8.85769V10.8774L88.9283 11.4217C88.4076 11.5166 88.0203 11.6813 87.7662 11.9159C87.5121 12.1522 87.3859 12.4638 87.3859 12.8541C87.3859 13.2444 87.5299 13.5309 87.8159 13.7529C88.1038 13.975 88.461 14.086 88.8874 14.086C89.4347 14.086 89.9198 13.9678 90.3409 13.7332C90.762 13.4987 91.0854 13.171 91.3129 12.7538C91.5403 12.3366 91.654 11.8854 91.654 11.4002V8.5533C91.654 8.0824 91.4746 7.68849 91.1139 7.37157C90.7531 7.05465 90.2716 6.89709 89.671 6.89709C89.1095 6.89709 88.612 7.05286 88.1784 7.36083C87.7449 7.67059 87.4268 8.06808 87.226 8.55151L85.0813 7.50228C85.2945 6.92395 85.6321 6.4226 86.0923 5.99826C86.5526 5.57391 87.0981 5.24087 87.7253 4.99915C88.3526 4.75744 89.0349 4.63568 89.7687 4.63568C90.6643 4.63568 91.4515 4.80041 92.1338 5.12986C92.8144 5.45931 93.3456 5.92126 93.7259 6.51213C94.1061 7.10479 94.2963 7.78339 94.2963 8.55151V15.8604H91.8122V13.9821L92.3737 13.9624C92.0929 14.4208 91.7553 14.8111 91.3608 15.1334C90.9664 15.4557 90.5257 15.6992 90.0388 15.8604C89.5502 16.0215 89.0065 16.1021 88.4059 16.1021L88.4076 16.1057Z" fill="#175D63"/>
<path d="M96.707 15.8624V4.87949H99.1911V7.32352L98.9904 6.96005C99.2444 6.14 99.6425 5.56704 100.183 5.24475C100.723 4.92246 101.375 4.75952 102.137 4.75952H102.779V7.1212H101.837C101.089 7.1212 100.488 7.35038 100.033 7.80696C99.5785 8.26354 99.3528 8.9117 99.3528 9.74608V15.8642H96.707V15.8624Z" fill="#175D63"/>
<path d="M107.521 16.1055C106.759 16.1055 106.094 15.9766 105.527 15.7224C104.959 15.4663 104.522 15.0993 104.214 14.6212C103.907 14.1431 103.754 13.5881 103.754 12.956C103.754 12.324 103.891 11.8083 104.164 11.3303C104.438 10.8522 104.856 10.4511 105.417 10.1288C105.979 9.80654 106.686 9.57735 107.54 9.44306L111.087 8.85757V10.8773L108.042 11.4216C107.521 11.5165 107.134 11.6812 106.879 11.9158C106.625 12.1521 106.499 12.4636 106.499 12.854C106.499 13.2443 106.643 13.5308 106.929 13.7528C107.217 13.9748 107.574 14.0858 108.001 14.0858C108.548 14.0858 109.033 13.9677 109.454 13.7331C109.875 13.4986 110.199 13.1709 110.426 12.7537C110.654 12.3365 110.767 11.8853 110.767 11.4001V8.55318C110.767 8.08228 110.588 7.68837 110.227 7.37145C109.866 7.05453 109.385 6.89697 108.784 6.89697C108.223 6.89697 107.725 7.05274 107.292 7.36071C106.858 7.67046 106.54 8.06796 106.339 8.55139L104.195 7.50216C104.408 6.92382 104.745 6.42248 105.206 5.99813C105.666 5.57378 106.211 5.24075 106.839 4.99903C107.466 4.75731 108.148 4.63556 108.882 4.63556C109.778 4.63556 110.565 4.80029 111.247 5.12974C111.928 5.45919 112.459 5.92114 112.839 6.51201C113.219 7.10466 113.41 7.78327 113.41 8.55139V15.8602H110.925V13.982L111.487 13.9623C111.206 14.4207 110.869 14.811 110.474 15.1333C110.08 15.4556 109.639 15.6991 109.152 15.8602C108.663 16.0214 108.12 16.1019 107.519 16.1019L107.521 16.1055Z" fill="#175D63"/>
<path d="M34.7441 39.2803V24.2383H40.3343C41.3489 24.2383 42.248 24.4227 43.0298 24.7933C43.8116 25.164 44.4229 25.7011 44.8636 26.4084C45.3042 27.1156 45.5246 27.9804 45.5246 29.0028C45.5246 30.0252 45.3007 30.8506 44.8529 31.5579C44.4051 32.2651 43.7939 32.8023 43.0191 33.1729C42.2444 33.5435 41.3489 33.728 40.3343 33.728H37.4894V39.2803H34.7441ZM37.4894 31.3054H40.3751C40.8567 31.3054 41.2778 31.2087 41.6367 31.0136C41.9974 30.8184 42.2817 30.5462 42.4879 30.1953C42.6958 29.8461 42.7988 29.4415 42.7988 28.9831C42.7988 28.5247 42.6958 28.104 42.4879 27.762C42.28 27.4182 41.9974 27.1496 41.6367 26.9545C41.276 26.7593 40.8549 26.6608 40.3751 26.6608H37.4894V31.3054Z" fill="#175D63"/>
<path d="M52.4393 39.5239C51.3839 39.5239 50.419 39.2751 49.543 38.7773C48.6688 38.2795 47.9704 37.5992 47.4498 36.7379C46.9292 35.8767 46.668 34.8937 46.668 33.7908C46.668 32.6878 46.9292 31.7048 47.4498 30.8436C47.9704 29.9823 48.6652 29.302 49.5341 28.8042C50.403 28.3064 51.3714 28.0576 52.4393 28.0576C53.5072 28.0576 54.497 28.3064 55.3641 28.8042C56.233 29.302 56.9242 29.9788 57.4377 30.8328C57.9513 31.6869 58.2089 32.6735 58.2089 33.7908C58.2089 34.908 57.9477 35.8767 57.4271 36.7379C56.9065 37.5992 56.2117 38.2795 55.3428 38.7773C54.4739 39.2751 53.5055 39.5239 52.4376 39.5239H52.4393ZM52.4393 37.1014C53.0399 37.1014 53.5641 36.9599 54.0119 36.677C54.4597 36.3941 54.8133 36.0002 55.0745 35.4953C55.3357 34.9904 55.4654 34.4228 55.4654 33.789C55.4654 33.1551 55.3357 32.5911 55.0745 32.0934C54.8133 31.5956 54.4597 31.2053 54.0119 30.9224C53.5641 30.6395 53.0399 30.498 52.4393 30.498C51.8387 30.498 51.3305 30.6395 50.8757 30.9224C50.4208 31.2053 50.0636 31.5956 49.8042 32.0934C49.543 32.5911 49.4133 33.1569 49.4133 33.789C49.4133 34.421 49.543 34.9904 49.8042 35.4953C50.0654 36.0002 50.4226 36.3941 50.8757 36.677C51.3288 36.9599 51.8512 37.1014 52.4393 37.1014Z" fill="#175D63"/>
<path d="M60.1758 39.2805V23.9949H62.8216V39.2805H60.1758Z" fill="#175D63"/>
<path d="M66.5644 43.7222C66.2694 43.7222 65.9834 43.6989 65.7026 43.6524C65.4219 43.6058 65.1678 43.5217 64.9403 43.3999V41.1994C65.1145 41.2406 65.3241 41.2799 65.5711 41.3211C65.8181 41.3623 66.0491 41.382 66.2623 41.382C66.8629 41.382 67.3 41.2441 67.5755 40.9684C67.8491 40.6927 68.0925 40.3256 68.3076 39.8672L69.029 38.1716L68.9899 40.3919L64.2402 28.297H67.0655L70.3919 37.2209H69.3897L72.6965 28.297H75.5413L70.7917 40.3919C70.5109 41.0919 70.1697 41.6935 69.7699 42.1985C69.3701 42.7034 68.9046 43.083 68.3769 43.339C67.8491 43.5951 67.245 43.7222 66.5626 43.7222H66.5644Z" fill="#175D63"/>
<path d="M81.9549 39.4024C80.7253 39.4024 79.7711 39.0622 79.0888 38.3818C78.4083 37.7032 78.0671 36.7435 78.0671 35.5044V30.6575H76.2031V28.2959H76.4039C76.9388 28.2959 77.3492 28.1544 77.6371 27.8715C77.9249 27.5886 78.0671 27.1786 78.0671 26.6397V25.791H80.7129V28.2941H83.2183V30.6558H80.7129V35.3612C80.7129 35.7247 80.7769 36.0344 80.903 36.2905C81.0292 36.5465 81.23 36.7417 81.5036 36.876C81.7773 37.0103 82.1273 37.0783 82.5555 37.0783C82.6497 37.0783 82.7599 37.0711 82.886 37.0586C83.0122 37.0461 83.1366 37.0317 83.2574 37.0174V39.2788C83.0708 39.3057 82.8558 39.3325 82.6159 39.3594C82.3761 39.3863 82.1557 39.4006 81.9549 39.4006V39.4024Z" fill="#175D63"/>
<path d="M89.149 39.5236C88.2944 39.5236 87.5587 39.3356 86.9439 38.9578C86.3291 38.5818 85.8547 38.0554 85.5206 37.3821C85.1866 36.7089 85.0195 35.9211 85.0195 35.0205V28.2971H87.6653V34.7984C87.6653 35.2568 87.756 35.6561 87.9354 35.9999C88.1167 36.3436 88.3761 36.6122 88.7173 36.8074C89.0584 37.0026 89.4422 37.0992 89.8687 37.0992C90.2951 37.0992 90.6772 37.0026 91.0112 36.8074C91.3453 36.6122 91.6047 36.3401 91.7931 35.9891C91.9796 35.64 92.0738 35.221 92.0738 34.7376V28.2971H94.6983V39.2819H92.2142V37.1207L92.415 37.5039C92.1609 38.1771 91.7469 38.682 91.1729 39.0187C90.599 39.3553 89.9238 39.5236 89.149 39.5236Z" fill="#175D63"/>
<path d="M103.095 39.5241C102.306 39.5241 101.583 39.3684 100.92 39.0604C100.259 38.7506 99.7353 38.2923 99.3479 37.6871L99.6091 37.1625V39.2824H97.125V23.9969H99.7708V30.4785L99.3692 29.9342C99.7424 29.3415 100.251 28.8814 100.892 28.5519C101.533 28.2225 102.274 28.0577 103.117 28.0577C104.146 28.0577 105.073 28.3138 105.901 28.8259C106.729 29.338 107.387 30.0237 107.875 30.885C108.362 31.7462 108.607 32.7166 108.607 33.7927C108.607 34.8688 108.367 35.825 107.886 36.7005C107.404 37.5761 106.75 38.2654 105.922 38.7703C105.094 39.2753 104.153 39.5277 103.097 39.5277L103.095 39.5241ZM102.795 37.1016C103.396 37.1016 103.927 36.9601 104.387 36.6772C104.847 36.3943 105.212 36.004 105.48 35.5062C105.746 35.0085 105.88 34.4355 105.88 33.7892C105.88 33.1428 105.746 32.5913 105.48 32.0935C105.213 31.5958 104.849 31.2055 104.387 30.9226C103.925 30.6397 103.396 30.4982 102.795 30.4982C102.194 30.4982 101.702 30.6397 101.242 30.9226C100.782 31.2055 100.421 31.5958 100.16 32.0935C99.8987 32.5913 99.769 33.1571 99.769 33.7892C99.769 34.4212 99.8987 35.0067 100.16 35.5062C100.421 36.004 100.782 36.3943 101.242 36.6772C101.702 36.9601 102.221 37.1016 102.795 37.1016Z" fill="#175D63"/>
<path d="M115.777 39.5236C114.656 39.5236 113.67 39.2676 112.822 38.7555C111.975 38.2434 111.316 37.5505 110.848 36.6749C110.381 35.7994 110.146 34.8307 110.146 33.7671C110.146 32.7036 110.386 31.6848 110.868 30.8289C111.349 29.9749 111.996 29.2981 112.812 28.8003C113.626 28.3025 114.548 28.0536 115.577 28.0536C116.431 28.0536 117.183 28.1951 117.832 28.478C118.48 28.7609 119.031 29.1512 119.484 29.649C119.937 30.1467 120.285 30.7161 120.525 31.3553C120.765 31.9946 120.886 32.6839 120.886 33.4252C120.886 33.6275 120.875 33.8262 120.856 34.0214C120.836 34.2166 120.799 34.3956 120.746 34.5568H112.33V32.5174H119.264L118 33.4663C118.134 32.8468 118.111 32.2954 117.931 31.8101C117.752 31.3249 117.457 30.9417 117.05 30.6588C116.643 30.3759 116.151 30.2345 115.577 30.2345C115.003 30.2345 114.541 30.3759 114.114 30.6588C113.686 30.9417 113.363 31.3446 113.142 31.871C112.922 32.3956 112.838 33.0348 112.892 33.7886C112.838 34.4619 112.929 35.0581 113.162 35.5756C113.395 36.093 113.743 36.4941 114.203 36.777C114.663 37.0599 115.195 37.2013 115.797 37.2013C116.399 37.2013 116.909 37.0742 117.33 36.8182C117.752 36.5621 118.082 36.2201 118.322 35.7886L120.445 36.8379C120.232 37.3625 119.898 37.828 119.443 38.2309C118.988 38.6355 118.448 38.9507 117.821 39.1798C117.194 39.409 116.511 39.5236 115.777 39.5236Z" fill="#175D63"/>
<path d="M127.015 39.5235C125.853 39.5235 124.84 39.2442 123.98 38.6856C123.119 38.1269 122.522 37.3695 122.188 36.4134L124.171 35.4644C124.451 36.084 124.842 36.5692 125.343 36.9183C125.844 37.2693 126.402 37.443 127.017 37.443C127.484 37.443 127.859 37.3355 128.14 37.1207C128.421 36.9058 128.561 36.6229 128.561 36.272C128.561 36.0571 128.504 35.8781 128.391 35.7366C128.277 35.5952 128.126 35.4734 127.939 35.3731C127.753 35.2729 127.538 35.1887 127.298 35.1207L125.514 34.6157C124.606 34.3597 123.915 33.9533 123.44 33.3946C122.966 32.836 122.729 32.1807 122.729 31.4251C122.729 30.7518 122.9 30.1628 123.241 29.6578C123.582 29.1529 124.055 28.759 124.664 28.4761C125.272 28.1932 125.971 28.0518 126.759 28.0518C127.788 28.0518 128.696 28.3006 129.485 28.7984C130.272 29.2962 130.834 29.9962 131.168 30.8987L129.164 31.8476C128.977 31.3499 128.663 30.956 128.222 30.6659C127.781 30.3758 127.287 30.2326 126.738 30.2326C126.297 30.2326 125.949 30.3311 125.697 30.5244C125.443 30.7196 125.317 30.9864 125.317 31.323C125.317 31.511 125.37 31.6793 125.477 31.8279C125.583 31.9765 125.734 32.0965 125.928 32.1914C126.122 32.2863 126.345 32.374 126.6 32.4546L128.343 32.9792C129.238 33.2478 129.929 33.6525 130.416 34.1914C130.903 34.7303 131.148 35.3892 131.148 36.1699C131.148 36.8288 130.974 37.4125 130.628 37.9156C130.279 38.4206 129.8 38.8145 129.185 39.0974C128.57 39.3803 127.849 39.5217 127.021 39.5217L127.015 39.5235Z" fill="#175D63"/>
<path d="M0.0585938 33.5096L0.0585938 29.5311C6.97072 29.5311 12.5928 23.8641 12.5928 16.8991L12.5928 0.0432739H16.5411L16.5411 16.8991C16.5411 26.0575 9.14742 33.5078 0.0585938 33.5078V33.5096Z" fill="#175D63"/>
<path d="M0.567491 40.2799H0.0664063L0.0664063 36.3014H0.567491C11.2431 36.3014 19.9286 27.5494 19.9286 16.7921L19.9286 0.0866699H23.8768L23.8768 16.7939C23.8768 29.7446 13.4198 40.2799 0.567491 40.2799Z" fill="#175D63"/>
<path d="M0.305626 26.6337H0L0 22.6552H0.305626C3.18598 22.6552 5.52793 20.2935 5.52793 17.3929L5.52793 -6.10352e-05H9.47619L9.47619 17.3929C9.47619 22.4887 5.36267 26.6337 0.305626 26.6337Z" fill="#175D63"/>
</g>
<defs>
<clipPath id="clip0_970_885">
<rect width="131.167" height="43.7223" fill="white"/>
</clipPath>
</defs>
</svg>
