<svg width="109" height="37" viewBox="0 0 109 37" fill="none" xmlns="http://www.w3.org/2000/svg">
<g clip-path="url(#clip0_1211_392)">
<path d="M28.7441 13.1234V11.0347H29.4733C30.004 11.0347 30.4259 10.8822 30.742 10.5755C31.0566 10.2689 31.2139 9.86002 31.2139 9.34747V0.678589H33.4852V9.26451C33.4852 10.0333 33.322 10.7074 32.9957 11.2851C32.6693 11.8643 32.2047 12.3161 31.6035 12.6376C31.0007 12.9605 30.2907 13.122 29.4733 13.122H28.7441V13.1234Z" fill="#175D63"/>
<path d="M38.3803 13.3249C37.7496 13.3249 37.1998 13.2182 36.7308 13.0079C36.2604 12.796 35.8988 12.4924 35.6444 12.0968C35.3901 11.7013 35.2637 11.2421 35.2637 10.7192C35.2637 10.1963 35.3769 9.76963 35.6033 9.37411C35.8297 8.97859 36.1751 8.64676 36.6397 8.38012C37.1042 8.11348 37.6893 7.92386 38.3964 7.81276L41.3308 7.32836V8.99933L38.811 9.44966C38.3803 9.52817 38.0598 9.66445 37.8496 9.85851C37.6393 10.0541 37.535 10.3118 37.535 10.6347C37.535 10.9577 37.654 11.1947 37.8907 11.3784C38.1289 11.5621 38.4244 11.6539 38.7772 11.6539C39.23 11.6539 39.6313 11.5561 39.9797 11.3621C40.3282 11.168 40.5957 10.8969 40.7839 10.5518C40.9721 10.2066 41.0661 9.83333 41.0661 9.43188V7.07653C41.0661 6.68693 40.9177 6.36104 40.6192 6.09884C40.3208 5.83664 39.9224 5.70628 39.4255 5.70628C38.961 5.70628 38.5493 5.83515 38.1906 6.08995C37.8319 6.34622 37.5688 6.67508 37.4027 7.07505L35.6283 6.20697C35.8047 5.7285 36.084 5.31372 36.4647 4.96264C36.8455 4.61156 37.2968 4.33602 37.8158 4.13604C38.3347 3.93606 38.8992 3.83533 39.5064 3.83533C40.2473 3.83533 40.8986 3.97161 41.4631 4.24418C42.0261 4.51675 42.4657 4.89894 42.7803 5.38779C43.0949 5.87811 43.2522 6.43955 43.2522 7.07505V13.1219H41.197V11.568L41.6615 11.5517C41.4293 11.9309 41.1499 12.2539 40.8236 12.5205C40.4972 12.7871 40.1326 12.9886 39.7298 13.1219C39.3255 13.2553 38.8757 13.3219 38.3788 13.3219L38.3803 13.3249Z" fill="#175D63"/>
<path d="M45.2422 13.1235V0.478638H47.4312V13.125H45.2422V13.1235Z" fill="#175D63"/>
<path d="M53.6291 13.3249C52.7559 13.3249 51.9738 13.1161 51.2829 12.6983C50.5919 12.2806 50.048 11.7103 49.6496 10.9859C49.2512 10.2615 49.0527 9.46008 49.0527 8.58016C49.0527 7.70024 49.2541 6.88697 49.6584 6.17444C50.0612 5.46191 50.6066 4.89455 51.2917 4.47089C51.9768 4.04722 52.75 3.83539 53.613 3.83539C54.298 3.83539 54.9081 3.97167 55.4447 4.24424C55.9813 4.51681 56.4032 4.899 56.7134 5.38784L56.3812 5.83818V0.478638H58.5525V13.125H56.4973V11.371L56.7296 11.8051C56.4194 12.3058 55.9886 12.685 55.4359 12.9413C54.8831 13.1975 54.2804 13.3249 53.6291 13.3249ZM53.8614 11.3207C54.348 11.3207 54.7817 11.2036 55.1625 10.9696C55.5432 10.7355 55.8416 10.4126 56.0577 10.0008C56.2738 9.58896 56.3812 9.11493 56.3812 8.58016C56.3812 8.04539 56.2738 7.58914 56.0577 7.17732C55.8416 6.7655 55.5432 6.44257 55.1625 6.20851C54.7817 5.97446 54.3465 5.85743 53.8614 5.85743C53.3763 5.85743 52.9382 5.97446 52.5516 6.20851C52.1649 6.44257 51.8636 6.7655 51.6475 7.17732C51.4313 7.58914 51.324 8.05724 51.324 8.58016C51.324 9.10308 51.4313 9.58748 51.6475 10.0008C51.8636 10.4126 52.1635 10.7355 52.5516 10.9696C52.9382 11.2036 53.3748 11.3207 53.8614 11.3207Z" fill="#175D63"/>
<path d="M60.5586 13.1235V0.478638H62.7476V5.82484L62.4491 5.50783C62.6594 4.96269 63.0048 4.54792 63.4856 4.2635C63.9663 3.97908 64.5264 3.83687 65.1688 3.83687C65.8112 3.83687 66.4199 3.98204 66.9344 4.2709C67.4489 4.56125 67.8488 4.96418 68.1369 5.48265C68.4236 6.00112 68.5677 6.59959 68.5677 7.27805V13.125H66.3963V7.79652C66.3963 7.39508 66.3184 7.04992 66.1641 6.76106C66.0097 6.47219 65.7965 6.24851 65.526 6.09297C65.2556 5.93743 64.938 5.85891 64.5734 5.85891C64.2088 5.85891 63.9045 5.93743 63.6282 6.09297C63.3518 6.24851 63.1357 6.47219 62.9813 6.76106C62.827 7.0514 62.749 7.39656 62.749 7.79652V13.125H60.5601L60.5586 13.1235Z" fill="#175D63"/>
<path d="M73.1439 13.3248C72.5133 13.3248 71.9635 13.2181 71.4945 13.0077C71.0241 12.7959 70.6624 12.4922 70.4081 12.0967C70.1538 11.7012 70.0273 11.242 70.0273 10.7191C70.0273 10.1961 70.1405 9.76951 70.3669 9.37399C70.5933 8.97847 70.9388 8.64664 71.4034 8.38C71.8679 8.11335 72.453 7.92374 73.1601 7.81264L76.0944 7.32824V8.9992L73.5747 9.44954C73.1439 9.52805 72.8235 9.66433 72.6132 9.85839C72.403 10.0539 72.2986 10.3117 72.2986 10.6346C72.2986 10.9576 72.4177 11.1946 72.6544 11.3783C72.8926 11.5619 73.188 11.6538 73.5409 11.6538C73.9937 11.6538 74.395 11.556 74.7434 11.362C75.0918 11.1679 75.3594 10.8968 75.5476 10.5517C75.7357 10.2065 75.8298 9.83321 75.8298 9.43176V7.07641C75.8298 6.68681 75.6813 6.36091 75.3829 6.09871C75.0845 5.83651 74.6861 5.70616 74.1892 5.70616C73.7246 5.70616 73.313 5.83503 72.9543 6.08983C72.5956 6.3461 72.3325 6.67496 72.1663 7.07493L70.3919 6.20685C70.5683 5.72838 70.8477 5.3136 71.2284 4.96252C71.6092 4.61143 72.0605 4.3359 72.5794 4.13592C73.0984 3.93594 73.6629 3.83521 74.27 3.83521C75.011 3.83521 75.6622 3.97149 76.2267 4.24406C76.7898 4.51663 77.2293 4.89882 77.5439 5.38766C77.8585 5.87799 78.0158 6.43942 78.0158 7.07493V13.1218H75.9607V11.5679L76.4252 11.5516C76.1929 11.9308 75.9136 12.2537 75.5872 12.5204C75.2609 12.787 74.8963 12.9885 74.4935 13.1218C74.0892 13.2551 73.6394 13.3218 73.1425 13.3218L73.1439 13.3248Z" fill="#175D63"/>
<path d="M80.0098 13.1235V4.03687H82.065V6.05892L81.8988 5.75821C82.1091 5.07975 82.4384 4.60571 82.8853 4.33907C83.3322 4.07243 83.8717 3.93762 84.5024 3.93762H85.0331V5.89153H84.2539C83.635 5.89153 83.1381 6.08114 82.7618 6.45889C82.3854 6.83663 82.1987 7.37288 82.1987 8.06319V13.125H80.0098V13.1235Z" fill="#175D63"/>
<path d="M88.9564 13.3246C88.3258 13.3246 87.776 13.218 87.307 13.0076C86.8366 12.7958 86.4749 12.4921 86.2206 12.0966C85.9663 11.7011 85.8398 11.2419 85.8398 10.7189C85.8398 10.196 85.953 9.76939 86.1794 9.37386C86.4058 8.97834 86.7513 8.64652 87.2159 8.37988C87.6804 8.11323 88.2655 7.92362 88.9726 7.81252L91.9069 7.32812V8.99908L89.3872 9.44941C88.9564 9.52793 88.636 9.66421 88.4257 9.85827C88.2155 10.0538 88.1111 10.3116 88.1111 10.6345C88.1111 10.9574 88.2302 11.1944 88.4669 11.3781C88.7051 11.5618 89.0006 11.6537 89.3534 11.6537C89.8062 11.6537 90.2075 11.5559 90.5559 11.3618C90.9043 11.1678 91.1719 10.8967 91.3601 10.5515C91.5482 10.2064 91.6423 9.83308 91.6423 9.43164V7.07629C91.6423 6.68669 91.4938 6.36079 91.1954 6.09859C90.897 5.83639 90.4986 5.70603 90.0017 5.70603C89.5371 5.70603 89.1255 5.83491 88.7668 6.0897C88.4081 6.34598 88.145 6.67484 87.9788 7.0748L86.2044 6.20673C86.3808 5.72825 86.6602 5.31347 87.0409 4.96239C87.4217 4.61131 87.873 4.33578 88.3919 4.1358C88.9109 3.93582 89.4754 3.83508 90.0825 3.83508C90.8235 3.83508 91.4747 3.97137 92.0392 4.24394C92.6023 4.51651 93.0418 4.89869 93.3564 5.38754C93.671 5.87787 93.8283 6.4393 93.8283 7.0748V13.1217H91.7731V11.5677L92.2377 11.5515C92.0054 11.9307 91.7261 12.2536 91.3997 12.5203C91.0734 12.7869 90.7088 12.9884 90.306 13.1217C89.9017 13.255 89.4519 13.3217 88.955 13.3217L88.9564 13.3246Z" fill="#175D63"/>
<path d="M28.7441 32.4981L28.7441 20.0532H33.3691C34.2085 20.0532 34.9524 20.2058 35.5992 20.5124C36.246 20.8191 36.7518 21.2635 37.1163 21.8486C37.4809 22.4338 37.6632 23.1493 37.6632 23.9951C37.6632 24.841 37.478 25.5239 37.1075 26.109C36.7371 26.6941 36.2313 27.1385 35.5904 27.4452C34.9494 27.7518 34.2085 27.9044 33.3691 27.9044H31.0154L31.0154 32.4981H28.7441ZM31.0154 25.9001H33.4029C33.8013 25.9001 34.1497 25.8201 34.4466 25.6587C34.7451 25.4972 34.9803 25.272 35.1508 24.9817C35.3228 24.6928 35.4081 24.358 35.4081 23.9788C35.4081 23.5996 35.3228 23.2515 35.1508 22.9685C34.9788 22.6841 34.7451 22.4619 34.4466 22.3004C34.1482 22.139 33.7998 22.0575 33.4029 22.0575H31.0154V25.9001Z" fill="#175D63"/>
<path d="M43.3862 32.6996C42.513 32.6996 41.7147 32.4937 40.9899 32.0819C40.2667 31.6701 39.6889 31.1071 39.2582 30.3946C38.8274 29.6821 38.6113 28.8688 38.6113 27.9563C38.6113 27.0438 38.8274 26.2305 39.2582 25.518C39.6889 24.8055 40.2637 24.2426 40.9826 23.8307C41.7015 23.4189 42.5027 23.213 43.3862 23.213C44.2697 23.213 45.0886 23.4189 45.806 23.8307C46.5249 24.2426 47.0967 24.8025 47.5216 25.5091C47.9464 26.2157 48.1596 27.0319 48.1596 27.9563C48.1596 28.8807 47.9435 29.6821 47.5128 30.3946C47.082 31.1071 46.5072 31.6701 45.7883 32.0819C45.0695 32.4937 44.2683 32.6996 43.3847 32.6996H43.3862ZM43.3862 30.6953C43.8831 30.6953 44.3168 30.5783 44.6872 30.3442C45.0577 30.1102 45.3502 29.7843 45.5664 29.3666C45.7825 28.9488 45.8898 28.4792 45.8898 27.9548C45.8898 27.4304 45.7825 26.9638 45.5664 26.552C45.3502 26.1402 45.0577 25.8172 44.6872 25.5832C44.3168 25.3491 43.8831 25.2321 43.3862 25.2321C42.8893 25.2321 42.4689 25.3491 42.0925 25.5832C41.7162 25.8172 41.4207 26.1402 41.206 26.552C40.9899 26.9638 40.8826 27.4319 40.8826 27.9548C40.8826 28.4777 40.9899 28.9488 41.206 29.3666C41.4222 29.7843 41.7176 30.1102 42.0925 30.3442C42.4674 30.5783 42.8996 30.6953 43.3862 30.6953Z" fill="#175D63"/>
<path d="M49.7852 32.4982V19.8519H51.9741V32.4982H49.7852Z" fill="#175D63"/>
<path d="M55.0713 36.173C54.8273 36.173 54.5906 36.1537 54.3583 36.1152C54.1261 36.0767 53.9158 36.0071 53.7277 35.9064V34.0858C53.8717 34.1198 54.0452 34.1524 54.2495 34.1865C54.4539 34.2206 54.645 34.2369 54.8214 34.2369C55.3183 34.2369 55.6799 34.1228 55.9078 33.8947C56.1342 33.6665 56.3356 33.3629 56.5135 32.9836L57.1103 31.5808L57.078 33.4177L53.1484 23.4111H55.4859L58.2379 30.7942H57.4088L60.1446 23.4111H62.4982L58.5687 33.4177C58.3364 33.9969 58.0541 34.4946 57.7234 34.9124C57.3926 35.3301 57.0074 35.6442 56.5708 35.856C56.1342 36.0678 55.6344 36.173 55.0699 36.173H55.0713Z" fill="#175D63"/>
<path d="M67.8036 32.599C66.7863 32.599 65.9969 32.3176 65.4324 31.7546C64.8693 31.1932 64.5871 30.3992 64.5871 29.3741V25.3641H63.0449V23.4102H63.211C63.6535 23.4102 63.9931 23.2932 64.2313 23.0591C64.4694 22.825 64.5871 22.4858 64.5871 22.0399V21.3378H66.776V23.4087H68.8489V25.3626H66.776V29.2556C66.776 29.5563 66.8289 29.8126 66.9333 30.0244C67.0377 30.2363 67.2038 30.3977 67.4302 30.5088C67.6566 30.6199 67.9462 30.6762 68.3005 30.6762C68.3784 30.6762 68.4696 30.6703 68.574 30.6599C68.6783 30.6496 68.7812 30.6377 68.8812 30.6259V32.4968C68.7268 32.519 68.549 32.5412 68.3505 32.5635C68.152 32.5857 67.9697 32.5975 67.8036 32.5975V32.599Z" fill="#175D63"/>
<path d="M73.7563 32.6993C73.0492 32.6993 72.4406 32.5438 71.932 32.2312C71.4233 31.9202 71.0308 31.4846 70.7544 30.9276C70.478 30.3707 70.3398 29.7189 70.3398 28.9737V23.4113H72.5288V28.7901C72.5288 29.1693 72.6038 29.4996 72.7523 29.784C72.9022 30.0685 73.1169 30.2907 73.3991 30.4521C73.6814 30.6136 73.9989 30.6936 74.3517 30.6936C74.7046 30.6936 75.0206 30.6136 75.297 30.4521C75.5734 30.2907 75.788 30.0655 75.9439 29.7752C76.0982 29.4863 76.1761 29.1397 76.1761 28.7397V23.4113H78.3475V32.4994H76.2923V30.7114L76.4584 31.0284C76.2482 31.5854 75.9056 32.0031 75.4308 32.2816C74.9559 32.5601 74.3973 32.6993 73.7563 32.6993Z" fill="#175D63"/>
<path d="M85.295 32.6998C84.6423 32.6998 84.0439 32.5709 83.4956 32.3161C82.9487 32.0599 82.515 31.6806 82.1946 31.1799L82.4107 30.7459V32.4998H80.3555V19.8535H82.5444V25.216L82.2122 24.7657C82.5209 24.2754 82.9414 23.8946 83.4721 23.6221C84.0028 23.3495 84.6158 23.2132 85.3126 23.2132C86.1638 23.2132 86.9312 23.4251 87.6163 23.8487C88.3013 24.2724 88.8453 24.8398 89.2495 25.5523C89.6524 26.2648 89.8552 27.0677 89.8552 27.958C89.8552 28.8483 89.6568 29.6393 89.2584 30.3637C88.86 31.0881 88.319 31.6584 87.6339 32.0762C86.9488 32.4939 86.1697 32.7028 85.2965 32.7028L85.295 32.6998ZM85.0465 30.6955C85.5434 30.6955 85.983 30.5785 86.3637 30.3445C86.7445 30.1104 87.0459 29.7875 87.2679 29.3757C87.4884 28.9638 87.5986 28.4898 87.5986 27.955C87.5986 27.4203 87.4884 26.964 87.2679 26.5522C87.0473 26.1404 86.746 25.8174 86.3637 25.5834C85.9815 25.3493 85.5434 25.2323 85.0465 25.2323C84.5496 25.2323 84.1424 25.3493 83.7617 25.5834C83.3809 25.8174 83.0825 26.1404 82.8664 26.5522C82.6503 26.964 82.543 27.4321 82.543 27.955C82.543 28.478 82.6503 28.9624 82.8664 29.3757C83.0825 29.7875 83.3809 30.1104 83.7617 30.3445C84.1424 30.5785 84.5717 30.6955 85.0465 30.6955Z" fill="#175D63"/>
<path d="M95.7876 32.6994C94.86 32.6994 94.0441 32.4876 93.3429 32.0639C92.6416 31.6402 92.0962 31.0669 91.7096 30.3426C91.323 29.6182 91.1289 28.8168 91.1289 27.9368C91.1289 27.0569 91.3274 26.214 91.7258 25.5059C92.1242 24.7993 92.6593 24.2394 93.334 23.8276C94.0074 23.4157 94.7703 23.2098 95.6215 23.2098C96.3286 23.2098 96.9505 23.3269 97.4871 23.5609C98.0237 23.795 98.4794 24.1179 98.8543 24.5297C99.2291 24.9415 99.5173 25.4126 99.7157 25.9415C99.9142 26.4703 100.014 27.0406 100.014 27.6539C100.014 27.8213 100.005 27.9857 99.9892 28.1472C99.973 28.3087 99.9421 28.4568 99.898 28.5901H92.9357V26.9029H98.672L97.6267 27.688C97.737 27.1754 97.7179 26.7192 97.5694 26.3177C97.4209 25.9163 97.1769 25.5993 96.8402 25.3652C96.5036 25.1312 96.0964 25.0141 95.6215 25.0141C95.1467 25.0141 94.7645 25.1312 94.4116 25.3652C94.0573 25.5993 93.7898 25.9326 93.6075 26.3681C93.4252 26.8021 93.3561 27.331 93.4002 27.9546C93.3561 28.5116 93.4311 29.0049 93.6237 29.433C93.8162 29.8611 94.1044 30.1929 94.4851 30.427C94.8659 30.661 95.3054 30.7781 95.8038 30.7781C96.3022 30.7781 96.7241 30.6729 97.0725 30.4611C97.4209 30.2492 97.6944 29.9663 97.8928 29.6093L99.6496 30.4774C99.4732 30.9114 99.1968 31.2965 98.8204 31.6299C98.4441 31.9646 97.9972 32.2254 97.4782 32.415C96.9593 32.6046 96.3948 32.6994 95.7876 32.6994Z" fill="#175D63"/>
<path d="M105.084 32.6993C104.123 32.6993 103.285 32.4682 102.573 32.006C101.86 31.5438 101.366 30.9172 101.09 30.1262L102.73 29.3411C102.963 29.8536 103.286 30.2551 103.701 30.5439C104.115 30.8343 104.577 30.978 105.086 30.978C105.472 30.978 105.782 30.8891 106.015 30.7113C106.247 30.5335 106.363 30.2995 106.363 30.0091C106.363 29.8314 106.316 29.6832 106.222 29.5662C106.128 29.4492 106.003 29.3485 105.849 29.2655C105.694 29.1826 105.516 29.1129 105.318 29.0566L103.842 28.6389C103.091 28.4271 102.519 28.0908 102.126 27.6286C101.734 27.1664 101.538 26.6243 101.538 25.9991C101.538 25.4421 101.679 24.9548 101.962 24.537C102.244 24.1193 102.635 23.7934 103.139 23.5593C103.642 23.3253 104.22 23.2083 104.872 23.2083C105.724 23.2083 106.475 23.4142 107.128 23.826C107.779 24.2378 108.243 24.817 108.52 25.5636L106.861 26.3487C106.707 25.9369 106.447 25.611 106.082 25.371C105.718 25.131 105.309 25.0125 104.855 25.0125C104.49 25.0125 104.202 25.094 103.993 25.254C103.783 25.4155 103.679 25.6362 103.679 25.9147C103.679 26.0702 103.723 26.2095 103.811 26.3324C103.899 26.4554 104.024 26.5546 104.184 26.6331C104.345 26.7117 104.53 26.7842 104.74 26.8509L106.182 27.2849C106.923 27.5071 107.495 27.8419 107.898 28.2878C108.301 28.7337 108.504 29.2788 108.504 29.9247C108.504 30.4698 108.359 30.9528 108.073 31.369C107.785 31.7868 107.388 32.1127 106.879 32.3467C106.37 32.5808 105.774 32.6978 105.089 32.6978L105.084 32.6993Z" fill="#175D63"/>
<path d="M0.0488281 27.7237L0.0488281 24.4322C5.7675 24.4322 10.4189 19.7437 10.4189 13.9812L10.4189 0.0357666H13.6854L13.6854 13.9812C13.6854 21.5584 7.56837 27.7223 0.0488281 27.7223V27.7237Z" fill="#175D63"/>
<path d="M0.469255 33.3251H0.0546875L0.0546875 30.0335H0.469255C9.30159 30.0335 16.4874 22.7927 16.4874 13.8927L16.4874 0.0716553H19.754L19.754 13.8942C19.754 24.6088 11.1025 33.3251 0.469255 33.3251Z" fill="#175D63"/>
<path d="M0.252856 22.035H0L0 18.7434H0.252856C2.63588 18.7434 4.57347 16.7895 4.57347 14.3897L4.57347 -0.00012207H7.84002L7.84002 14.3897C7.84002 18.6057 4.43675 22.035 0.252856 22.035Z" fill="#175D63"/>
</g>
<defs>
<clipPath id="clip0_1211_392">
<rect width="108.52" height="36.1732" fill="white"/>
</clipPath>
</defs>
</svg>
