<svg width="202" height="24" viewBox="0 0 202 24" fill="none" xmlns="http://www.w3.org/2000/svg">
<path d="M159.672 1.70617C159.762 1.7057 159.851 1.70509 159.941 1.70431C160.775 1.6979 161.583 1.75883 162.394 1.96395C162.477 1.98479 162.477 1.98479 162.561 2.00605C163.716 2.31428 164.762 3.01055 165.469 3.97147C165.509 4.02493 165.549 4.07838 165.591 4.13345C166.553 5.47439 166.678 7.43062 166.437 9.01379C166.292 9.84793 166.018 10.639 165.523 11.3302C165.485 11.3849 165.448 11.4397 165.409 11.4961C165.231 11.7497 165.069 11.9471 164.821 12.1359C164.777 12.1802 164.734 12.2245 164.689 12.2701C164.545 12.4099 164.394 12.5093 164.227 12.6193C164.193 12.6537 164.158 12.6881 164.123 12.7236C163.715 13.1255 163.139 13.2976 162.607 13.4787C162.553 13.4972 162.5 13.5157 162.445 13.5347C162.182 13.6197 161.968 13.6459 161.689 13.6398C161.771 13.7552 161.853 13.8704 161.935 13.9856C161.972 14.0368 161.972 14.0368 162.009 14.0891C162.18 14.3272 162.357 14.5587 162.543 14.7854C162.607 14.8752 162.607 14.8752 162.607 14.9827C162.66 15.0004 162.714 15.0181 162.769 15.0364C162.856 15.1436 162.856 15.1436 162.941 15.2747C162.97 15.3179 162.998 15.361 163.028 15.4054C163.093 15.5198 163.093 15.5198 163.093 15.6272C163.146 15.6449 163.2 15.6627 163.255 15.6809C163.332 15.7731 163.404 15.8689 163.474 15.9663C163.69 16.2612 163.918 16.5403 164.154 16.8192C164.296 16.9879 164.431 17.1602 164.566 17.3343C164.867 17.7215 165.177 18.1 165.504 18.4662C165.677 18.6615 165.844 18.8596 166.005 19.0648C166.141 19.2356 166.28 19.3933 166.437 19.5449C166.596 19.6979 166.735 19.8563 166.873 20.0283C167.129 20.3462 167.408 20.6401 167.691 20.9346C167.901 21.1536 168.105 21.3759 168.304 21.605C168.542 21.8757 168.814 22.107 169.086 22.3413C169.096 22.2557 169.096 22.2557 169.105 22.1683C169.154 21.7262 169.205 21.2844 169.258 20.8428C169.372 19.8999 169.481 18.9574 169.559 18.0107C169.562 17.9724 169.565 17.934 169.568 17.8945C169.589 17.6402 169.608 17.3857 169.626 17.1312C169.634 17.0263 169.634 17.0263 169.641 16.9192C169.686 16.2531 169.699 15.5863 169.711 14.9189C169.712 14.8591 169.713 14.7994 169.714 14.7379C169.731 13.8414 169.745 12.9454 169.736 12.0488C169.734 11.9044 169.733 11.7601 169.732 11.6157C169.712 8.7056 169.66 5.70246 169.271 2.81412C169.248 2.62636 169.241 2.44511 169.242 2.25601C169.241 2.1957 169.241 2.1354 169.241 2.07326C169.248 1.93038 169.248 1.93038 169.302 1.87666C169.403 1.87162 169.505 1.87036 169.606 1.87057C169.703 1.87057 169.703 1.87057 169.802 1.87058C169.873 1.87086 169.944 1.87113 170.016 1.87142C170.089 1.87152 170.161 1.87159 170.234 1.87165C170.425 1.87185 170.617 1.87238 170.808 1.87298C171.003 1.87352 171.198 1.87377 171.393 1.87404C171.776 1.87462 172.159 1.87553 172.542 1.87666C172.593 1.99468 172.645 2.11275 172.696 2.23083C172.71 2.26377 172.724 2.29672 172.739 2.33065C172.832 2.54456 172.918 2.7599 173.001 2.97778C173.094 3.2215 173.193 3.4608 173.298 3.69955C173.406 3.94651 173.503 4.19377 173.592 4.44818C173.689 4.72554 173.798 4.99289 173.919 5.26059C174.066 5.58796 174.192 5.91818 174.31 6.25743C174.405 6.51587 174.516 6.76613 174.627 7.01801C174.691 7.16853 174.749 7.31863 174.803 7.4729C174.918 7.79551 175.053 8.10847 175.188 8.42313C175.317 8.72514 175.438 9.02927 175.554 9.33628C175.651 9.58354 175.759 9.82604 175.867 10.0687C175.924 10.209 175.975 10.3456 176.021 10.4894C176.105 10.7439 176.208 10.9874 176.315 11.2328C176.446 11.5356 176.569 11.8376 176.676 12.1493C176.782 12.4558 176.913 12.7436 177.054 13.0354C177.154 13.245 177.237 13.4511 177.305 13.6726C177.372 13.8739 177.454 14.069 177.534 14.2654C177.657 14.5666 177.772 14.87 177.888 15.174C178.032 15.5553 178.186 15.9303 178.35 16.3037C178.453 16.5474 178.545 16.7949 178.637 17.0431C178.711 17.2437 178.791 17.4402 178.88 17.6347C178.968 17.8294 178.968 17.8294 178.968 17.9369C179.003 17.9369 179.039 17.9369 179.076 17.9369C179.082 17.8737 179.082 17.8737 179.088 17.8093C179.144 17.5482 179.25 17.3203 179.359 17.0775C179.528 16.6944 179.682 16.3133 179.818 15.9176C179.91 15.6682 180.018 15.4266 180.129 15.185C180.228 14.9658 180.309 14.7456 180.383 14.5168C180.456 14.3003 180.544 14.0897 180.631 13.8782C180.781 13.5092 180.926 13.139 181.065 12.7657C181.154 12.5283 181.247 12.2932 181.343 12.0586C181.476 11.7319 181.595 11.4021 181.711 11.0692C181.81 10.7874 181.923 10.5136 182.041 10.2393C182.113 10.0609 182.165 9.87991 182.218 9.69506C182.285 9.48191 182.376 9.27903 182.464 9.07359C182.545 8.8797 182.617 8.68334 182.688 8.48547C182.759 8.28944 182.832 8.0943 182.906 7.89924C182.92 7.86247 182.933 7.8257 182.948 7.78782C183.034 7.55893 183.123 7.33116 183.213 7.10362C183.299 6.88185 183.375 6.66028 183.442 6.4322C183.529 6.14238 183.634 5.86355 183.746 5.58287C183.855 5.31098 183.957 5.04154 184.04 4.76038C184.132 4.44662 184.248 4.1449 184.367 3.84055C184.513 3.4667 184.643 3.0987 184.741 2.70901C184.829 2.42428 184.954 2.15179 185.069 1.87666C186.192 1.87666 187.314 1.87666 188.471 1.87666C188.566 2.16214 188.537 2.43087 188.473 2.71951C188.419 2.98185 188.386 3.24134 188.363 3.50799C188.358 3.55456 188.354 3.60113 188.349 3.64911C188.336 3.80017 188.322 3.95128 188.309 4.1024C188.304 4.15468 188.299 4.20696 188.294 4.26083C188.175 5.6023 188.096 6.94247 188.059 8.28866C188.058 8.32716 188.057 8.36566 188.056 8.40533C188.01 10.0398 188.039 11.6756 188.079 13.3098C188.084 13.5026 188.088 13.6954 188.092 13.8882C188.116 14.9546 188.148 16.02 188.2 17.0854C188.203 17.1305 188.205 17.1755 188.207 17.222C188.282 18.7384 188.457 20.2195 188.712 21.7163C188.72 21.7601 188.727 21.8039 188.735 21.849C188.767 22.0333 188.803 22.2135 188.849 22.3951C188.849 22.5723 188.849 22.7496 188.849 22.9322C187.637 22.9322 186.425 22.9322 185.177 22.9322C184.998 22.5768 185.169 22.0163 185.221 21.6431C185.388 20.3963 185.504 19.1509 185.559 17.8943C185.561 17.8409 185.564 17.7876 185.566 17.7327C185.627 16.3077 185.623 14.8828 185.619 13.4569C185.619 13.1767 185.619 12.8966 185.619 12.6165C185.619 10.7544 185.6 8.89394 185.528 7.03312C185.525 6.95926 185.525 6.95926 185.522 6.88392C185.517 6.65576 185.517 6.65576 185.447 6.44228C185.436 6.47413 185.424 6.50599 185.412 6.53882C185.211 7.10086 185.007 7.65763 184.764 8.20369C184.663 8.44159 184.579 8.68467 184.494 8.9286C184.397 9.19355 184.288 9.45293 184.179 9.71307C184.093 9.91936 184.01 10.1257 183.935 10.3365C183.832 10.6253 183.714 10.9069 183.595 11.1897C183.471 11.4878 183.356 11.7887 183.244 12.0917C183.155 12.3317 183.057 12.5661 182.953 12.8006C182.865 13.0017 182.785 13.1965 182.727 13.4082C182.639 13.7259 182.502 14.0231 182.372 14.3253C182.262 14.5813 182.16 14.837 182.069 15.1002C181.959 15.4163 181.828 15.719 181.691 16.0241C181.595 16.2409 181.511 16.4558 181.44 16.682C181.372 16.8853 181.288 17.0825 181.207 17.2811C181.094 17.559 180.99 17.8396 180.888 18.1215C180.754 18.4893 180.605 18.8469 180.444 19.2035C180.363 19.3846 180.292 19.5617 180.24 19.753C180.153 20.0714 180.015 20.3684 179.884 20.6707C179.782 20.9095 179.687 21.1466 179.609 21.3947C179.517 21.6842 179.393 21.9526 179.262 22.2266C179.154 22.4582 179.06 22.694 178.968 22.9322C178.772 22.9322 178.576 22.9322 178.374 22.9322C178.122 22.3908 177.878 21.8546 177.685 21.2897C177.608 21.0806 177.52 20.8791 177.429 20.6762C177.309 20.4107 177.2 20.1459 177.105 19.8705C176.995 19.5563 176.867 19.2548 176.731 18.9514C176.609 18.6776 176.499 18.4005 176.393 18.12C176.31 17.9053 176.221 17.6928 176.133 17.4803C176.02 17.2097 175.91 16.9386 175.805 16.6645C175.713 16.4234 175.615 16.1862 175.512 15.9495C175.384 15.6563 175.266 15.3609 175.153 15.0622C175.069 14.8463 174.98 14.6325 174.891 14.4187C174.778 14.1481 174.668 13.8769 174.564 13.6029C174.473 13.365 174.375 13.1312 174.273 12.8979C174.14 12.5929 174.021 12.2849 173.906 11.973C173.793 11.6711 173.667 11.3763 173.537 11.0811C173.438 10.8494 173.349 10.6144 173.259 10.3789C173.185 10.1904 173.106 10.005 173.025 9.81949C172.931 9.60527 172.843 9.39187 172.765 9.17157C172.667 8.89568 172.553 8.62803 172.437 8.35916C172.258 7.94005 172.095 7.51838 171.948 7.08683C171.872 7.23784 171.883 7.36758 171.879 7.53643C171.878 7.58864 171.878 7.58864 171.876 7.64191C171.873 7.75713 171.87 7.87235 171.867 7.98758C171.863 8.15135 171.858 8.31512 171.854 8.47889C171.853 8.52037 171.852 8.56185 171.85 8.60459C171.842 8.91834 171.831 9.23195 171.819 9.54559C171.732 11.7672 171.72 13.989 171.719 16.212C171.719 16.4941 171.718 16.7763 171.718 17.0585C171.717 17.446 171.717 17.8335 171.718 18.221C171.718 18.3646 171.718 18.5082 171.717 18.6518C171.716 19.7122 171.732 20.7801 171.87 21.8333C171.889 21.9786 171.901 22.1147 171.899 22.2608C171.899 22.3006 171.899 22.3404 171.899 22.3814C171.898 22.4214 171.898 22.4613 171.898 22.5025C171.897 22.5441 171.897 22.5857 171.897 22.6286C171.896 22.7298 171.895 22.831 171.894 22.9322C171.826 22.9335 171.757 22.9349 171.687 22.9363C169.617 22.9558 169.617 22.9558 167.554 23.0967C165.84 23.2816 165.84 23.2816 165.199 22.7711C164.915 22.5301 164.725 22.2588 164.531 21.9429C164.458 21.8277 164.384 21.7258 164.294 21.6229C164.011 21.2939 164.011 21.2939 164.011 21.1059C163.957 21.0882 163.904 21.0705 163.849 21.0522C163.78 20.9742 163.78 20.9742 163.714 20.8777C163.681 20.8307 163.681 20.8307 163.648 20.7828C163.598 20.7053 163.549 20.6265 163.502 20.547C163.412 20.4002 163.314 20.2638 163.211 20.1257C163.075 19.9414 162.942 19.7562 162.816 19.5651C162.688 19.3712 162.552 19.186 162.41 19.0015C162.308 18.8653 162.216 18.7229 162.121 18.5814C162.017 18.4368 161.911 18.293 161.806 18.1494C161.727 18.0422 161.649 17.9346 161.571 17.8267C161.533 17.7744 161.495 17.7222 161.456 17.6683C161.422 17.6207 161.388 17.573 161.352 17.524C161.263 17.4018 161.263 17.4018 161.17 17.3131C161.069 17.2123 161.014 17.0916 160.946 16.9679C160.847 16.8114 160.724 16.6803 160.597 16.5452C160.48 16.4081 160.385 16.2607 160.285 16.1106C160.174 15.9602 160.059 15.8122 159.944 15.6641C159.913 15.6236 159.882 15.5831 159.85 15.5414C159.662 15.2988 159.474 15.0571 159.285 14.8159C159.028 14.4869 158.783 14.1503 158.538 13.8129C158.459 13.7008 158.459 13.7008 158.395 13.6398C158.367 13.3345 158.401 13.0682 158.503 12.7804C158.605 12.6797 158.776 12.6982 158.912 12.6839C158.987 12.6755 159.062 12.6672 159.137 12.6587C159.254 12.6457 159.371 12.633 159.489 12.621C160.249 12.5423 160.937 12.3679 161.605 11.9814C161.646 11.9582 161.687 11.935 161.729 11.911C162.015 11.7455 162.268 11.5673 162.499 11.3302C162.545 11.2892 162.59 11.2482 162.637 11.206C163.288 10.4923 163.591 9.6953 163.687 8.75194C163.691 8.71008 163.695 8.66823 163.7 8.6251C163.76 7.99285 163.73 7.39126 163.633 6.76455C163.628 6.72883 163.623 6.6931 163.618 6.65629C163.498 5.818 163.112 4.98071 162.445 4.43475C161.448 3.69499 160.222 3.56533 159.011 3.57447C158.873 3.57535 158.735 3.57447 158.597 3.57345C158.156 3.57291 157.78 3.5804 157.369 3.75662C157.317 3.77109 157.265 3.78556 157.211 3.80047C157.006 3.86429 156.869 3.91103 156.749 4.09527C156.606 4.44334 156.553 4.7739 156.553 5.14907C156.553 5.18589 156.552 5.2227 156.552 5.26064C156.552 5.38379 156.552 5.50695 156.553 5.6301C156.552 5.71866 156.552 5.80723 156.552 5.89579C156.552 6.13714 156.552 6.37848 156.552 6.61982C156.552 6.87562 156.552 7.13142 156.552 7.38722C156.552 7.8199 156.552 8.25259 156.552 8.68527C156.553 9.12289 156.553 9.56052 156.552 9.99814C156.55 13.0493 156.55 13.0493 156.584 16.1001C156.585 16.1934 156.585 16.1934 156.587 16.2886C156.605 17.3599 156.631 18.4337 156.728 19.5013C156.735 19.5717 156.741 19.6421 156.748 19.7147C156.814 20.3939 156.942 21.0607 157.081 21.7285C157.09 21.7689 157.098 21.8094 157.106 21.8511C157.122 21.9258 157.138 22.0005 157.154 22.0751C157.216 22.3753 157.207 22.6094 157.207 22.9322C155.942 22.9322 154.677 22.9322 153.374 22.9322C153.374 22.5312 153.381 22.2392 153.475 21.8674C153.605 21.2982 153.659 20.7304 153.705 20.1492C153.709 20.095 153.713 20.0408 153.718 19.985C153.865 18.1714 153.922 16.3557 153.949 14.5368C153.958 13.9512 153.973 13.3664 153.995 12.7813C154.027 11.9182 154.035 11.0556 154.035 10.1921C154.035 10.1529 154.035 10.1136 154.035 10.0731C154.036 8.89049 154.012 7.72423 153.86 6.5497C153.846 6.43748 153.832 6.32524 153.819 6.213C153.778 5.88013 153.736 5.54754 153.692 5.21506C153.652 4.90275 153.618 4.59054 153.59 4.27697C153.544 3.78013 153.469 3.28829 153.391 2.7956C153.382 2.73676 153.373 2.67793 153.363 2.61732C153.355 2.56508 153.347 2.51285 153.338 2.45904C153.289 2.04563 153.289 2.04563 153.374 1.87666C154.085 1.86737 154.085 1.86737 154.417 1.90352C155.119 1.97549 155.825 1.9256 156.526 1.86455C156.752 1.84496 156.979 1.82695 157.205 1.80868C157.249 1.80513 157.293 1.80158 157.338 1.79791C158.117 1.73467 158.891 1.71006 159.672 1.70617Z" fill="#175D63"/>
<path d="M69.8408 1.87692C70.2316 1.87104 70.6188 1.87657 71.0089 1.89887C71.4451 1.92377 71.8699 1.9318 72.3057 1.89887C72.7616 1.86536 73.2176 1.87243 73.6745 1.87692C73.6957 2.25115 73.6237 2.58975 73.5453 2.95488C73.0826 5.14313 73.1145 7.39635 73.0639 9.62293C73.0626 9.67644 73.0614 9.72995 73.0602 9.78508C73.0546 10.0314 73.0494 10.2778 73.045 10.5242C73.0441 10.5678 73.0432 10.6114 73.0423 10.6563C73.0407 10.7365 73.0393 10.8166 73.0381 10.8968C73.0326 11.1572 73.0326 11.1572 72.9725 11.2767C76.0017 11.2767 79.0308 11.2767 82.1517 11.2767C82.0587 9.14824 81.9636 7.03699 81.7956 4.91586C81.7707 4.58892 81.7533 4.26169 81.7406 3.93406C81.7219 3.50956 81.6403 3.09866 81.5578 2.68261C81.5347 2.55963 81.5121 2.43654 81.4903 2.31334C81.4811 2.26362 81.4719 2.21391 81.4624 2.16269C81.4498 2.03806 81.4498 2.03806 81.5038 1.87692C81.9532 1.87143 82.3984 1.87631 82.8469 1.90713C83.2152 1.93131 83.5731 1.92444 83.9411 1.89887C84.4064 1.86746 84.8713 1.87229 85.3374 1.87692C85.3557 2.26613 85.2857 2.62407 85.2092 3.00489C85.0328 3.88939 84.9426 4.75735 84.9055 5.65655C84.9011 5.75637 84.8967 5.85619 84.8923 5.95601C84.8806 6.22194 84.8694 6.4879 84.8584 6.75386C84.8514 6.92056 84.8444 7.08727 84.8373 7.25396C84.8069 7.97282 84.7777 8.69171 84.7493 9.41064C84.7439 9.54878 84.7384 9.68691 84.7329 9.82505C84.5033 14.3807 84.5033 14.3807 84.8238 18.9189C84.86 19.1801 84.8855 19.442 84.9109 19.7045C84.978 20.3928 85.0782 21.0737 85.1957 21.7551C85.2127 21.8569 85.2127 21.8569 85.2301 21.9608C85.2404 22.0201 85.2506 22.0795 85.2612 22.1406C85.2902 22.4031 85.2835 22.6684 85.2835 22.9324C84.0362 22.9324 82.7889 22.9324 81.5038 22.9324C81.5038 22.532 81.5121 22.2458 81.6031 21.8756C81.7639 21.1462 81.8014 20.4031 81.8501 19.6598C81.8582 19.5373 81.8666 19.4147 81.8751 19.2921C82.0073 17.3742 82.0842 15.4538 82.1517 13.5327C82.0878 13.534 82.0239 13.5353 81.958 13.5366C81.753 13.5364 81.565 13.5113 81.3637 13.4697C81.2958 13.4563 81.2278 13.4428 81.1578 13.4289C81.1219 13.4218 81.086 13.4146 81.049 13.4072C80.3008 13.259 79.5531 13.1585 78.7939 13.0862C78.7486 13.0818 78.7033 13.0775 78.6566 13.073C78.3639 13.0453 78.0711 13.0198 77.7781 12.9955C77.7116 12.9899 77.6451 12.9842 77.5766 12.9784C77.1094 12.9415 76.6437 12.931 76.1751 12.9317C76.1374 12.9318 76.0996 12.9318 76.0608 12.9318C74.5038 12.9165 74.5038 12.9165 73.0265 13.3178C73.0396 13.832 73.0527 14.3462 73.066 14.8604C73.0721 15.0994 73.0783 15.3383 73.0843 15.5773C73.1002 16.2028 73.1167 16.8283 73.1345 17.4537C73.1356 17.4906 73.1366 17.5276 73.1377 17.5656C73.1593 18.3308 73.1924 19.0911 73.276 19.8523C73.2899 19.9799 73.3031 20.1076 73.3161 20.2353C73.4003 21.0402 73.5136 21.8396 73.704 22.627C73.7285 22.7713 73.7285 22.7713 73.6745 22.9324C72.4094 22.9324 71.1443 22.9324 69.8408 22.9324C69.8408 22.5579 69.8473 22.4004 69.9488 22.073C69.9765 21.9175 69.9947 21.7612 70.0127 21.6043C70.0181 21.5589 70.0235 21.5136 70.0291 21.4668C70.0467 21.3176 70.0636 21.1683 70.0804 21.0189C70.0863 20.9674 70.0922 20.9159 70.0982 20.8628C70.19 20.0522 70.2602 19.2412 70.3133 18.4273C70.3165 18.3786 70.3196 18.33 70.3229 18.28C70.3901 17.2345 70.4385 16.1879 70.4651 15.1407C70.4663 15.0966 70.4674 15.0526 70.4685 15.0072C70.56 11.2938 70.4544 7.58039 70.0699 3.88478C70.0562 3.75072 70.0431 3.61661 70.03 3.48249C70.021 3.39225 70.012 3.30201 70.003 3.21177C69.9992 3.17115 69.9953 3.13053 69.9914 3.08868C69.9662 2.84135 69.9232 2.60464 69.8632 2.36325C69.8298 2.19849 69.8337 2.04445 69.8408 1.87692Z" fill="#175D63"/>
<path d="M38.3548 2.03969C38.5299 2.09552 38.5299 2.09552 38.7345 2.13873C38.9704 2.19633 39.1741 2.29512 39.3883 2.40708C39.4418 2.4344 39.4418 2.4344 39.4963 2.46227C39.5685 2.49913 39.6405 2.53627 39.7123 2.57369C39.7836 2.60997 39.8556 2.64493 39.9282 2.67847C40.214 2.81161 40.4459 2.98179 40.6876 3.18257C40.7237 3.21175 40.7598 3.24094 40.797 3.271C41.4352 3.79363 41.926 4.39963 42.3277 5.11624C42.35 5.156 42.3723 5.19577 42.3953 5.23674C43.3682 7.02315 43.3376 9.45605 42.7963 11.3635C42.6767 11.7539 42.5017 12.1011 42.3041 12.4581C42.2749 12.5155 42.2456 12.5729 42.2155 12.6321C42.1742 12.7122 42.1742 12.7122 42.132 12.7939C42.1078 12.8407 42.0837 12.8875 42.0588 12.9357C41.97 13.0636 41.9015 13.0896 41.7641 13.1564C41.7036 13.259 41.7036 13.259 41.6561 13.3713C41.482 13.6061 41.2792 13.8027 41.0519 13.986C40.9461 14.0737 40.9461 14.0737 40.8289 14.1998C40.6764 14.3456 40.5244 14.4478 40.3434 14.5563C40.2857 14.5913 40.228 14.6262 40.1685 14.6623C39.7524 14.8981 39.3441 15.0605 38.8855 15.2009C38.8291 15.219 38.7727 15.2372 38.7146 15.2559C37.7699 15.547 36.8438 15.5998 35.8597 15.5945C35.6701 15.5936 35.4805 15.5945 35.2908 15.5955C34.537 15.5961 33.8134 15.5428 33.0709 15.4124C33.0746 15.4463 33.0782 15.4803 33.082 15.5153C33.1115 15.7981 33.1341 16.0793 33.1462 16.3635C33.1498 16.4422 33.1534 16.5209 33.1571 16.5997C33.1589 16.6407 33.1608 16.6818 33.1628 16.7242C33.2139 17.8186 33.3095 18.9074 33.4115 19.9981C33.449 20.4018 33.4805 20.8057 33.5096 21.21C33.5389 21.6133 33.5775 22.0103 33.645 22.4093C33.6664 22.568 33.6718 22.7186 33.6648 22.8785C33.6109 22.9322 33.6109 22.9322 33.4609 22.9387C33.3938 22.9385 33.3268 22.9384 33.2578 22.9383C33.2209 22.9383 33.184 22.9383 33.146 22.9383C33.0236 22.9383 32.9012 22.9379 32.7788 22.9374C32.6941 22.9373 32.6095 22.9373 32.5248 22.9372C32.3015 22.937 32.0783 22.9365 31.855 22.9359C31.6274 22.9353 31.3997 22.9351 31.1721 22.9348C30.7251 22.9342 30.2782 22.9333 29.8312 22.9322C29.8214 22.2579 29.8214 22.2579 29.8845 21.9406C29.8959 21.8807 29.9073 21.8207 29.919 21.7589C29.9312 21.6963 29.9434 21.6337 29.9561 21.5692C30.2193 20.1423 30.3151 18.6975 30.3452 17.2485C30.3474 17.1465 30.3497 17.0446 30.3519 16.9427C30.3587 16.6295 30.365 16.3164 30.3711 16.0032C30.3721 15.9554 30.373 15.9077 30.374 15.8585C30.4216 13.4689 30.4395 11.0805 30.3911 8.69081C30.3881 8.53701 30.3854 8.3832 30.3827 8.2294C30.3477 6.25431 30.256 4.23042 29.7982 2.3006C29.7722 2.17479 29.7651 2.05828 29.7772 1.93038C29.8312 1.87667 29.8312 1.87667 29.9554 1.86953C30.2352 1.87026 30.511 1.87691 30.7896 1.90352C31.7017 1.9841 32.6049 1.88954 33.5136 1.80732C35.1198 1.66303 36.7964 1.55475 38.3548 2.03969ZM33.1249 4.0789C32.9517 4.40051 32.9023 4.69357 32.9013 5.0543C32.901 5.12086 32.9007 5.18742 32.9004 5.25599C32.9003 5.32934 32.9003 5.40268 32.9002 5.47602C32.9 5.5536 32.8997 5.63117 32.8994 5.70875C32.8987 5.91917 32.8983 6.12959 32.8981 6.34001C32.8979 6.47163 32.8977 6.60324 32.8975 6.73485C32.8967 7.14706 32.8962 7.55926 32.896 7.97147C32.8958 8.44651 32.8948 8.92155 32.8933 9.39658C32.8921 9.76431 32.8915 10.132 32.8915 10.4997C32.8914 10.7191 32.8911 10.9385 32.8901 11.1579C32.8892 11.3644 32.8891 11.5709 32.8896 11.7774C32.8896 11.8529 32.8894 11.9284 32.8889 12.0039C32.8848 12.608 32.9475 13.0608 33.3409 13.5324C33.3765 13.5324 33.4122 13.5324 33.4489 13.5324C33.4489 13.5679 33.4489 13.6033 33.4489 13.6398C34.9017 14.1393 36.6319 13.9719 38.0129 13.3375C38.8777 12.9048 39.5646 12.2529 39.8743 11.3302C39.8963 11.2773 39.9183 11.2245 39.941 11.1701C40.2338 10.4666 40.3341 9.78656 40.3274 9.03238C40.3265 8.91666 40.3274 8.80104 40.3284 8.68533C40.3295 7.9981 40.2432 7.3296 39.9857 6.68735C39.9714 6.65164 39.9572 6.61593 39.9425 6.57913C39.9025 6.47952 39.8614 6.38031 39.8203 6.28114C39.8026 6.23537 39.7848 6.18961 39.7665 6.14245C39.6212 5.78592 39.4101 5.45575 39.1724 5.15317C39.1367 5.15317 39.1011 5.15317 39.0644 5.15317C39.0459 5.0948 39.0459 5.0948 39.027 5.03525C38.7802 4.50901 38.0707 4.08371 37.5453 3.88252C36.7849 3.60933 36.0486 3.47541 35.2408 3.47127C35.1568 3.47082 35.1568 3.47082 35.071 3.47036C34.389 3.47674 33.6345 3.57882 33.1249 4.0789Z" fill="#175D63"/>
<path d="M144.308 1.85034C144.469 1.86346 144.469 1.86346 144.63 1.87657C144.818 2.30126 144.994 2.72764 145.156 3.16309C145.272 3.47678 145.398 3.78615 145.526 4.09517C145.584 4.24779 145.633 4.39628 145.678 4.55257C145.761 4.83242 145.867 5.09886 145.979 5.36792C146.09 5.63278 146.195 5.8939 146.273 6.17026C146.345 6.42058 146.449 6.6478 146.56 6.88316C146.669 7.12646 146.752 7.37787 146.837 7.63058C146.981 8.05261 147.134 8.46761 147.311 8.87713C147.386 9.05331 147.455 9.22903 147.514 9.4113C147.609 9.70103 147.722 9.98283 147.835 10.2659C147.995 10.6677 148.148 11.07 148.292 11.4778C148.375 11.7067 148.467 11.9319 148.559 12.1574C148.673 12.4389 148.775 12.7236 148.876 13.0099C148.959 13.2383 149.048 13.4641 149.138 13.6901C149.257 13.9908 149.369 14.2923 149.469 14.5999C149.564 14.8922 149.674 15.1726 149.796 15.4549C149.879 15.6566 149.951 15.8609 150.022 16.0669C150.134 16.3897 150.257 16.7057 150.39 17.0203C150.487 17.2498 150.581 17.4744 150.647 17.7152C150.734 18.033 150.871 18.3315 151.003 18.633C151.092 18.838 151.175 19.0412 151.243 19.254C151.326 19.5069 151.434 19.7424 151.551 19.9812C151.572 20.0254 151.594 20.0696 151.616 20.1152C151.68 20.2487 151.745 20.3819 151.811 20.515C151.83 20.5532 151.848 20.5915 151.868 20.6309C151.99 20.8799 152.116 21.1276 152.243 21.3744C152.263 21.4145 152.284 21.4546 152.305 21.4959C152.37 21.6201 152.434 21.7441 152.499 21.8679C152.529 21.9249 152.529 21.9249 152.559 21.983C152.647 22.1487 152.731 22.2906 152.85 22.4371C152.973 22.5913 152.967 22.6867 152.945 22.8784C152.855 22.9681 152.745 22.9388 152.624 22.9394C152.567 22.9392 152.567 22.9392 152.509 22.939C152.449 22.9392 152.449 22.9392 152.388 22.9393C152.255 22.9396 152.122 22.9394 151.99 22.9392C151.898 22.9393 151.806 22.9393 151.714 22.9394C151.522 22.9395 151.329 22.9394 151.136 22.9391C150.889 22.9388 150.641 22.939 150.394 22.9393C150.204 22.9395 150.015 22.9394 149.825 22.9393C149.734 22.9392 149.642 22.9393 149.551 22.9394C149.424 22.9396 149.296 22.9393 149.169 22.939C149.131 22.9392 149.093 22.9393 149.054 22.9394C148.793 22.9382 148.793 22.9382 148.733 22.8784C148.714 22.6788 148.736 22.5359 148.814 22.3547C148.979 21.9494 148.901 21.5142 148.794 21.1025C148.782 21.0574 148.771 21.0123 148.759 20.9658C148.606 20.3989 148.372 19.8622 148.146 19.3211C148.044 19.0716 147.954 18.8184 147.866 18.5637C147.817 18.4199 147.817 18.4199 147.754 18.2834C147.703 18.1407 147.704 18.0332 147.707 17.8831C147.673 17.8804 147.638 17.8777 147.602 17.875C147.263 17.8468 146.929 17.8046 146.592 17.7537C144.89 17.4962 143.222 17.4634 141.507 17.5763C141.053 17.6058 140.603 17.6215 140.148 17.6145C140.142 17.6632 140.137 17.712 140.131 17.7622C140.054 18.2824 139.892 18.7575 139.689 19.24C139.662 19.3068 139.635 19.3737 139.608 19.4407C139.594 19.4744 139.581 19.508 139.567 19.5426C139.432 19.9073 139.376 20.2859 139.318 20.6684C139.301 20.7834 139.283 20.8983 139.264 21.0131C139.141 21.7451 139.141 21.7451 139.302 22.4562C139.354 22.5998 139.353 22.7279 139.338 22.8784C139.241 22.9744 139.098 22.9423 138.967 22.9448C138.9 22.9462 138.832 22.9477 138.762 22.9491C138.687 22.9504 138.613 22.9516 138.538 22.9529C138.462 22.9542 138.387 22.9556 138.311 22.957C138.151 22.9599 137.992 22.9625 137.832 22.965C137.628 22.9682 137.423 22.9722 137.219 22.9764C137.062 22.9795 136.905 22.9821 136.748 22.9845C136.673 22.9858 136.597 22.9872 136.522 22.9889C136.417 22.9911 136.311 22.9925 136.206 22.9939C136.146 22.995 136.086 22.996 136.024 22.9971C135.882 22.9858 135.882 22.9858 135.774 22.8784C135.739 22.6002 135.815 22.4584 135.97 22.2305C136.194 21.8881 136.364 21.5336 136.53 21.1596C136.586 21.0409 136.643 20.9223 136.699 20.8037C136.794 20.599 136.881 20.3956 136.955 20.1827C137.05 19.9126 137.165 19.6542 137.283 19.3937C137.434 19.0604 137.575 18.7258 137.704 18.3833C137.783 18.1781 137.866 17.9752 137.951 17.7723C138.095 17.4273 138.236 17.0815 138.376 16.735C138.394 16.6922 138.411 16.6495 138.429 16.6055C138.519 16.3819 138.604 16.1575 138.686 15.9307C138.823 15.5524 138.983 15.1841 139.142 14.8146C139.266 14.5242 139.371 14.2375 139.458 13.9344C139.535 13.6885 139.639 13.4536 139.74 13.2167C139.891 12.8545 140.032 12.4945 140.15 12.1198C140.21 11.9523 140.284 11.7958 140.361 11.6356C140.477 11.3918 140.572 11.1508 140.654 10.8937C140.773 10.5221 140.921 10.1681 141.076 9.81017C141.184 9.55954 141.274 9.31356 141.345 9.0502C141.419 8.82484 141.521 8.61168 141.619 8.39596C141.736 8.13358 141.837 7.86885 141.93 7.59701C142.036 7.28639 142.155 6.98636 142.291 6.68725C142.39 6.46877 142.484 6.25447 142.547 6.02255C142.634 5.70676 142.77 5.41202 142.899 5.11201C143.034 4.79847 143.153 4.48225 143.265 4.16C143.357 3.90642 143.463 3.65884 143.568 3.41025C143.7 3.09353 143.816 2.77249 143.925 2.447C144.113 1.89668 144.113 1.89668 144.308 1.85034ZM143.874 7.30159C143.75 7.57703 143.649 7.85398 143.556 8.14086C143.442 8.4889 143.318 8.8308 143.183 9.17169C143.1 9.38777 143.028 9.60668 142.956 9.82631C142.851 10.1439 142.735 10.457 142.617 10.7704C142.481 11.1367 142.351 11.5053 142.222 11.8745C142.145 12.0971 142.064 12.3174 141.974 12.5353C141.896 12.7217 141.835 12.909 141.778 13.1026C141.677 13.4389 141.551 13.7616 141.421 14.0873C141.304 14.381 141.208 14.6767 141.119 14.9798C141.043 15.2137 140.947 15.4367 140.847 15.6613C140.789 15.7821 140.789 15.7821 140.796 15.8957C142.827 15.8957 144.858 15.8957 146.951 15.8957C146.768 15.1616 146.768 15.1616 146.519 14.4589C146.481 14.3618 146.443 14.2647 146.405 14.1676C146.378 14.0999 146.378 14.0999 146.351 14.0307C146.294 13.8839 146.244 13.7358 146.195 13.586C146.101 13.293 145.99 13.007 145.878 12.7199C145.722 12.3183 145.578 11.9148 145.444 11.5055C145.348 11.2133 145.241 10.927 145.125 10.6419C145.073 10.5024 145.029 10.365 144.988 10.2224C144.894 9.90394 144.776 9.59558 144.657 9.28562C144.528 8.95055 144.402 8.61597 144.29 8.27507C144.225 8.08183 144.152 7.89157 144.079 7.70108C144.065 7.66227 144.05 7.62346 144.035 7.58348C143.999 7.48948 143.963 7.39553 143.928 7.30159C143.91 7.30159 143.892 7.30159 143.874 7.30159Z" fill="#175D63"/>
<path d="M94.0866 1.8768C94.1917 1.86107 94.1917 1.86107 94.3094 1.86673C94.3784 1.87006 94.4474 1.87338 94.5186 1.8768C94.5605 1.96505 94.6021 2.0535 94.6434 2.14201C94.6666 2.19124 94.6898 2.24047 94.7137 2.29119C94.7703 2.42472 94.8186 2.55373 94.8634 2.6911C94.9608 2.98868 95.0772 3.27811 95.1935 3.56877C95.4286 4.1562 95.4286 4.1562 95.5194 4.43405C95.6038 4.69262 95.7071 4.9423 95.8111 5.19359C95.9562 5.54803 96.0882 5.89954 96.188 6.26974C96.2412 6.42684 96.3039 6.56977 96.3743 6.71979C96.5143 7.02071 96.6238 7.32655 96.729 7.64089C96.8699 8.05369 97.0191 8.45546 97.2008 8.85237C97.2732 9.02268 97.3313 9.19371 97.3889 9.36936C97.4747 9.62379 97.5718 9.87413 97.6672 10.1251C97.7106 10.2396 97.7539 10.3541 97.7973 10.4686C97.8183 10.524 97.8394 10.5795 97.861 10.6366C97.9126 10.7728 97.9637 10.9091 98.0146 11.0456C98.1513 11.4123 98.2924 11.7757 98.4507 12.1339C98.5047 12.2725 98.548 12.4082 98.5895 12.5508C98.6729 12.8333 98.7792 13.1029 98.8922 13.3748C99.0141 13.6695 99.1282 13.9633 99.2272 14.2664C99.3101 14.5086 99.4078 14.7452 99.503 14.9828C99.6676 15.3966 99.8245 15.8116 99.9702 16.2324C100.064 16.5016 100.17 16.7633 100.287 17.0237C100.341 17.1608 100.383 17.2943 100.424 17.4356C100.513 17.7361 100.629 18.0213 100.752 18.3097C100.877 18.6079 101 18.9057 101.109 19.2104C101.196 19.4509 101.294 19.6812 101.406 19.911C101.498 20.101 101.588 20.2908 101.67 20.485C101.765 20.7027 101.874 20.9104 101.987 21.1195C102.008 21.1595 102.03 21.1994 102.052 21.2406C102.095 21.3203 102.138 21.4 102.181 21.4796C102.232 21.5752 102.283 21.6711 102.334 21.767C102.451 21.9851 102.567 22.1897 102.719 22.3851C102.844 22.5718 102.865 22.6592 102.834 22.8786C102.744 22.9684 102.634 22.9391 102.513 22.9396C102.456 22.9394 102.456 22.9394 102.398 22.9393C102.338 22.9394 102.338 22.9394 102.277 22.9396C102.144 22.9398 102.011 22.9396 101.879 22.9395C101.787 22.9395 101.695 22.9396 101.603 22.9396C101.411 22.9397 101.218 22.9396 101.025 22.9393C100.778 22.939 100.53 22.9392 100.283 22.9395C100.093 22.9397 99.9037 22.9397 99.7141 22.9395C99.6228 22.9395 99.5315 22.9395 99.4403 22.9397C99.3129 22.9398 99.1855 22.9396 99.0582 22.9393C99.0201 22.9394 98.982 22.9395 98.9428 22.9396C98.6824 22.9385 98.6824 22.9385 98.6222 22.8786C98.6026 22.679 98.6249 22.5361 98.7032 22.3549C99.0463 21.4878 98.4046 20.2382 98.0886 19.4366C98.0374 19.3035 97.9909 19.1705 97.9473 19.0348C97.8662 18.7827 97.7585 18.5434 97.6497 18.3021C97.596 18.1511 97.5855 18.042 97.5963 17.8833C97.5653 17.8813 97.5344 17.8793 97.5025 17.8772C97.1694 17.8516 96.8424 17.8062 96.513 17.7524C94.8102 17.4768 93.114 17.4635 91.3959 17.5765C90.9424 17.606 90.4916 17.6218 90.037 17.6147C90.0317 17.6645 90.0264 17.7142 90.021 17.7654C89.9802 18.0479 89.8922 18.3163 89.8075 18.5883C89.7905 18.6438 89.7736 18.6992 89.7561 18.7564C89.6696 19.0349 89.5768 19.3043 89.4599 19.5719C89.1759 20.2676 88.8505 21.6235 89.1461 22.3516C89.1682 22.4035 89.1682 22.4035 89.1908 22.4565C89.2429 22.6 89.2418 22.7281 89.2271 22.8786C89.1306 22.9746 88.9869 22.942 88.8564 22.9442C88.7547 22.9461 88.7547 22.9461 88.6511 22.948C88.5765 22.9491 88.502 22.9502 88.4275 22.9512C88.3515 22.9525 88.2756 22.9537 88.1997 22.955C88.0403 22.9576 87.8809 22.96 87.7216 22.9623C87.517 22.9652 87.3125 22.9687 87.108 22.9722C86.9511 22.9749 86.7942 22.9773 86.6373 22.9797C86.5619 22.9808 86.4865 22.9821 86.4111 22.9834C86.3058 22.9852 86.2004 22.9867 86.095 22.9881C86.035 22.989 85.975 22.9899 85.9131 22.9908C85.7714 22.986 85.7714 22.986 85.6634 22.9323C85.6412 22.6288 85.6875 22.4773 85.8591 22.2273C86.0844 21.8865 86.2545 21.5335 86.4193 21.1598C86.4654 21.0613 86.5115 20.9628 86.5577 20.8644C86.6784 20.6002 86.7817 20.3311 86.8846 20.0597C86.9818 19.8135 87.0895 19.5725 87.1974 19.3308C87.2969 19.1068 87.3891 18.8815 87.4756 18.6521C87.5639 18.4183 87.6615 18.1928 87.7692 17.9672C87.9111 17.6677 88.0238 17.3641 88.1324 17.0514C88.2 16.866 88.2761 16.6872 88.3564 16.5069C88.5129 16.1518 88.6399 15.7898 88.7657 15.423C88.8671 15.1302 88.9827 14.8507 89.1172 14.5711C89.1714 14.4494 89.2089 14.3323 89.2439 14.204C89.3329 13.8866 89.4678 13.5904 89.5986 13.2885C89.7227 12.9994 89.8341 12.7088 89.9357 12.4113C90.0513 12.0731 90.19 11.7542 90.3451 11.4316C90.4059 11.2968 90.4506 11.1704 90.4892 11.0282C90.5638 10.7565 90.6742 10.504 90.7862 10.246C90.9206 9.93573 91.0441 9.62794 91.1473 9.306C91.2518 8.98005 91.3786 8.67128 91.522 8.36084C91.6218 8.14282 91.702 7.92391 91.7761 7.69602C91.8506 7.47695 91.9401 7.26401 92.0281 7.05005C92.1548 6.73864 92.278 6.42735 92.3891 6.11007C92.5001 5.79425 92.6257 5.4865 92.7552 5.17793C92.9217 4.77967 93.0727 4.37623 93.2227 3.97161C93.4018 3.48939 93.5855 3.00928 93.7762 2.53143C93.7946 2.48489 93.813 2.43834 93.832 2.39038C93.8495 2.34685 93.867 2.30331 93.885 2.25846C93.9005 2.21977 93.9159 2.18108 93.9319 2.14121C93.9786 2.03794 93.9786 2.03794 94.0866 1.8768ZM93.7627 7.30183C93.7292 7.36276 93.6958 7.42369 93.6614 7.48646C93.6332 7.53788 93.6332 7.53788 93.6045 7.59032C93.5536 7.71455 93.5264 7.8202 93.5003 7.95079C93.4362 8.25457 93.3202 8.53266 93.2025 8.81922C93.0501 9.19747 92.9091 9.57193 92.7958 9.96377C92.6983 10.2689 92.5793 10.566 92.4616 10.8639C92.3561 11.1331 92.2655 11.4022 92.1844 11.6795C92.1126 11.9111 92.0224 12.1354 91.9336 12.3609C91.7809 12.7532 91.6404 13.1461 91.51 13.5462C91.4298 13.7796 91.3399 14.0083 91.2485 14.2375C91.116 14.5701 90.9972 14.9027 90.8967 15.2465C90.8313 15.4646 90.7573 15.68 90.6849 15.8959C92.7162 15.8959 94.7475 15.8959 96.8404 15.8959C96.7008 15.3406 96.5635 14.8384 96.351 14.3147C96.3042 14.1974 96.2574 14.0799 96.2108 13.9625C96.1888 13.9071 96.1668 13.8517 96.1441 13.7947C96.0781 13.6235 96.0192 13.4511 95.9624 13.2767C95.884 13.041 95.796 12.8087 95.7099 12.5758C95.4829 11.9592 95.4829 11.9592 95.3825 11.6492C95.2854 11.3518 95.1718 11.0613 95.0585 10.7697C94.9189 10.41 94.7924 10.0516 94.6837 9.68136C94.5977 9.41442 94.4917 9.15582 94.3875 8.89545C94.2702 8.59952 94.1719 8.30145 94.0818 7.99611C94.0076 7.75889 93.9142 7.53038 93.8166 7.30183C93.7988 7.30183 93.781 7.30183 93.7627 7.30183Z" fill="#175D63"/>
<path d="M49.1633 1.87693C49.2684 1.86119 49.2684 1.86119 49.3861 1.86686C49.4551 1.87018 49.5242 1.8735 49.5953 1.87693C49.8692 2.48566 50.1392 3.08819 50.3403 3.72499C50.414 3.94403 50.5006 4.15517 50.5908 4.36787C50.7362 4.71087 50.8661 5.05654 50.988 5.40843C51.1 5.72975 51.2255 6.04426 51.3558 6.35861C51.4113 6.49946 51.4612 6.63823 51.5081 6.78181C51.6113 7.09501 51.7387 7.39775 51.8652 7.70217C51.9558 7.92362 52.0381 8.14294 52.1044 8.37285C52.1911 8.67102 52.3088 8.95331 52.43 9.23898C52.5628 9.55307 52.6888 9.86524 52.794 10.1896C52.8853 10.4574 52.9985 10.7174 53.1071 10.9787C53.1978 11.2003 53.2801 11.4199 53.3465 11.65C53.4322 11.9446 53.5486 12.2232 53.6686 12.5054C53.8181 12.8625 53.9587 13.2171 54.0752 13.5864C54.1632 13.8411 54.2696 14.0882 54.376 14.3358C54.4464 14.5012 54.5089 14.6608 54.558 14.8339C54.6451 15.1337 54.7625 15.4209 54.8767 15.7114C55.0457 16.1443 55.2108 16.5775 55.365 17.0158C55.4489 17.2457 55.5417 17.4715 55.6344 17.6979C55.715 17.8965 55.7871 18.0955 55.852 18.2997C55.9897 18.7244 56.1717 19.1319 56.3492 19.5413C56.3932 19.6433 56.4364 19.7456 56.4795 19.8479C56.5715 20.0564 56.6728 20.2588 56.7767 20.4617C56.9125 20.7269 57.0367 20.9935 57.1546 21.2673C57.2049 21.3644 57.2566 21.4607 57.3099 21.5561C57.3379 21.6064 57.366 21.6567 57.3949 21.7086C57.4225 21.758 57.4501 21.8073 57.4786 21.8582C57.5159 21.9264 57.5159 21.9264 57.5539 21.996C57.5769 22.0381 57.6 22.0801 57.6237 22.1234C57.6541 22.179 57.6541 22.179 57.6851 22.2357C57.7478 22.3457 57.7478 22.3457 57.8365 22.452C57.9393 22.5971 57.926 22.7056 57.9106 22.8787C57.821 22.9678 57.7131 22.9392 57.5935 22.9397C57.5371 22.9396 57.5371 22.9396 57.4796 22.9394C57.4401 22.9395 57.4007 22.9396 57.3601 22.9397C57.2292 22.9399 57.0983 22.9398 56.9673 22.9396C56.8767 22.9396 56.7862 22.9397 56.6956 22.9397C56.5055 22.9398 56.3154 22.9397 56.1253 22.9395C55.881 22.9392 55.6368 22.9393 55.3926 22.9396C55.2055 22.9398 55.0183 22.9398 54.8312 22.9396C54.7411 22.9396 54.651 22.9397 54.561 22.9398C54.4353 22.9399 54.3096 22.9397 54.1839 22.9394C54.1464 22.9395 54.1088 22.9396 54.07 22.9397C53.8131 22.9386 53.8131 22.9386 53.7529 22.8787C53.7335 22.5888 53.7335 22.5888 53.8061 22.4679C54.0334 21.9442 53.8656 21.2224 53.6711 20.716C53.6579 20.6834 53.6447 20.6508 53.6311 20.6172C53.5891 20.5106 53.5512 20.4031 53.5142 20.2946C53.3086 19.6925 53.0685 19.1063 52.8171 18.5219C52.7875 18.4518 52.7875 18.4518 52.7574 18.3803C52.7408 18.3418 52.7241 18.3033 52.707 18.2636C52.6672 18.1328 52.6708 18.0195 52.673 17.8834C52.6384 17.8808 52.6037 17.8781 52.568 17.8753C52.229 17.8472 51.8943 17.8049 51.558 17.754C49.8545 17.4963 48.1846 17.4643 46.4677 17.5766C46.0339 17.6048 45.6027 17.6223 45.1677 17.6149C45.1617 17.6681 45.1556 17.7214 45.1494 17.7762C45.1173 17.9985 45.0491 18.2053 44.9743 18.4166C44.9459 18.4991 44.9175 18.5816 44.8892 18.664C44.8449 18.7915 44.8005 18.9188 44.7559 19.0461C44.1233 20.7353 44.1233 20.7353 44.2683 22.4427C44.3192 22.6059 44.3058 22.7627 44.3038 22.9325C43.8621 22.9407 43.4205 22.9487 42.9788 22.9562C42.7737 22.9598 42.5686 22.9634 42.3636 22.9673C42.1658 22.971 41.968 22.9745 41.7702 22.9777C41.6946 22.979 41.619 22.9804 41.5435 22.9819C41.4378 22.984 41.3322 22.9857 41.2266 22.9873C41.1363 22.9889 41.1363 22.9889 41.0442 22.9906C40.9021 22.9862 40.9021 22.9862 40.7941 22.9325C40.7561 22.5736 40.8775 22.3692 41.0607 22.0663C41.4708 21.3579 41.7785 20.6145 42.0666 19.85C42.1952 19.5275 42.3382 19.2112 42.4785 18.8937C42.6407 18.5247 42.7918 18.153 42.9357 17.7767C43.0181 17.5623 43.1055 17.3528 43.2036 17.1449C43.3326 16.871 43.431 16.5898 43.5307 16.3043C43.6015 16.1119 43.6807 15.9257 43.7638 15.7383C43.8763 15.4829 43.972 15.2283 44.0574 14.9628C44.1652 14.6294 44.2971 14.3148 44.4418 13.9958C44.5248 13.8111 44.5985 13.6307 44.6514 13.4353C44.7375 13.1195 44.8738 12.8248 45.0033 12.5248C45.1376 12.2118 45.2564 11.8962 45.3683 11.5744C45.4638 11.3126 45.5713 11.0562 45.6808 10.7999C45.7597 10.6134 45.8318 10.4272 45.8947 10.2348C45.9809 9.97146 46.0847 9.71667 46.1902 9.46054C46.3108 9.16527 46.4277 8.87164 46.5243 8.56756C46.5943 8.34856 46.6805 8.14681 46.7808 7.93979C46.9131 7.66378 47.0149 7.38772 47.1081 7.09717C47.2222 6.74208 47.3557 6.40438 47.5107 6.06514C47.6437 5.77062 47.7517 5.47068 47.8566 5.16531C47.9635 4.85706 48.09 4.55999 48.222 4.26149C48.3259 4.01671 48.4121 3.76692 48.4998 3.51601C48.5722 3.31963 48.6535 3.12924 48.7381 2.93776C48.8532 2.6768 48.9481 2.42045 49.0208 2.14486C49.0553 2.03807 49.0553 2.03807 49.1633 1.87693ZM48.8934 7.30195C48.6807 7.74047 48.5151 8.18668 48.3602 8.64813C48.2073 9.09829 48.0515 9.54628 47.8742 9.9876C47.7489 10.2994 47.6433 10.6112 47.5481 10.9337C47.4636 11.196 47.3601 11.45 47.2578 11.7059C47.1282 12.0327 47.0155 12.3632 46.9066 12.6974C46.8203 12.959 46.7243 13.2143 46.6188 13.4689C46.498 13.7624 46.3988 14.0554 46.3092 14.3596C46.2168 14.6499 46.1077 14.9339 45.9978 15.2181C45.982 15.2595 45.9662 15.3009 45.95 15.3436C45.9358 15.3802 45.9216 15.4168 45.907 15.4546C45.862 15.598 45.8405 15.7478 45.8156 15.896C47.8469 15.896 49.8782 15.896 51.9711 15.896C51.8402 15.462 51.7012 15.0349 51.5526 14.6069C51.5408 14.5727 51.5289 14.5385 51.5167 14.5033C51.3588 14.0474 51.193 13.5956 51.0132 13.1478C50.9061 12.8792 50.8198 12.6081 50.7381 12.3306C50.638 12.0211 50.5186 11.7191 50.4001 11.4162C50.3162 11.2013 50.2346 10.9867 50.1627 10.7675C50.0564 10.444 49.9295 10.1285 49.8044 9.81188C49.6955 9.53195 49.6114 9.25882 49.5413 8.96705C49.5004 8.84334 49.4577 8.72021 49.4131 8.59778C49.3895 8.53304 49.3659 8.4683 49.3416 8.4016C49.265 8.1982 49.1836 7.99713 49.1011 7.79607C49.0382 7.63371 48.9915 7.47024 48.9474 7.30195C48.9295 7.30195 48.9117 7.30195 48.8934 7.30195Z" fill="#175D63"/>
<path d="M196.312 1.47601C196.474 1.47757 196.636 1.47711 196.799 1.47642C197.573 1.4772 198.28 1.55983 199.015 1.81999C199.056 1.83412 199.097 1.84825 199.139 1.86281C199.219 1.89063 199.299 1.91866 199.379 1.94693C199.472 1.97933 199.566 2.00979 199.66 2.03988C200.037 2.16412 200.35 2.34996 200.675 2.57533C200.715 2.60261 200.756 2.62989 200.797 2.658C201.085 2.86144 201.371 3.09381 201.485 3.43474C201.482 4.03875 201.451 5.61706 200.999 6.06668C200.734 6.13144 200.734 6.13144 200.567 6.06668C200.357 5.8103 200.186 5.52166 200.081 5.20727C200.022 5.14464 199.962 5.08254 199.899 5.02326C199.833 4.96004 199.769 4.89494 199.706 4.82897C198.841 3.93336 197.757 3.55685 196.517 3.48845C196.474 3.48499 196.431 3.48153 196.386 3.47796C195.744 3.44889 195.031 3.61609 194.466 3.91816C194.407 3.94696 194.348 3.97577 194.287 4.00544C194.215 4.042 194.215 4.042 194.142 4.0793C194.102 4.09591 194.061 4.11253 194.02 4.12965C193.918 4.17982 193.918 4.17982 193.877 4.28618C193.812 4.41192 193.739 4.48692 193.639 4.58621C193.159 5.11854 193.023 5.92336 193.042 6.61577C193.091 7.43561 193.341 8.07642 193.872 8.69862C193.917 8.75616 193.917 8.75616 193.963 8.81486C194.249 9.16868 194.584 9.44289 194.988 9.65287C195.116 9.72033 195.237 9.79419 195.36 9.87024C195.926 10.2096 196.529 10.4795 197.134 10.7432C197.511 10.9085 197.879 11.0879 198.245 11.2768C198.3 11.3051 198.356 11.3333 198.413 11.3625C198.692 11.5092 198.927 11.6599 199.163 11.8677C199.213 11.8998 199.263 11.9319 199.315 11.965C199.656 12.198 199.955 12.4867 200.243 12.7808C200.281 12.8161 200.319 12.8513 200.358 12.8876C200.602 13.1187 200.788 13.332 200.939 13.6318C200.996 13.7417 201.06 13.8378 201.131 13.939C201.981 15.2786 202.01 17.2882 201.674 18.7904C201.665 18.8279 201.656 18.8655 201.647 18.9041C201.638 18.9427 201.629 18.9813 201.62 19.0211C201.284 20.4069 200.45 21.6693 199.227 22.4372C199.081 22.5182 198.936 22.5929 198.785 22.664C198.743 22.6847 198.702 22.7053 198.659 22.7266C198.284 22.9057 197.914 23.0161 197.51 23.1072C197.423 23.1277 197.423 23.1277 197.335 23.1487C196.736 23.2878 196.17 23.3196 195.556 23.3186C195.519 23.3186 195.482 23.3186 195.444 23.3186C194.524 23.3169 193.637 23.2326 192.738 23.04C192.68 23.0279 192.623 23.0158 192.563 23.0033C192.169 22.9135 191.808 22.7802 191.442 22.6103C191.41 22.5959 191.379 22.5814 191.346 22.5665C190.932 22.3746 190.575 22.1562 190.237 21.8483C190.208 21.8215 190.178 21.7947 190.148 21.767C189.944 21.5718 189.839 21.4073 189.805 21.1269C189.8 20.5646 189.905 20.0286 190.011 19.4782C190.029 19.3804 190.048 19.2827 190.066 19.1849C190.11 18.948 190.155 18.7112 190.2 18.4744C190.564 18.4614 190.564 18.4614 190.693 18.5785C190.773 18.7091 190.846 18.8397 190.919 18.9746C191.409 19.8765 192.308 20.4825 193.224 20.8915C193.283 20.9197 193.342 20.9479 193.404 20.9769C193.653 21.0722 193.9 21.1202 194.162 21.1668C194.21 21.1758 194.259 21.1849 194.308 21.1943C195.383 21.3916 196.637 21.4098 197.614 20.8411C197.662 20.8046 197.71 20.768 197.759 20.7304C197.793 20.7124 197.826 20.6945 197.861 20.676C198.198 20.4943 198.371 20.2455 198.569 19.9247C198.594 19.8864 198.619 19.8482 198.645 19.8088C199.224 18.868 199.271 17.5856 199.03 16.5371C198.901 16.0137 198.735 15.5806 198.407 15.1442C198.379 15.1025 198.351 15.0608 198.322 15.0179C198.068 14.6596 197.74 14.4268 197.381 14.1774C197.336 14.1435 197.29 14.1096 197.242 14.0748C196.911 13.8334 196.563 13.6548 196.193 13.4791C196.091 13.4278 195.989 13.3763 195.886 13.3247C195.668 13.2155 195.447 13.1108 195.225 13.0084C194.837 12.8292 194.454 12.642 194.074 12.4451C194.01 12.4119 194.01 12.4119 193.944 12.378C193.72 12.2607 193.527 12.1367 193.332 11.9751C193.255 11.9318 193.178 11.8903 193.099 11.8509C192.877 11.7319 192.699 11.5914 192.514 11.4223C192.421 11.3369 192.324 11.258 192.225 11.1795C192.18 11.1407 192.136 11.1019 192.09 11.062C192.09 11.0265 192.09 10.9911 192.09 10.9546C192.055 10.9402 192.021 10.9258 191.985 10.9109C191.874 10.8471 191.874 10.8471 191.82 10.686C191.771 10.6661 191.771 10.6661 191.722 10.6457C191.576 10.5628 191.526 10.4617 191.449 10.3163C191.38 10.1876 191.303 10.0648 191.226 9.94074C190.455 8.64914 190.456 7.03089 190.686 5.58326C190.7 5.4819 190.7 5.4819 190.714 5.37848C190.797 4.86798 190.982 4.45708 191.23 4.00935C191.271 3.93454 191.309 3.85803 191.345 3.78115C191.738 2.97759 192.561 2.34745 193.386 2.0382C193.448 2.01293 193.51 1.98766 193.573 1.96162C194.479 1.59841 195.336 1.46578 196.312 1.47601Z" fill="#175D63"/>
<path d="M99.7031 1.87688C100.122 1.87293 100.54 1.8823 100.959 1.89872C101.541 1.92139 102.116 1.94069 102.698 1.89073C103.049 1.86526 103.401 1.8727 103.753 1.87688C103.766 2.15096 103.759 2.36783 103.672 2.62887C103.448 3.31766 103.73 3.97268 103.955 4.62842C104.038 4.87226 104.113 5.11622 104.181 5.36488C104.277 5.71005 104.401 6.04129 104.528 6.37597C104.647 6.69147 104.746 7.00884 104.837 7.33298C104.935 7.67197 105.057 7.99954 105.183 8.32917C105.276 8.57537 105.357 8.82041 105.427 9.07444C105.507 9.37045 105.608 9.65408 105.717 9.94056C105.868 10.3393 105.998 10.7408 106.117 11.1501C106.216 11.4845 106.328 11.8122 106.447 12.14C106.524 12.3543 106.596 12.5689 106.662 12.7874C106.762 13.12 106.877 13.4468 106.992 13.7743C107.125 14.1497 107.253 14.5248 107.367 14.9061C107.46 15.2066 107.563 15.5041 107.663 15.8022C107.772 16.1241 107.874 16.4472 107.973 16.7722C108.034 16.9669 108.105 17.1563 108.18 17.3462C108.3 17.1675 108.347 16.9965 108.403 16.7923C108.511 16.4108 108.639 16.0394 108.778 15.6677C108.911 15.3093 109.037 14.952 109.145 14.5853C109.231 14.3127 109.327 14.0438 109.422 13.7743C109.555 13.3979 109.682 13.0215 109.797 12.639C109.873 12.3977 109.958 12.1597 110.043 11.9212C110.165 11.5777 110.281 11.2338 110.386 10.8847C110.524 10.4416 110.676 10.0027 110.824 9.56281C110.878 9.40312 110.931 9.24332 110.984 9.08346C111.254 8.27372 111.254 8.27372 111.38 7.93975C111.445 7.76446 111.499 7.59016 111.547 7.40912C111.639 7.06747 111.751 6.73377 111.865 6.39885C112.025 5.92518 112.184 5.45125 112.338 4.97546C112.354 4.92745 112.369 4.87945 112.385 4.82999C112.62 4.09908 112.702 3.05972 112.362 2.34457C112.336 2.29658 112.31 2.2486 112.284 2.19916C112.27 2.0481 112.27 2.0481 112.284 1.9306C112.338 1.87688 112.338 1.87688 112.474 1.86975C112.841 1.87059 113.204 1.88263 113.57 1.9071C113.93 1.93045 114.28 1.92539 114.64 1.89884C115.061 1.86851 115.48 1.87216 115.902 1.87688C115.957 2.07989 115.961 2.18252 115.858 2.36702C115.829 2.4204 115.829 2.4204 115.799 2.47486C115.746 2.56381 115.689 2.65028 115.632 2.73629C115.596 2.73629 115.56 2.73629 115.524 2.73629C115.509 2.77415 115.495 2.812 115.48 2.851C115.412 3.01268 115.334 3.16382 115.251 3.31812C115.203 3.40841 115.203 3.40841 115.154 3.50052C115.137 3.53198 115.12 3.56344 115.103 3.59584C114.804 4.15729 114.541 4.71187 114.336 5.31452C114.29 5.42995 114.244 5.54521 114.197 5.6603C114.096 5.92128 114.014 6.1835 113.938 6.45257C113.831 6.82695 113.699 7.1853 113.554 7.54616C113.461 7.77691 113.38 8.00639 113.31 8.24524C113.216 8.56295 113.092 8.86199 112.962 9.16628C112.868 9.38943 112.787 9.61041 112.719 9.8432C112.63 10.1509 112.514 10.4434 112.392 10.7395C112.249 11.0881 112.122 11.4337 112.017 11.7958C111.932 12.064 111.825 12.3234 111.72 12.5847C111.629 12.8157 111.547 13.0454 111.477 13.2842C111.373 13.6392 111.232 13.9766 111.092 14.3185C110.969 14.6196 110.866 14.9205 110.775 15.2328C110.69 15.5017 110.584 15.7625 110.478 16.024C110.396 16.227 110.324 16.4288 110.263 16.639C110.157 16.9995 110.012 17.3439 109.871 17.6918C109.757 17.9773 109.657 18.2612 109.571 18.5564C109.499 18.791 109.407 19.0181 109.318 19.2463C109.201 19.5456 109.086 19.8439 108.987 20.1494C108.901 20.4158 108.8 20.6748 108.697 20.935C108.551 21.3008 108.421 21.6682 108.299 22.0424C108.198 22.343 108.082 22.6376 107.964 22.9324C107.804 22.9324 107.644 22.9324 107.478 22.9324C107.436 22.8273 107.395 22.7221 107.354 22.6168C107.33 22.5583 107.307 22.4997 107.283 22.4393C107.226 22.2886 107.179 22.1367 107.134 21.9819C107.04 21.6657 106.922 21.36 106.803 21.0525C106.669 20.7047 106.543 20.3589 106.439 20.0011C106.369 19.7741 106.28 19.5545 106.193 19.3336C106.037 18.9334 105.892 18.5316 105.759 18.1235C105.659 17.8195 105.548 17.521 105.433 17.2224C105.348 17.0018 105.275 16.7803 105.207 16.554C105.093 16.1724 104.937 15.8121 104.777 15.4478C104.725 15.3052 104.725 15.3052 104.68 15.1161C104.603 14.7977 104.475 14.4978 104.353 14.194C104.188 13.7802 104.039 13.3677 103.911 12.9412C103.842 12.7217 103.759 12.51 103.672 12.2972C103.542 11.9719 103.428 11.6474 103.329 11.3113C103.231 11.0023 103.117 10.6994 103.004 10.3954C102.877 10.0502 102.753 9.70394 102.632 9.35643C102.54 9.091 102.447 8.82719 102.339 8.56752C102.263 8.38423 102.203 8.20055 102.146 8.01025C102.034 7.63632 101.893 7.27546 101.751 6.91189C101.65 6.65024 101.556 6.38989 101.478 6.12022C101.391 5.82318 101.27 5.55228 101.132 5.27508C101.07 5.13747 101.022 5.00862 100.977 4.86551C100.895 4.61371 100.78 4.39056 100.651 4.15969C100.389 3.68009 100.389 3.68009 100.294 3.45135C100.187 3.20038 100.048 2.96804 99.9091 2.73405C99.7254 2.42262 99.6189 2.23712 99.7031 1.87688Z" fill="#175D63"/>
<path d="M136.985 1.76561C137.062 1.76588 137.139 1.76612 137.216 1.76634C137.401 1.76692 137.586 1.76785 137.771 1.76897C137.98 2.42719 138.18 3.07806 138.311 3.75635C138.326 3.81046 138.326 3.81046 138.342 3.86566C138.371 3.997 138.37 4.11886 138.369 4.2532C138.368 4.30111 138.368 4.34902 138.367 4.39839C138.366 4.45281 138.366 4.45281 138.365 4.50833C138.21 4.58572 138.107 4.57779 137.933 4.56205C137.791 4.50515 137.661 4.43079 137.528 4.35391C137.182 4.15682 136.868 4.02707 136.469 3.96785C136.414 3.95947 136.359 3.95109 136.303 3.94246C135.762 3.87673 135.225 3.85418 134.681 3.85098C134.645 3.85076 134.61 3.85054 134.573 3.85031C134.386 3.8492 134.199 3.84843 134.012 3.84792C133.821 3.84733 133.631 3.84548 133.44 3.84335C133.291 3.84193 133.142 3.84149 132.993 3.8413C132.889 3.84092 132.785 3.83951 132.681 3.83806C132.103 3.83946 131.573 3.93638 131.076 4.23977C131.04 4.23977 131.005 4.23977 130.968 4.23977C130.945 4.29699 130.945 4.29699 130.922 4.35538C130.882 4.45515 130.84 4.55437 130.796 4.6529C130.333 5.70709 130.303 6.79533 130.31 7.92793C130.31 8.03613 130.31 8.14434 130.31 8.25254C130.31 8.53387 130.311 8.81519 130.313 9.09651C130.314 9.38497 130.314 9.67343 130.315 9.96189C130.316 10.5253 130.318 11.0887 130.32 11.6522C130.58 11.6461 130.839 11.6397 131.099 11.6331C131.186 11.6309 131.274 11.6288 131.362 11.6267C132.822 11.5927 134.32 11.4897 135.752 11.1933C135.925 11.1606 136.085 11.1589 136.26 11.1688C136.368 11.2762 136.368 11.2762 136.379 11.3973C136.378 11.447 136.377 11.4967 136.376 11.5479C136.375 11.6306 136.375 11.6306 136.374 11.715C136.373 11.7729 136.372 11.8309 136.371 11.8905C136.365 12.2715 136.37 12.643 136.409 13.0222C136.426 13.2055 136.427 13.385 136.425 13.5691C136.424 13.6335 136.424 13.698 136.423 13.7644C136.422 13.8355 136.422 13.8355 136.422 13.9081C136.109 14.0636 135.683 13.9597 135.358 13.8874C134.866 13.7839 134.371 13.7356 133.87 13.6899C133.822 13.6854 133.774 13.6809 133.725 13.6762C132.592 13.5703 131.457 13.5198 130.32 13.4784C130.389 15.8027 130.488 18.121 130.698 20.4376C130.702 20.4851 130.706 20.5326 130.711 20.5816C130.762 21.5136 130.762 21.5136 131.022 22.3948C131.022 22.572 131.022 22.7493 131.022 22.9319C129.739 22.9319 128.456 22.9319 127.134 22.9319C126.952 22.5693 127.144 22.0673 127.232 21.6999C127.449 20.7841 127.592 19.889 127.668 18.9518C127.681 18.7906 127.695 18.6294 127.709 18.4683C127.812 17.2534 127.851 16.0402 127.853 14.8212C127.853 14.7862 127.853 14.7511 127.853 14.715C127.858 12.9344 127.793 11.1553 127.732 9.37608C127.73 9.32254 127.73 9.32254 127.728 9.26792C127.71 8.74962 127.692 8.23134 127.673 7.71307C127.671 7.65066 127.668 7.58825 127.666 7.52395C127.654 7.17955 127.64 6.83517 127.627 6.49082C127.622 6.3881 127.618 6.28538 127.615 6.18264C127.593 5.62986 127.557 5.0928 127.455 4.54778C127.444 4.48713 127.433 4.42648 127.422 4.364C127.389 4.17476 127.354 3.98569 127.32 3.79664C127.285 3.60526 127.251 3.41386 127.217 3.22237C127.196 3.10441 127.175 2.98651 127.153 2.86869C127.017 2.1091 127.017 2.1091 127.134 1.87639C127.213 1.87489 127.292 1.87388 127.371 1.87304C127.414 1.87241 127.458 1.87179 127.503 1.87115C127.639 1.8753 127.766 1.88685 127.9 1.90301C128.299 1.94335 128.7 1.93889 129.101 1.93913C129.189 1.93934 129.276 1.93956 129.363 1.9398C129.596 1.9403 129.829 1.94035 130.061 1.94024C130.206 1.94018 130.35 1.94021 130.494 1.94024C132.234 1.94015 133.975 1.91946 135.711 1.79247C136.136 1.76297 136.559 1.76295 136.985 1.76561Z" fill="#175D63"/>
<path d="M55.0497 1.76927C55.8728 1.74417 56.6836 1.79526 57.5028 1.86837C59.0068 1.99899 60.5202 1.99508 62.0288 1.99427C62.1691 1.99419 62.3094 1.9942 62.4497 1.9942C63.5316 1.9939 64.6127 1.99034 65.6935 1.93712C65.7368 1.93502 65.7801 1.93291 65.8247 1.93074C66.2999 1.90658 66.7726 1.86664 67.2461 1.81962C67.642 1.78037 68.0322 1.75459 68.4304 1.76255C68.5189 1.76379 68.6074 1.76499 68.6959 1.76615C68.7727 1.76719 68.8496 1.76823 68.9265 1.76927C68.9967 2.04692 69.0659 2.32481 69.1341 2.60296C69.1574 2.69726 69.1809 2.79149 69.2048 2.88564C69.4886 4.00675 69.4886 4.00675 69.4124 4.50864C69.3768 4.54409 69.3411 4.57954 69.3044 4.61606C68.9757 4.60679 68.784 4.52701 68.5215 4.33071C67.8043 3.83449 66.9331 3.8037 66.0845 3.79757C66.0264 3.79713 65.9683 3.7967 65.9084 3.79625C65.7863 3.79552 65.6642 3.79494 65.5422 3.79451C65.4179 3.79389 65.2936 3.79279 65.1693 3.79121C64.9884 3.78891 64.8076 3.78805 64.6267 3.7875C64.544 3.78609 64.544 3.78609 64.4596 3.78465C63.978 3.78554 63.978 3.78554 63.5809 4.02522C63.3783 4.50512 63.3339 4.98665 63.3396 5.50106C63.3395 5.56924 63.3393 5.63743 63.3392 5.70768C63.3389 5.89306 63.34 6.07841 63.3413 6.26379C63.3424 6.46176 63.3424 6.65974 63.3425 6.85771C63.3428 7.19232 63.344 7.52692 63.3457 7.86152C63.348 8.32204 63.3489 8.78256 63.3495 9.24309C63.353 11.7844 63.3636 14.3276 63.4833 16.8665C63.49 17.0095 63.4965 17.1524 63.5025 17.2954C63.5993 19.8099 63.5993 19.8099 64.0371 22.2805C64.0669 22.4488 64.0669 22.4488 64.0669 22.9322C62.784 22.9322 61.501 22.9322 60.1792 22.9322C59.999 22.5737 60.1881 22.0896 60.2771 21.727C60.6482 20.1458 60.6921 18.526 60.7496 16.9096C60.7514 16.8584 60.7532 16.8072 60.7551 16.7544C60.8402 14.3254 60.8455 11.8958 60.847 9.46564C60.8473 9.09863 60.8479 8.73163 60.8487 8.36462C60.8497 7.86267 60.8496 7.36073 60.8489 6.85879C60.8487 6.67136 60.8488 6.48394 60.8492 6.29652C60.8497 6.07763 60.8494 5.85877 60.8485 5.63988C60.8482 5.56063 60.8483 5.48137 60.8487 5.40212C60.8508 4.88601 60.7942 4.4184 60.6652 3.91779C60.2968 3.80663 59.9553 3.7939 59.5718 3.79421C59.5085 3.79398 59.4453 3.79375 59.3801 3.79351C59.2465 3.79321 59.1129 3.79318 58.9793 3.79341C58.7775 3.79358 58.5758 3.79232 58.374 3.79096C57.6965 3.7892 57.0585 3.8064 56.3996 3.97151C56.3486 3.98295 56.2977 3.9944 56.2452 4.00619C55.9643 4.07121 55.745 4.19881 55.5053 4.35421C55.2134 4.54034 55.0197 4.63281 54.6717 4.61606C54.5776 4.56172 54.5776 4.56172 54.5097 4.45492C54.4783 4.11266 54.5471 3.80629 54.6278 3.47466C54.6398 3.42386 54.6518 3.37307 54.6642 3.32073C54.7873 2.80229 54.9174 2.28548 55.0497 1.76927Z" fill="#175D63"/>
<path d="M116.391 1.87683C117.656 1.87683 118.921 1.87683 120.224 1.87683C120.188 2.34233 120.142 2.76022 120.042 3.20959C119.643 5.1114 119.613 7.03156 119.601 8.96607C119.598 9.45489 119.594 9.94371 119.59 10.4325C119.589 10.5116 119.589 10.5116 119.588 10.5924C119.582 11.3103 119.569 12.0276 119.545 12.7452C119.521 13.471 119.511 14.1962 119.512 14.9224C119.512 14.9842 119.512 15.046 119.513 15.1097C119.517 17.1873 119.71 19.1965 120.036 21.2488C120.042 21.2887 120.048 21.3286 120.055 21.3697C120.084 21.5527 120.114 21.7355 120.145 21.9183C120.155 21.9818 120.166 22.0453 120.177 22.1107C120.186 22.1648 120.195 22.2189 120.205 22.2746C120.229 22.4926 120.224 22.713 120.224 22.9324C118.959 22.9324 117.694 22.9324 116.391 22.9324C116.391 22.5944 116.398 22.3591 116.465 22.0417C116.552 21.6123 116.612 21.1821 116.661 20.7469C116.665 20.708 116.67 20.6692 116.674 20.6291C116.756 19.9067 116.812 19.1828 116.86 18.4574C116.863 18.4079 116.866 18.3584 116.87 18.3074C116.938 17.255 116.988 16.2016 117.015 15.1473C117.016 15.1034 117.017 15.0596 117.018 15.0144C117.119 10.9278 117.067 6.77695 116.457 2.72743C116.448 2.66982 116.439 2.61221 116.43 2.55286C116.423 2.50359 116.415 2.45432 116.407 2.40355C116.388 2.22891 116.391 2.05249 116.391 1.87683Z" fill="#175D63"/>
<path d="M144.295 1.87158C144.406 1.87333 144.517 1.87508 144.628 1.87683C144.61 1.91231 144.592 1.94778 144.574 1.98434C144.535 1.97879 144.496 1.97325 144.455 1.96754C144.243 1.99103 144.17 2.09726 144.033 2.2531C144.153 1.87904 144.153 1.87904 144.295 1.87158Z" fill="#175D63"/>
<path d="M94.1897 1.87122C94.3005 1.87297 94.4113 1.87472 94.5221 1.87647C94.5043 1.91194 94.4865 1.94742 94.4681 1.98397C94.4291 1.97843 94.3901 1.97288 94.3499 1.96717C94.1374 1.99066 94.0648 2.09689 93.9277 2.25273C94.0477 1.87868 94.0477 1.87868 94.1897 1.87122Z" fill="#175D63"/>
<path fill-rule="evenodd" clip-rule="evenodd" d="M10.6789 0.000340862C11.086 0.000699801 11.4623 0.0571035 11.8293 0.243505C11.8698 0.262673 11.8699 0.262962 11.9113 0.282567C12.2749 0.457053 12.2754 0.456765 12.426 0.582372V0.639013C12.4502 0.644651 12.4743 0.650782 12.4992 0.656591C12.6232 0.706981 12.6933 0.778995 12.7844 0.874364C12.8003 0.890454 12.8168 0.906615 12.8332 0.923192C12.9387 1.03101 13.0407 1.14 13.1184 1.26987C13.1588 1.33637 13.2022 1.39437 13.2502 1.45542C13.3264 1.5553 13.3745 1.65241 13.4201 1.76987C13.4383 1.8112 13.4572 1.85276 13.4758 1.8939C13.4853 1.91549 13.4952 1.93708 13.5051 1.95933C13.5243 2.00162 13.5438 2.04378 13.5647 2.0853C13.7996 2.56577 13.7713 3.25109 13.6096 3.75229C13.5659 3.87588 13.5141 3.99554 13.4592 4.1146C13.4263 4.18832 13.4021 4.25891 13.3801 4.33628C13.3407 4.4603 13.2705 4.55055 13.1936 4.65464C12.9904 4.95249 12.8422 5.29251 12.6818 5.6146C12.6324 5.71374 12.5822 5.81251 12.5324 5.91147C12.5145 5.94711 12.4966 5.98326 12.4787 6.0189C12.4701 6.03602 12.4612 6.05301 12.4523 6.07065C12.434 6.10725 12.416 6.14438 12.3977 6.18101C12.3531 6.26994 12.308 6.35849 12.2619 6.44663C12.1686 6.62647 12.0906 6.80265 12.0305 6.99643C11.9942 7.09957 11.9485 7.19716 11.9006 7.29526C11.8219 7.45687 11.7633 7.61719 11.7141 7.79038C11.6881 7.87321 11.6548 7.94651 11.6174 8.02475C11.5747 8.12163 11.5448 8.22199 11.5207 8.32358C11.5063 8.43965 11.4866 8.55541 11.4621 8.67222C11.4573 8.69537 11.4534 8.71868 11.4484 8.74253C11.4436 8.76464 11.4387 8.78713 11.4338 8.80991C11.4295 8.82962 11.4245 8.84918 11.4201 8.86948C11.4037 8.92255 11.4037 8.92245 11.3469 9.00718C11.3359 9.05397 11.3263 9.10135 11.3186 9.14878C11.3136 9.17635 11.3073 9.20378 11.3029 9.23179C11.2993 9.25396 11.2959 9.27633 11.2922 9.29917C11.2655 9.47046 11.2445 9.64237 11.2268 9.81479C11.2244 9.83757 11.2224 9.86067 11.2199 9.88413C11.2134 9.95245 11.2088 10.0204 11.2063 10.0882V10.3343C11.3157 10.2699 11.4154 10.2106 11.5061 10.1205C11.5733 10.0536 11.5739 10.054 11.6555 10.0169C11.7626 9.95937 11.8208 9.88749 11.8967 9.79429C11.9424 9.74243 11.9426 9.74224 12.0275 9.68589H12.1135C12.1204 9.6711 12.1269 9.65611 12.134 9.64097C12.127 9.63747 12.1197 9.63378 12.1125 9.63022C12.1604 9.57597 12.2016 9.52905 12.2375 9.48862C12.2586 9.46327 12.2798 9.43799 12.3029 9.4144L12.3166 9.40073C12.4287 9.27672 12.466 9.2459 12.5012 9.23765C12.5044 9.23498 12.5078 9.2325 12.5109 9.22983C12.5902 9.15795 12.656 9.07677 12.7229 8.9935C12.7666 8.95106 12.7669 8.95151 12.8518 8.95151C12.8623 8.91743 12.8625 8.91689 12.8732 8.88218C12.9087 8.80986 12.9089 8.80933 12.9689 8.78647C12.9953 8.78385 12.9958 8.78426 13.0227 8.78159C13.0297 8.7501 13.0369 8.71833 13.0441 8.68589C13.0795 8.58381 13.0795 8.58347 13.1359 8.55015C13.1547 8.54257 13.1742 8.53452 13.1936 8.52671C13.2127 8.48942 13.2316 8.45199 13.2502 8.4144C13.3205 8.31569 13.3951 8.21945 13.4689 8.12339C13.5074 8.0729 13.5455 8.02209 13.5832 7.97104C13.6084 7.93736 13.6332 7.90316 13.6584 7.86948C13.6702 7.8533 13.6824 7.83732 13.6945 7.82065C13.7244 7.78125 13.7572 7.74416 13.7902 7.70737H13.8752V7.56577C13.9126 7.55648 13.95 7.54702 13.9885 7.53745C13.9914 7.52178 13.9952 7.50574 13.9982 7.4896C14.0216 7.41085 14.0578 7.34972 14.1008 7.27964C14.1156 7.2552 14.1304 7.23059 14.1457 7.20542C14.1875 7.14213 14.1878 7.14158 14.2443 7.0853H14.3303C14.3337 7.06796 14.3365 7.05043 14.34 7.03257C14.3448 7.00972 14.3498 6.98677 14.3547 6.96323C14.3616 6.92938 14.3614 6.92923 14.3684 6.89487C14.3863 6.83093 14.3867 6.83027 14.4436 6.74546H14.5285C14.5379 6.68965 14.5482 6.63401 14.5578 6.57651H14.6428C14.6481 6.54094 14.653 6.50476 14.6584 6.46811C14.6912 6.32084 14.7617 6.21317 14.8459 6.08921C14.8954 6.01592 14.9396 5.94126 14.9836 5.8646C15.0527 5.74854 15.1322 5.65112 15.2238 5.5521C15.2756 5.49312 15.3127 5.42785 15.3527 5.36069H15.4104C15.4166 5.34089 15.4224 5.32054 15.4289 5.30015C15.4753 5.20045 15.5414 5.129 15.6164 5.05015C15.6296 5.03579 15.6428 5.02099 15.6564 5.0062C15.7481 4.90828 15.8437 4.82019 15.9504 4.73862H16.007C16.0164 4.71068 16.0257 4.68245 16.0354 4.65366C16.0825 4.62049 16.0824 4.61997 16.1438 4.58823C16.1662 4.57649 16.189 4.56517 16.2121 4.55308C16.2362 4.54089 16.2605 4.52852 16.2854 4.51597C16.31 4.50337 16.3351 4.49086 16.3605 4.47788C16.4319 4.44185 16.5037 4.40661 16.5754 4.37143C16.6069 4.35596 16.6386 4.3405 16.6711 4.32456C17.4159 3.98903 18.418 4.05549 19.175 4.31089C19.2678 4.35251 19.3436 4.4045 19.4201 4.47104C19.4753 4.5167 19.4755 4.51723 19.5549 4.55308C19.7719 4.66171 20.1309 4.87982 20.2404 5.10581C20.2875 5.1962 20.3669 5.24623 20.4465 5.30796C20.5069 5.37159 20.516 5.41644 20.5256 5.50229H20.5822C20.5916 5.55805 20.6009 5.6138 20.6105 5.67124H20.6955C21.0412 6.39464 21.1319 7.22441 20.8664 7.9896C20.8115 8.12774 20.7411 8.25713 20.6672 8.38608C20.6439 8.43119 20.6442 8.43162 20.6203 8.47788C20.5088 8.69288 20.508 8.69291 20.4113 8.72495C20.3695 8.77297 20.33 8.82293 20.2912 8.87339C20.1882 9.00241 20.0938 9.08649 19.9572 9.1771C19.93 9.21383 19.9294 9.21384 19.9016 9.25132C19.8307 9.33242 19.7717 9.35132 19.6701 9.3812C19.6243 9.39972 19.5961 9.42367 19.5656 9.45347C19.5727 9.45544 19.5806 9.45686 19.5881 9.45932C19.5034 9.50745 19.4697 9.51449 19.3713 9.51499C19.3679 9.51537 19.3643 9.51652 19.3605 9.51694V9.60093C19.2455 9.66254 19.1311 9.70838 19.007 9.74741C18.9563 9.7634 18.9059 9.78062 18.8557 9.79819C18.7794 9.82377 18.7018 9.84514 18.6242 9.8646C18.1515 9.98709 17.6396 10.0195 17.1467 10.0238C17.1036 10.026 17.0607 10.0282 17.0178 10.0306C16.5778 10.0567 16.1424 10.1094 15.7102 10.1859C15.6842 10.191 15.6584 10.1947 15.633 10.1986C15.4846 10.2259 15.3365 10.2562 15.1887 10.2894C15.0933 10.3086 14.9982 10.3211 14.9016 10.3324C14.5722 10.3768 14.2609 10.4962 13.9514 10.6126C13.8644 10.6412 13.7796 10.664 13.6906 10.6849C13.486 10.7347 13.2894 10.8046 13.092 10.8773C13.0735 10.8841 13.0545 10.8908 13.0354 10.8978C12.7375 11.0069 12.4504 11.1313 12.1662 11.2718C11.8798 11.41 11.8789 11.4105 11.7727 11.4105V11.5238C11.8005 11.5336 11.8007 11.5342 11.8293 11.5443C11.8966 11.5731 11.9551 11.6031 12.0178 11.64C12.3019 11.8071 12.5864 11.9297 12.8986 12.0355C13.0069 12.0723 13.1128 12.1139 13.218 12.1585C13.8187 12.4107 14.4575 12.5467 15.0939 12.6751C15.2116 12.699 15.3281 12.7253 15.4445 12.7542C15.9195 12.8639 16.4087 12.896 16.8938 12.9291C17.5846 12.9767 18.2685 13.0307 18.9445 13.1878C18.9722 13.1941 19 13.201 19.0285 13.2074C19.1838 13.2466 19.2888 13.294 19.4035 13.4066C19.4663 13.4645 19.5386 13.4966 19.6164 13.5306V13.5873C19.6534 13.5905 19.6537 13.5908 19.6916 13.5941C19.8042 13.6197 19.8574 13.6612 19.9445 13.7357C19.9704 13.7574 19.996 13.7797 20.0227 13.8021C20.1452 13.9121 20.2428 14.0109 20.3264 14.1527C20.3849 14.2187 20.4457 14.2826 20.507 14.346C20.5536 14.4076 20.5539 14.4079 20.5539 14.5208C20.582 14.5302 20.61 14.5396 20.6389 14.5492C20.9994 15.0552 21.08 15.7613 20.9963 16.3597C20.9271 16.7638 20.8239 17.1507 20.5822 17.4886H20.5256V17.5619C20.4888 17.6872 20.4264 17.7261 20.3264 17.806C20.2711 17.8557 20.2423 17.8947 20.2092 17.9603C20.1485 18.0669 20.0927 18.1094 19.9855 18.1673H19.9289C19.9225 18.1889 19.916 18.2106 19.9094 18.2328C19.8492 18.3553 19.7549 18.3828 19.632 18.4339C19.532 18.4776 19.451 18.5306 19.3605 18.5912C18.7436 18.9337 17.9002 19.0224 17.2199 18.8373C17.166 18.8215 17.1116 18.8056 17.0578 18.7894C17.0198 18.78 16.9817 18.771 16.9436 18.7621C16.735 18.7126 16.5564 18.6506 16.3762 18.5345C16.3512 18.5197 16.3257 18.5049 16.3 18.4896C16.1423 18.3942 16.0026 18.2913 15.8674 18.1664C15.8117 18.1151 15.7541 18.0669 15.6955 18.0189C15.3694 17.7343 15.1096 17.3471 14.9094 16.9681C14.8467 16.8541 14.7735 16.7478 14.6994 16.641C14.6781 16.6092 14.6572 16.5771 14.6359 16.5453C14.6195 16.5208 14.603 16.4962 14.5861 16.471C14.5293 16.3862 14.5285 16.3859 14.5285 16.2728H14.4436C14.4312 16.249 14.4191 16.225 14.4064 16.2005C14.2916 15.9819 14.2909 15.9822 14.1486 15.7806C14.0783 15.6929 14.0519 15.6246 14.0461 15.5101C14.0294 15.5084 14.0125 15.5069 13.9953 15.5052C13.9051 15.4719 13.8838 15.419 13.8361 15.3373C13.7548 15.2036 13.6682 15.0881 13.5627 14.973C13.4206 14.8156 13.4201 14.8152 13.4201 14.7181C13.3921 14.7088 13.364 14.6994 13.3352 14.6898V14.5492C13.314 14.5471 13.2925 14.5445 13.2707 14.5423C13.1723 14.5145 13.1451 14.4761 13.0852 14.3949C13.068 14.3722 13.0501 14.3499 13.0324 14.3265C12.9939 14.2663 12.9943 14.2659 12.9943 14.2093C12.9776 14.2025 12.9608 14.1958 12.9436 14.1888C12.8685 14.146 12.8332 14.1 12.7824 14.0306C12.7075 13.9311 12.629 13.8441 12.5393 13.7572C12.5189 13.7311 12.4987 13.7049 12.4777 13.6781C12.3926 13.5738 12.2859 13.4965 12.1799 13.4144C12.1045 13.3545 12.0382 13.2888 11.9709 13.2201C11.918 13.1755 11.8647 13.1316 11.8107 13.0882C11.7981 13.0758 11.7857 13.0629 11.7727 13.0501V12.9935C11.7498 12.983 11.7491 12.9837 11.7258 12.973C11.4975 12.8535 11.4973 12.8532 11.4592 12.7396C11.4097 12.7091 11.4098 12.7088 11.3459 12.683C11.2891 12.6547 11.2318 12.6263 11.175 12.598C11.1844 12.626 11.1946 12.6541 11.2043 12.683C11.2088 12.7291 11.2116 12.7754 11.2141 12.8216C11.2403 13.2479 11.302 13.6527 11.4025 14.0677C11.4124 14.1091 11.413 14.1095 11.423 14.1517C11.5004 14.4717 11.5899 14.7845 11.7053 15.0931C11.7442 15.198 11.7768 15.2999 11.799 15.4095C11.829 15.5532 11.8835 15.6838 11.9406 15.8187C12.0011 15.9623 12.0575 16.1042 12.0998 16.2542C12.1307 16.3605 12.1674 16.4384 12.2375 16.5257C12.3247 16.6424 12.3843 16.7567 12.4416 16.89C12.5038 17.0261 12.576 17.1571 12.6477 17.2884C12.8187 17.6044 12.8182 17.6047 12.8518 17.7718H12.9094C12.9447 17.8194 12.945 17.8194 12.9846 17.8861C12.9991 17.9104 13.0135 17.9352 13.0285 17.9603C13.0436 17.9861 13.0588 18.0119 13.0744 18.0384C13.0892 18.0632 13.1041 18.0881 13.1193 18.1136C13.1634 18.1878 13.2069 18.2626 13.2502 18.3373C13.2704 18.372 13.2706 18.3721 13.2912 18.4076C13.3038 18.4296 13.3163 18.4522 13.3293 18.475C13.3404 18.4943 13.352 18.5136 13.3635 18.5335C13.4051 18.617 13.4278 18.7037 13.4523 18.7933C13.4894 18.9134 13.5385 19.0291 13.5871 19.1449C13.8093 19.6809 13.8073 20.3723 13.591 20.9095C13.5498 20.9912 13.5062 21.0707 13.4602 21.1498C13.4249 21.2134 13.3981 21.2746 13.3742 21.3431C13.3337 21.4511 13.2924 21.526 13.2219 21.6166H13.1652C13.1582 21.6358 13.151 21.6553 13.1438 21.6751C13.1014 21.7741 13.0491 21.8627 12.9943 21.9554H12.9377C12.9304 21.9721 12.9228 21.9891 12.9152 22.0062C12.8786 22.0725 12.8416 22.1113 12.7844 22.1605C12.7595 22.1825 12.7599 22.183 12.7346 22.2054C12.682 22.2386 12.6813 22.2386 12.5676 22.2386C12.5615 22.2547 12.5553 22.2709 12.549 22.2875C12.421 22.5021 12.1036 22.6312 11.882 22.7298C11.8618 22.7389 11.8413 22.7479 11.8205 22.7572C11.5403 22.8768 11.2776 22.9299 10.9729 22.9291C10.9409 22.9292 10.9081 22.9299 10.8752 22.93C10.8081 22.9302 10.7411 22.9303 10.674 22.93C10.5725 22.9298 10.4708 22.9301 10.3693 22.931C9.88767 22.9326 9.50184 22.8725 9.06172 22.6683C9.03597 22.657 9.01013 22.6448 8.9836 22.6332C8.82664 22.5616 8.69414 22.4786 8.56075 22.3695C8.5045 22.3237 8.44645 22.282 8.38692 22.2406C8.26826 22.1524 8.16108 22.0492 8.07735 21.9271V21.8431C8.057 21.8385 8.03679 21.8332 8.01582 21.8285C7.89817 21.7661 7.8556 21.6736 7.79219 21.5599C7.77969 21.538 7.76698 21.5161 7.7541 21.4935C7.66814 21.3407 7.59182 21.1897 7.53731 21.0228C7.53166 21.0058 7.52653 20.9885 7.52071 20.971C7.4881 20.8726 7.46046 20.7757 7.43672 20.68C7.41839 20.6665 7.4077 20.6501 7.39082 20.6205C7.29625 20.1845 7.31519 19.7586 7.4084 19.3343C7.42823 19.2392 7.45159 19.1426 7.48067 19.0443C7.48726 19.0201 7.49438 18.995 7.50117 18.9701C7.54189 18.825 7.58995 18.7064 7.67403 18.5794C7.76237 18.4425 7.84403 18.304 7.9211 18.1605C7.96835 18.0744 8.01821 17.99 8.06856 17.9056C8.12039 17.8181 8.16991 17.7336 8.20723 17.639C8.24295 17.5571 8.28065 17.495 8.33125 17.4222C8.40021 17.3221 8.45212 17.2242 8.49922 17.1126C8.54178 17.0163 8.58914 16.9223 8.63692 16.8285C8.72508 16.6546 8.81095 16.4791 8.89473 16.3031C8.91015 16.2707 8.91024 16.2706 8.92598 16.2376C9.06926 15.9425 9.0696 15.9422 9.17891 15.6341C9.21494 15.5123 9.25461 15.3922 9.29805 15.2728C9.39853 14.9963 9.48697 14.7326 9.5334 14.4417C9.55868 14.2924 9.60094 14.1473 9.64082 14.0013C9.76544 13.536 9.82622 13.1083 9.81172 12.6263C9.45013 12.8667 9.44967 12.8669 9.13985 13.1654C9.01084 13.3241 8.85018 13.4546 8.67403 13.5589H8.61739C8.60801 13.5962 8.59872 13.6338 8.58907 13.6722H8.5041C8.50352 13.6925 8.50275 13.7129 8.50215 13.7337C8.46895 13.8328 8.4177 13.8571 8.33223 13.9124C8.24718 13.9773 8.19054 14.0596 8.12715 14.1449C8.08251 14.2038 8.03556 14.2575 7.98555 14.3119C7.87569 14.4347 7.78056 14.5675 7.68379 14.7005C7.60693 14.806 7.52817 14.909 7.44551 15.0101C7.26123 15.2344 7.26114 15.2344 7.11153 15.4818H7.05489C7.0479 15.5044 7.0406 15.5269 7.0334 15.5501C6.99795 15.6224 6.99773 15.623 6.9377 15.6458C6.91132 15.6485 6.9109 15.649 6.88399 15.6517C6.8834 15.6784 6.88263 15.7053 6.88203 15.7328C6.86368 15.8663 6.78691 15.9573 6.70723 16.0628C6.65442 16.1314 6.65501 16.132 6.61153 16.2113C6.59848 16.2316 6.58492 16.2518 6.57149 16.2728H6.51485C6.51165 16.2935 6.50837 16.315 6.50508 16.3363C6.4856 16.418 6.4582 16.4729 6.41426 16.5443C6.39967 16.5682 6.38437 16.5919 6.36934 16.6166C6.35397 16.6413 6.3383 16.6663 6.32246 16.6917C6.30754 16.7161 6.29292 16.7408 6.27754 16.766C6.24793 16.8143 6.2177 16.8624 6.1877 16.9105C6.1596 16.9559 6.13254 17.002 6.10567 17.0482C6.09353 17.0687 6.08106 17.0895 6.06856 17.1107C6.05796 17.1291 6.04725 17.1484 6.03633 17.1673C6.02545 17.1802 6.01434 17.1931 6.00313 17.2064H5.91817C5.91291 17.2526 5.9128 17.2529 5.90742 17.3001C5.8897 17.4041 5.88898 17.4039 5.83223 17.4886H5.74727C5.74436 17.5095 5.74148 17.5306 5.73848 17.5521C5.71755 17.6354 5.69223 17.6809 5.63399 17.7435H5.57637C5.56963 17.7593 5.56281 17.7751 5.55586 17.7914C5.41855 18.0369 5.15053 18.2097 4.92305 18.3656C4.8871 18.3917 4.88659 18.3916 4.84981 18.4183C4.82647 18.4352 4.80354 18.4527 4.77949 18.4701C4.75929 18.4847 4.73878 18.4989 4.71797 18.514C4.47559 18.6649 4.23332 18.7484 3.95528 18.8128C3.93677 18.8171 3.91771 18.8211 3.89864 18.8255C3.36002 18.948 2.84131 18.9449 2.30684 18.8041C2.25793 18.7912 2.20866 18.7793 2.15938 18.7679C1.97764 18.724 1.8182 18.6522 1.65449 18.5628V18.5072C1.62553 18.4996 1.62541 18.4993 1.5959 18.4916C1.55749 18.4809 1.55696 18.4809 1.51778 18.4701C1.49257 18.4632 1.46757 18.4556 1.4416 18.4486C1.36803 18.4206 1.33721 18.3944 1.28535 18.3373C1.25605 18.3186 1.22668 18.2998 1.19649 18.2806C1.11481 18.2241 1.11455 18.2238 1.08614 18.139C1.06519 18.131 1.04423 18.1229 1.02266 18.1146C0.924711 18.0746 0.877224 18.0205 0.807815 17.9417C0.78539 17.9167 0.762559 17.8914 0.739456 17.8656C0.68854 17.8002 0.688675 17.7999 0.688675 17.7435H0.632034V17.6585C0.606502 17.6557 0.60617 17.6556 0.580276 17.6527C0.493143 17.621 0.478418 17.5776 0.436722 17.4964C0.422235 17.4683 0.407698 17.4395 0.392776 17.4105C0.378078 17.3806 0.362994 17.3505 0.347854 17.3197C0.333389 17.2908 0.318812 17.2615 0.303909 17.2318C0.199841 17.0168 0.122427 16.8194 0.0744168 16.6136H0.0626981C0.0333418 16.526 0.0312532 16.4539 0.0314481 16.3666C0.0210101 16.2726 0.0161263 16.1747 0.0177762 16.0716C0.0187435 16.0045 0.0183228 15.9376 0.0177762 15.8705C0.0181728 15.4546 0.114565 15.0969 0.290237 14.7181C0.301614 14.6932 0.313675 14.6686 0.325393 14.6429C0.404006 14.4782 0.501161 14.3143 0.629104 14.181C0.644975 14.1605 0.662735 14.1424 0.682815 14.1283C0.694363 14.1178 0.70495 14.106 0.716995 14.096H0.801956C0.803122 14.0757 0.804661 14.0554 0.805862 14.0345C0.823008 13.9797 0.846123 13.9462 0.877151 13.9154C0.91949 13.8436 0.977608 13.778 1.05196 13.7621C1.0583 13.7553 1.0663 13.7483 1.07442 13.7396C1.13916 13.6768 1.19333 13.6288 1.26485 13.6048C1.29094 13.5908 1.30399 13.5884 1.35567 13.5882C1.36047 13.5881 1.36534 13.5873 1.37032 13.5873V13.5306C1.45092 13.4811 1.53259 13.4353 1.61543 13.3939C1.94616 13.213 2.3862 13.0196 2.73164 13.0501C2.97703 13.0101 3.2275 12.9854 3.48164 12.972C3.88012 12.9506 4.27448 12.9166 4.67012 12.8636C4.7065 12.8589 4.74308 12.8543 4.77949 12.8499C4.81417 12.8445 4.84928 12.8415 4.88399 12.8353C4.92004 12.8295 4.95591 12.826 4.99141 12.8236C5.29309 12.786 5.58672 12.7314 5.88301 12.6585C6.06319 12.6145 6.24239 12.5816 6.42598 12.555C6.55837 12.5344 6.68832 12.5051 6.81856 12.474C6.84288 12.4685 6.86772 12.4631 6.89278 12.4574C7.04522 12.4213 7.18666 12.3728 7.33125 12.3128C7.40977 12.2812 7.48983 12.2579 7.57149 12.2357C7.73491 12.1872 7.88342 12.1219 8.03633 12.0482C8.04356 12.0447 8.05059 12.0409 8.05782 12.0374C8.05446 12.036 8.05091 12.0342 8.04707 12.0326C8.07561 12.0226 8.10459 12.0125 8.13399 12.0023C8.14929 11.9968 8.16376 11.9893 8.17891 11.9837C8.19251 11.978 8.20622 11.9726 8.21992 11.9671C8.41975 11.8922 8.60786 11.8117 8.79512 11.7025C8.87097 11.6652 8.87127 11.6654 8.98457 11.6654V11.6087C9.04084 11.5808 9.0975 11.5526 9.15547 11.5238V11.4105C9.14004 11.4059 9.12449 11.4016 9.1086 11.3968C8.97069 11.3535 8.84446 11.3005 8.71602 11.2347C8.28601 11.0156 7.82729 10.8729 7.36934 10.724C7.30973 10.7046 7.2502 10.6849 7.19063 10.6654C6.54298 10.4515 6.54256 10.4518 5.87617 10.3119C5.61966 10.2716 5.36818 10.2208 5.11641 10.1576C4.99762 10.1278 4.88063 10.1047 4.75996 10.0882C4.40528 10.041 4.04819 10.0439 3.68575 10.0433C3.53221 10.0429 3.38267 10.0359 3.23555 10.0238C2.92437 10.003 2.62512 9.94668 2.32344 9.86557C2.22059 9.83856 2.11714 9.80918 2.01289 9.77573C2.00711 9.77387 2.0011 9.77272 1.99532 9.77085C1.9689 9.76255 1.94246 9.75401 1.91524 9.74546C1.90186 9.74075 1.88925 9.734 1.87617 9.72886C1.84146 9.71516 1.80739 9.70131 1.77461 9.68491C1.75525 9.67528 1.73683 9.66408 1.71797 9.65366C1.69233 9.63939 1.66672 9.62523 1.6418 9.60972C1.59287 9.57949 1.54653 9.54538 1.49922 9.51206C1.47727 9.49659 1.45386 9.48298 1.43184 9.46714C1.33337 9.39684 1.23162 9.33218 1.1291 9.26792C1.11493 9.2568 1.10074 9.24519 1.08614 9.23374V9.1771C1.06972 9.16932 1.05324 9.16168 1.03633 9.15366C0.575964 8.91629 0.33805 8.39016 0.148636 7.93296C0.136234 7.90324 0.123326 7.87373 0.11055 7.84311C-0.0606412 7.33642 -0.0214123 6.65412 0.148636 6.15268C0.154424 6.1339 0.16025 6.11442 0.166214 6.09507C0.289586 5.69485 0.513912 5.38101 0.801956 5.07749C0.825954 5.05187 0.850473 5.02674 0.875198 5.00034C0.950092 4.93157 1.02976 4.87975 1.11446 4.82358C1.13907 4.79851 1.16429 4.77324 1.18965 4.74741C1.25433 4.68477 1.28272 4.66339 1.37032 4.65366V4.5687C2.26619 4.13389 3.21274 3.9363 4.1916 4.25034C4.36676 4.3114 4.54195 4.37956 4.69551 4.48472V4.54038C4.76115 4.54971 4.8271 4.55909 4.89473 4.5687C4.90409 4.59662 4.91341 4.6249 4.92305 4.65366C4.96011 4.67376 4.99805 4.69262 5.03633 4.7103C5.29972 4.89901 5.58286 5.13384 5.74727 5.41733V5.50229C5.77532 5.5116 5.80333 5.52103 5.83223 5.53061C5.8718 5.58619 5.87204 5.58605 5.91231 5.65757C5.96685 5.75195 6.02302 5.84335 6.08516 5.93296C6.16036 6.04418 6.23005 6.15811 6.29805 6.27378C6.3082 6.29067 6.31787 6.30814 6.32832 6.32554C6.38293 6.41976 6.40059 6.46464 6.40059 6.57651C6.4381 6.58584 6.4762 6.59522 6.51485 6.60483C6.54286 6.70238 6.54291 6.7026 6.57149 6.8021H6.62813C6.66798 6.86096 6.66848 6.86162 6.71211 6.93882C6.76307 7.02862 6.81059 7.09822 6.88399 7.17026C6.91013 7.21108 6.93476 7.25286 6.95821 7.29526C6.97029 7.3168 6.98286 7.33851 6.99532 7.36069C7.02401 7.41993 7.04166 7.47326 7.05489 7.53745H7.13985C7.15333 7.56894 7.16697 7.60071 7.18086 7.63315C7.24672 7.76454 7.33822 7.85983 7.43867 7.96616C7.51769 8.05575 7.58558 8.14944 7.65352 8.24741C7.74832 8.38348 7.84624 8.5018 7.96797 8.61557C8.04558 8.6925 8.10899 8.77881 8.175 8.86557C8.23169 8.93778 8.29565 8.99984 8.36153 9.06382C8.40367 9.11143 8.44653 9.15958 8.48848 9.20737C8.58173 9.31126 8.67004 9.38522 8.78828 9.4603C8.86677 9.53297 8.94143 9.60911 9.01582 9.68589L9.15742 9.82749C9.18318 9.85194 9.20902 9.87651 9.23555 9.90171C9.29949 9.96885 9.2999 9.96924 9.32832 10.0541C9.34862 10.0564 9.36894 10.0585 9.38985 10.0609C9.48793 10.0868 9.54032 10.1297 9.61739 10.1947C9.70885 10.2734 9.70958 10.2737 9.81172 10.3363C9.80318 9.71563 9.71441 9.16965 9.53731 8.57651C9.50604 8.47063 9.48076 8.36451 9.45918 8.2562C9.41823 8.06868 9.34443 7.89669 9.27071 7.72007C9.21356 7.58203 9.16502 7.44654 9.12715 7.3021C9.06905 7.08449 8.97216 6.89123 8.87325 6.68979C8.85462 6.64809 8.8366 6.60577 8.81856 6.56382C8.75559 6.42077 8.68367 6.28205 8.6125 6.14292C8.46663 5.85637 8.4668 5.85602 8.47578 5.69956H8.38985C8.27307 5.55583 8.18921 5.39567 8.13106 5.22104C8.08784 5.11765 8.02096 5.02813 7.95918 4.93491C7.89001 4.82466 7.83437 4.70951 7.77852 4.59214C7.73836 4.51014 7.73753 4.50998 7.67989 4.43296C7.61059 4.3234 7.57463 4.21514 7.53633 4.09214C7.52242 4.04861 7.50833 4.00478 7.49434 3.96128C7.4842 3.92941 7.48419 3.92937 7.47383 3.89683C7.45342 3.83597 7.43026 3.77675 7.40645 3.71714C7.32184 3.49277 7.33333 3.25925 7.33321 3.0228C7.33286 2.98896 7.33259 2.95512 7.33223 2.92026C7.33198 2.76551 7.34276 2.61874 7.36543 2.47495C7.37613 2.34086 7.41534 2.21903 7.46211 2.0853C7.4732 2.05141 7.48262 2.01603 7.49532 1.98179C7.50401 1.95746 7.51272 1.93263 7.52168 1.90757C7.53095 1.88192 7.54043 1.85658 7.55 1.8314C7.59294 1.70894 7.60241 1.68993 7.64961 1.60093H7.73457C7.74863 1.51703 7.74855 1.51664 7.76289 1.431H7.84883C7.85279 1.40007 7.85257 1.39939 7.85664 1.36753C7.87993 1.27846 7.91173 1.23972 7.97481 1.17319C8.03452 1.10944 8.08411 1.05182 8.13301 0.978857H8.18965C8.19603 0.962714 8.20262 0.946654 8.20918 0.930028C8.22278 0.906839 8.23705 0.88658 8.25215 0.868505C8.29039 0.80132 8.30658 0.786163 8.34883 0.782567L8.38887 0.753271L8.38985 0.752294H8.47383C8.47546 0.73588 8.47704 0.7194 8.47871 0.702489C8.51254 0.611954 8.56711 0.589114 8.64961 0.54038C8.734 0.489853 8.81761 0.439898 8.89864 0.38413C9.21478 0.182199 9.67473 0.0227176 10.0695 0.0149893C10.1967 0.00353437 10.3237 -0.00140004 10.4484 0.000340862C10.5253 0.00131455 10.6021 0.000885124 10.6789 0.000340862Z" fill="#175D63"/>
</svg>
