<svg width="79" height="20" viewBox="0 0 79 20" fill="none" xmlns="http://www.w3.org/2000/svg">
<path d="M49.6211 4.82529C49.6487 4.82529 49.7129 4.89868 49.6945 4.93537C49.0029 6.9929 48.3818 9.07345 47.8323 11.1734C47.5112 12.4118 46.5847 15.6501 47.0342 16.7509C47.1993 17.1637 47.5479 17.2463 47.9515 17.283C48.0066 17.3289 47.6947 18.4572 47.6396 18.5856C47.5938 18.6957 47.5846 18.7049 47.4837 18.7874C47.2727 18.9342 46.6764 19.136 46.4196 19.2094C44.172 19.8332 41.1356 19.503 40.7778 16.7234C40.2549 17.283 39.8421 17.8426 39.2 18.3013C36.3286 20.347 31.7786 19.8791 30.6777 16.1179C29.5953 12.3843 31.4667 7.71496 34.8425 5.78852C37.668 4.17397 42.3924 3.88042 44.1353 7.1829C44.7133 6.77009 45.2545 6.31141 45.8508 5.91694C46.0618 5.77017 47.6213 4.81612 47.7222 4.81612H49.6211V4.82529ZM40.2916 6.68752C39.6036 6.78843 39.0715 7.54984 38.7596 8.1186C37.8973 9.72397 36.7139 14.4117 37.2552 16.0996C37.6405 17.283 38.7046 17.0903 39.3834 16.2831C40.6402 14.8153 41.7869 10.1368 41.6493 8.22868C41.5943 7.44893 41.2457 6.54075 40.2916 6.68752ZM57.437 4.67851C59.602 4.49504 65.6106 4.97207 65.2987 8.22868C65.0511 10.7331 61.5835 10.623 60.6844 8.64149C60.8037 8.4305 61.0514 8.19199 61.1248 7.95348C61.611 6.00868 58.2259 5.87108 58.4828 7.97182C58.6479 9.34786 61.6201 10.7606 62.6568 11.6963C65.3446 14.1273 63.7943 17.5307 60.7854 18.6957C58.125 19.7232 52.3457 19.8608 50.3183 17.5123C48.4836 15.4024 50.5385 12.4669 53.1071 13.5952C53.5474 13.7879 54.6666 14.696 54.7216 15.1731C54.74 15.2831 54.373 15.6317 54.2996 15.8519C53.6942 17.5398 56.3637 18.4205 56.9416 16.6408C57.2811 15.6042 56.8407 14.9254 56.0885 14.2557C54.5932 12.9164 51.9053 11.9623 51.7035 9.61389C51.41 6.17381 54.5473 4.9262 57.437 4.67851ZM77.2519 0L75.6649 4.97207H78.6921L78.1784 6.89852L75.1053 6.92604L73.0596 15.1731C72.9128 16.2831 73.9494 16.6592 74.7659 15.9987C74.9493 15.8519 75.0411 15.6317 75.2245 15.54C75.2979 15.54 76.3345 16.3198 76.3896 16.384C76.4354 16.439 76.4354 16.4482 76.4171 16.5124C76.3712 16.6867 75.8392 17.4298 75.6924 17.5949C73.3439 20.3561 66.5922 20.347 66.2711 15.9253C66.1335 13.9805 67.6472 10.146 68.1976 8.10025C68.3077 7.71496 68.4177 7.3205 68.482 6.92604H67.0142C67.005 6.92604 66.9316 6.85265 66.95 6.80678L67.3628 5.2381C68.9406 4.88033 70.4726 3.9905 71.8028 3.09149C73.1034 2.2636 74.2516 1.2178 75.197 0H77.2611H77.2519ZM10.9638 0L9.4226 4.97207H12.3948L11.8903 6.89852L8.86302 6.93521L6.80814 15.2556C6.78979 15.7785 6.90905 16.2464 7.49616 16.3106C8.11079 16.3748 8.39517 16.0996 8.78046 15.696C8.84467 15.6317 8.84467 15.5125 8.93641 15.54C9.02814 15.54 10.184 16.4115 10.184 16.4849C9.78312 17.2662 9.19754 17.9378 8.47813 18.4414C7.75872 18.945 6.92724 19.2653 6.05591 19.3746C2.4507 19.8975 -0.732522 18.3563 0.148139 14.2465L2.23971 6.92604H0.698553C0.790288 6.35728 0.946239 5.80686 1.11136 5.25645C2.78808 4.76734 4.36339 3.98124 5.76236 2.93554C6.95492 2.10074 8.08327 1.14669 8.99145 0H10.9638ZM21.1097 4.63265C26.6047 4.42166 30.6135 7.04529 29.1549 13.0265C27.9624 17.8884 23.7425 19.6039 19.1007 19.4388C13.9727 19.2553 10.9546 16.6133 12.1105 11.2284C13.0737 6.78843 16.8165 4.7886 21.1097 4.62347V4.63265ZM21.5684 6.63248C20.4217 6.78843 19.7153 9.00843 19.4126 9.96248C18.9081 11.5679 17.9907 15.0446 18.4402 16.6041C18.7154 17.549 19.697 17.7417 20.4309 17.127C21.55 16.1822 22.3481 12.7512 22.6417 11.2927C22.8802 10.146 23.7058 6.33893 21.5684 6.63248Z" fill="#175D63"/>
</svg>
