<svg width="94" height="24" viewBox="0 0 94 24" fill="none" xmlns="http://www.w3.org/2000/svg">
<path d="M58.6957 5.70772C58.7282 5.70772 58.8042 5.79454 58.7825 5.83794C57.9644 8.27174 57.2297 10.7328 56.5797 13.2167C56.1999 14.6817 55.1039 18.5121 55.6356 19.8143C55.831 20.3026 56.2433 20.4002 56.7208 20.4436C56.7859 20.4979 56.4169 21.8326 56.3518 21.9845C56.2976 22.1147 56.2867 22.1256 56.1674 22.2232C55.9178 22.3969 55.2124 22.6356 54.9086 22.7224C52.2501 23.4603 48.6583 23.0696 48.2351 19.7817C47.6166 20.4436 47.1283 21.1056 46.3687 21.6481C42.9723 24.0679 37.5901 23.5145 36.288 19.0655C35.0075 14.6491 37.2212 9.12585 41.2144 6.8471C44.5566 4.93729 50.1449 4.59005 52.2067 8.49648C52.8903 8.00818 53.5305 7.46562 54.2358 6.99902C54.4854 6.8254 56.3301 5.69688 56.4495 5.69688H58.6957V5.70772ZM47.66 7.91052C46.8462 8.02988 46.2168 8.93053 45.8479 9.6033C44.8279 11.5023 43.4281 17.0472 44.0683 19.0438C44.524 20.4436 45.7828 20.2158 46.5858 19.2609C48.0724 17.5247 49.4288 11.9906 49.266 9.73352C49.2009 8.81117 48.7885 7.7369 47.66 7.91052ZM67.9409 5.53411C70.5018 5.31708 77.6093 5.88134 77.2404 9.73352C76.9474 12.6959 72.8456 12.5657 71.7822 10.2218C71.9233 9.97224 72.2163 9.69011 72.3031 9.40798C72.8782 7.10753 68.8741 6.94476 69.1779 9.42968C69.3733 11.0574 72.889 12.7284 74.1152 13.8353C77.2946 16.7108 75.4608 20.7366 71.9016 22.1147C68.7547 23.3301 61.9185 23.4928 59.5204 20.7149C57.3501 18.2191 59.7808 14.7468 62.8191 16.0815C63.34 16.3093 64.6638 17.3836 64.7289 17.9479C64.7506 18.0781 64.3166 18.4904 64.2298 18.7509C63.5136 20.7475 66.6713 21.7892 67.3549 19.6841C67.7564 18.4579 67.2356 17.6549 66.3458 16.8627C64.577 15.2785 61.3976 14.15 61.1589 11.372C60.8117 7.30285 64.5228 5.82709 67.9409 5.53411ZM91.3795 0L89.5022 5.88135H93.0831L92.4754 8.16009L88.8403 8.19265L86.4205 17.9479C86.2468 19.2609 87.473 19.7058 88.4388 18.9245C88.6558 18.7509 88.7643 18.4904 88.9813 18.3819C89.0682 18.3819 90.2943 19.3043 90.3594 19.3802C90.4137 19.4453 90.4137 19.4562 90.392 19.5321C90.3377 19.7383 89.7084 20.6173 89.5348 20.8126C86.7569 24.0788 78.7704 24.0679 78.3906 18.8377C78.2278 16.5372 80.0183 12.0014 80.6693 9.5816C80.7995 9.12585 80.9298 8.65925 81.0057 8.19265H79.2695C79.2587 8.19265 79.1719 8.10584 79.1936 8.05158L79.6819 6.19603C81.5483 5.77283 83.3604 4.72027 84.9338 3.65685C86.4723 2.67756 87.8305 1.44051 88.9488 0H91.3903H91.3795ZM12.9688 0L11.1458 5.88135H14.6616L14.0647 8.16009L10.4839 8.2035L8.05319 18.0455C8.03149 18.664 8.17255 19.2175 8.86703 19.2934C9.59406 19.3694 9.93045 19.0438 10.3862 18.5664C10.4622 18.4904 10.4622 18.3494 10.5707 18.3819C10.6792 18.3819 12.0464 19.4128 12.0464 19.4996C11.5722 20.4238 10.8796 21.2182 10.0286 21.8139C9.17761 22.4096 8.19407 22.7885 7.16339 22.9177C2.89888 23.5362 -0.866483 21.7132 0.175231 16.8519L2.6493 8.19265H0.826302C0.934814 7.51987 1.11928 6.8688 1.31461 6.21773C3.29795 5.63917 5.16135 4.70931 6.81616 3.47238C8.22681 2.48492 9.56151 1.3564 10.6358 0H12.9688ZM24.9702 5.47985C31.4701 5.23027 36.212 8.33371 34.4867 15.4087C33.076 21.1598 28.0845 23.189 22.5938 22.9937C16.528 22.7766 12.9579 19.6515 14.3252 13.2819C15.4646 8.02988 19.8918 5.66432 24.9702 5.469V5.47985ZM25.5128 7.84541C24.1564 8.02988 23.3208 10.6559 22.9627 11.7844C22.3659 13.6833 21.2808 17.7959 21.8125 19.6406C22.138 20.7583 23.2991 20.9862 24.1672 20.2592C25.491 19.1415 26.4351 15.0832 26.7823 13.3578C27.0645 12.0014 28.0411 7.49817 25.5128 7.84541Z" fill="#175D63"/>
</svg>
