<svg width="110" height="38" viewBox="0 0 110 38" fill="none" xmlns="http://www.w3.org/2000/svg">
<g clip-path="url(#clip0_1211_452)">
<path d="M14.5151 10.1808L16.0974 8.54221C16.4132 8.21526 16.8378 8.03487 17.2842 8.03487H21.9586C22.884 8.03487 23.6353 7.25694 23.6353 6.29861V1.73625C23.6353 0.777931 22.884 0 21.9586 0L17.5564 0C16.6309 0 15.8797 0.777931 15.8797 1.73625V6.59926C15.8797 7.06151 15.7018 7.50121 15.3897 7.82817L13.8256 9.44792C13.5098 9.77488 13.0852 9.95527 12.6388 9.95527L1.67864 9.95527C0.753196 9.95903 0.00195313 10.737 0.00195313 11.699L0.00195313 22.7366C0.00195313 23.695 0.753196 24.4729 1.67864 24.4729H12.3448C13.2703 24.4729 14.0215 23.695 14.0215 22.7366L14.0215 11.4059C14.0215 10.9474 14.1994 10.504 14.5151 10.1808Z" fill="#175D63"/>
<path d="M15.9153 18.1593L15.9153 24.691C15.9153 25.6493 15.164 26.4272 14.2386 26.4272H7.11809C6.19265 26.4272 5.44141 27.2052 5.44141 28.1635L5.44141 35.4918C5.44141 36.4501 6.19265 37.2281 7.11809 37.2281H23.8559C24.7814 37.2281 25.5326 36.4501 25.5326 35.4918L25.5326 18.1593C25.5326 17.201 24.7814 16.4231 23.8559 16.4231H17.5956C16.6665 16.4231 15.9153 17.201 15.9153 18.1593Z" fill="#175D63"/>
</g>
<path d="M102.261 29.0844C100.863 29.0844 99.5998 28.7707 98.4708 28.1435C97.3418 27.4984 96.4547 26.6023 95.8095 25.4554C95.1644 24.2905 94.8418 22.9465 94.8418 21.4232C94.8418 19.9179 95.1733 18.5828 95.8364 17.4179C96.4995 16.2531 97.4045 15.357 98.5514 14.7298C99.6983 14.1026 100.98 13.7889 102.395 13.7889C103.811 13.7889 105.093 14.1026 106.239 14.7298C107.386 15.357 108.291 16.2531 108.954 17.4179C109.618 18.5828 109.949 19.9179 109.949 21.4232C109.949 22.9286 109.609 24.2637 108.928 25.4285C108.247 26.5934 107.315 27.4984 106.132 28.1435C104.967 28.7707 103.677 29.0844 102.261 29.0844ZM102.261 26.4231C103.05 26.4231 103.784 26.2349 104.465 25.8586C105.164 25.4823 105.729 24.9178 106.159 24.1651C106.589 23.4124 106.804 22.4985 106.804 21.4232C106.804 20.348 106.598 19.443 106.186 18.7082C105.773 17.9555 105.227 17.391 104.546 17.0147C103.865 16.6383 103.13 16.4502 102.342 16.4502C101.553 16.4502 100.818 16.6383 100.137 17.0147C99.4743 17.391 98.9457 17.9555 98.5514 18.7082C98.1571 19.443 97.96 20.348 97.96 21.4232C97.96 23.0182 98.3632 24.2547 99.1697 25.1328C99.994 25.993 101.024 26.4231 102.261 26.4231Z" fill="#175D63"/>
<path d="M76.5957 21.3697C76.5957 19.8823 76.9004 18.5651 77.5097 17.4181C78.1369 16.2712 78.9792 15.3841 80.0365 14.7569C81.1117 14.1118 82.2945 13.7892 83.5848 13.7892C84.7497 13.7892 85.7622 14.0222 86.6224 14.4881C87.5005 14.9361 88.1994 15.5006 88.7191 16.1816V14.0311H91.8105V28.8427H88.7191V26.6384C88.1994 27.3373 87.4916 27.9197 86.5955 28.3857C85.6995 28.8516 84.678 29.0846 83.5311 29.0846C82.2587 29.0846 81.0938 28.762 80.0365 28.1169C78.9792 27.4538 78.1369 26.5398 77.5097 25.375C76.9004 24.1922 76.5957 22.8571 76.5957 21.3697ZM88.7191 21.4234C88.7191 20.402 88.5041 19.5149 88.074 18.7622C87.6618 18.0095 87.1152 17.4361 86.4342 17.0418C85.7532 16.6476 85.0185 16.4504 84.23 16.4504C83.4414 16.4504 82.7067 16.6476 82.0257 17.0418C81.3447 17.4181 80.7892 17.9827 80.3591 18.7353C79.9469 19.4701 79.7408 20.3482 79.7408 21.3697C79.7408 22.3912 79.9469 23.2872 80.3591 24.0578C80.7892 24.8284 81.3447 25.4198 82.0257 25.832C82.7246 26.2262 83.4594 26.4234 84.23 26.4234C85.0185 26.4234 85.7532 26.2262 86.4342 25.832C87.1152 25.4377 87.6618 24.8642 88.074 24.1116C88.5041 23.341 88.7191 22.4449 88.7191 21.4234Z" fill="#175D63"/>
<path d="M68.6339 29.0846C67.469 29.0846 66.4206 28.8785 65.4887 28.4663C64.5748 28.0362 63.849 27.4628 63.3114 26.7459C62.7737 26.0112 62.487 25.1958 62.4512 24.2997H65.6232C65.6769 24.927 65.9726 25.4556 66.5102 25.8857C67.0658 26.2979 67.7557 26.504 68.5801 26.504C69.4403 26.504 70.1034 26.3427 70.5693 26.0201C71.0532 25.6796 71.2951 25.2495 71.2951 24.7298C71.2951 24.1743 71.0263 23.7621 70.4887 23.4933C69.969 23.2245 69.1356 22.9288 67.9887 22.6062C66.8776 22.3016 65.9726 22.0059 65.2737 21.7191C64.5748 21.4324 63.9655 20.9934 63.4458 20.402C62.944 19.8106 62.6931 19.031 62.6931 18.0633C62.6931 17.2748 62.9261 16.5579 63.392 15.9128C63.858 15.2497 64.521 14.73 65.3812 14.3537C66.2593 13.9774 67.2629 13.7892 68.3919 13.7892C70.0765 13.7892 71.4295 14.2193 72.451 15.0795C73.4904 15.9218 74.0459 17.0777 74.1176 18.5472H71.0532C70.9994 17.8841 70.7306 17.3554 70.2467 16.9612C69.7629 16.5669 69.1088 16.3698 68.2844 16.3698C67.478 16.3698 66.8597 16.5221 66.4296 16.8268C65.9995 17.1314 65.7844 17.5346 65.7844 18.0364C65.7844 18.4307 65.9278 18.7622 66.2145 19.031C66.5013 19.2998 66.8507 19.5149 67.2629 19.6762C67.6751 19.8195 68.2844 20.0077 69.0908 20.2407C70.1661 20.5274 71.0442 20.8231 71.7252 21.1278C72.4241 21.4145 73.0245 21.8446 73.5262 22.4181C74.028 22.9915 74.2879 23.7532 74.3058 24.703C74.3058 25.5452 74.0728 26.2979 73.6069 26.961C73.1409 27.624 72.4779 28.1438 71.6177 28.5201C70.7754 28.8964 69.7808 29.0846 68.6339 29.0846Z" fill="#175D63"/>
<path d="M57.7299 12.0681C57.1744 12.0681 56.7084 11.8799 56.3321 11.5036C55.9557 11.1272 55.7676 10.6613 55.7676 10.1058C55.7676 9.55022 55.9557 9.08428 56.3321 8.70794C56.7084 8.3316 57.1744 8.14343 57.7299 8.14343C58.2675 8.14343 58.7245 8.3316 59.1008 8.70794C59.4772 9.08428 59.6654 9.55022 59.6654 10.1058C59.6654 10.6613 59.4772 11.1272 59.1008 11.5036C58.7245 11.8799 58.2675 12.0681 57.7299 12.0681ZM59.2353 14.0304V28.842H56.1708L56.1708 14.0304H59.2353Z" fill="#175D63"/>
<path d="M53.6052 10.16L46.5892 28.8425H43.0409L35.998 10.16H39.2776L44.8151 25.6974L50.3795 10.16H53.6052Z" fill="#175D63"/>
<defs>
<clipPath id="clip0_1211_452">
<rect width="25.5278" height="37.228" fill="white"/>
</clipPath>
</defs>
</svg>
