<svg width="145" height="31" viewBox="0 0 145 31" fill="none" xmlns="http://www.w3.org/2000/svg">
<path d="M58.2306 25.7667L56.4758 17.4281C55.8617 14.6481 55.335 11.8399 54.9252 9.05993H54.8662C54.4564 11.8399 53.9297 14.6481 53.3451 17.4281L51.589 25.7667H44.8601L40.6465 4.93494H45.5615L46.9657 12.4539C47.4924 15.3213 47.96 18.276 48.3119 21.1728H48.371C48.8386 18.276 49.3949 15.3508 50.0385 12.4539L51.6764 4.93494H58.142L59.78 12.4539C60.4236 15.3508 60.9798 18.276 61.4179 21.1728H61.477C61.8572 18.276 62.3261 15.3213 62.8516 12.4539L64.2262 4.93494H69.1707L64.9571 25.7667H58.2282H58.2306Z" fill="#175D63"/>
<path d="M71.1934 8.7684V4.93506H76.0506V8.7684H71.1934ZM71.1934 25.7668V10.9035H76.0506V25.7668H71.1934Z" fill="#175D63"/>
<path d="M92.2277 15.4099H87.6055C87.6055 14.0636 86.845 13.5086 85.6156 13.5086C84.5044 13.5086 83.8891 13.9479 83.8891 14.6789C83.8891 15.5859 84.6791 15.8492 86.9324 16.4338C89.7123 17.1648 92.7544 17.9843 92.7544 21.4657C92.7544 24.333 90.18 26.2343 85.8495 26.2343C81.5189 26.2343 78.7402 24.5373 78.7402 20.939H83.6257C83.6257 22.3136 84.3567 23.0458 85.9073 23.0458C87.1367 23.0458 87.7803 22.5487 87.7803 21.8164C87.7803 20.7335 86.8143 20.4419 84.3567 19.7983C81.8118 19.1546 79.091 18.4815 79.091 15.0875C79.091 12.3961 81.402 10.4358 85.6452 10.4358C89.8883 10.4358 92.2277 12.0737 92.2277 15.4099Z" fill="#175D63"/>
<path d="M100.391 12.3961C101.356 11.1963 102.761 10.5231 104.399 10.5231C107.734 10.5231 109.841 12.6004 109.841 16.638V25.7667H104.984V17.1647C104.984 15.2339 104.193 14.2974 102.819 14.2974C101.327 14.2974 100.332 15.4972 100.332 18.0717V25.7667H95.4746V4.93494H100.332V12.3961H100.391Z" fill="#175D63"/>
<path d="M119.412 25.767V4.9353H124.474V25.767H119.412Z" fill="#175D63"/>
<path d="M138.16 9.23567V25.7664H133.099V9.23567H126.721V4.93469H144.539V9.23567H138.16Z" fill="#175D63"/>
<path d="M33.4048 10.6337L34.0792 6.32778C34.6502 2.64458 33.7679 0 28.4775 0H26.714L26.0397 4.3059H26.6107C28.3224 4.3059 28.4258 4.98027 28.1145 6.8471L27.4401 11.1001C27.0254 13.7459 27.9065 14.6787 30.3443 15.198L30.2926 15.5093C27.8031 15.6644 26.5061 17.2211 26.143 19.5039L25.417 24.1728C25.1573 25.8329 24.3796 26.6107 22.2014 26.6107H18.96L23.2388 0H17.3774L13.0986 26.6094H10.1156C7.4181 26.6094 7.05507 25.8834 7.36642 23.8602L8.04079 19.7623C8.4555 17.3762 7.62607 15.9241 5.13656 15.6127L5.18824 15.3014C7.72944 14.9383 9.02651 13.6413 9.44122 10.9438L10.0639 6.84587C10.3753 4.87444 11.1013 4.30466 12.5534 4.30466H13.1761L13.8493 0H11.9824C6.74373 0 4.92735 2.28278 4.40927 5.8097L3.68321 10.6337C3.42355 12.3455 2.74918 12.9681 0.726058 13.1232L0 17.7921C1.81515 17.8955 2.43783 18.4665 2.17818 20.1266L1.5038 24.4842C0.829429 28.6855 2.17818 30.9682 7.62484 30.9682H23.8602C28.2695 30.9682 30.604 29.1531 31.1737 25.0035L31.8481 20.1278C32.0561 18.4677 33.0406 17.7934 34.857 17.7934L35.583 13.1244C33.5599 12.9694 33.1452 12.3467 33.4048 10.6349V10.6337Z" fill="#175D63"/>
</svg>
