<svg width="204" height="20" viewBox="0 0 204 20" fill="none" xmlns="http://www.w3.org/2000/svg">
<circle cx="4.19734" cy="4.19783" r="4.19734" fill="#175D63"/>
<circle cx="11.5489" cy="14.2354" r="4.19734" fill="#175D63"/>
<circle cx="17.2755" cy="4.19746" r="4.19734" fill="#175D63"/>
<circle cx="24.6192" cy="14.2353" r="4.19734" fill="#175D63"/>
<circle cx="30.3595" cy="4.19759" r="4.19734" fill="#175D63"/>
<path d="M200.548 18.7575V11.74C200.548 11.0138 200.32 10.4227 199.864 9.96667C199.408 9.51066 198.817 9.28266 198.091 9.28266C197.618 9.28266 197.195 9.38399 196.824 9.58666C196.452 9.78933 196.157 10.0765 195.937 10.448C195.735 10.8196 195.633 11.2502 195.633 11.74L194.341 11.0814C194.341 10.1187 194.544 9.28266 194.949 8.57331C195.355 7.84708 195.912 7.28129 196.621 6.87595C197.347 6.47061 198.175 6.26794 199.104 6.26794C200.033 6.26794 200.852 6.47061 201.561 6.87595C202.288 7.28129 202.853 7.83863 203.259 8.54798C203.664 9.25732 203.867 10.0765 203.867 11.0054V18.7575H200.548ZM192.314 18.7575V0.441162H195.633V18.7575H192.314Z" fill="#175D63"/>
<path d="M184.269 18.7578V1.42944H187.588V18.7578H184.269ZM181.406 9.43492V6.52154H190.45V9.43492H181.406Z" fill="#175D63"/>
<path d="M174.304 19.0106C173.223 19.0106 172.26 18.7826 171.416 18.3265C170.588 17.8705 169.938 17.2372 169.465 16.4265C168.992 15.6158 168.756 14.6785 168.756 13.6145V6.521H172.1V13.5385C172.1 14.0451 172.184 14.4843 172.353 14.8558C172.522 15.2105 172.775 15.4807 173.113 15.6665C173.451 15.8523 173.848 15.9452 174.304 15.9452C174.996 15.9452 175.537 15.7341 175.925 15.3118C176.314 14.8896 176.508 14.2985 176.508 13.5385V6.521H179.827V13.6145C179.827 14.6954 179.59 15.6412 179.117 16.4518C178.661 17.2625 178.011 17.8959 177.167 18.3519C176.339 18.791 175.385 19.0106 174.304 19.0106Z" fill="#175D63"/>
<path d="M160.411 19.0104C159.178 19.0104 158.063 18.7318 157.067 18.1744C156.087 17.6002 155.302 16.8317 154.711 15.869C154.137 14.8895 153.85 13.8001 153.85 12.601C153.85 11.4018 154.137 10.3294 154.711 9.38358C155.285 8.42089 156.071 7.66088 157.067 7.10354C158.063 6.5293 159.17 6.24219 160.386 6.24219C161.636 6.24219 162.75 6.5293 163.73 7.10354C164.726 7.66088 165.512 8.42089 166.086 9.38358C166.66 10.3294 166.947 11.4018 166.947 12.601C166.947 13.8001 166.66 14.8895 166.086 15.869C165.512 16.8317 164.726 17.6002 163.73 18.1744C162.75 18.7318 161.644 19.0104 160.411 19.0104ZM160.386 15.9197C161.011 15.9197 161.56 15.7846 162.032 15.5144C162.522 15.2272 162.894 14.8388 163.147 14.349C163.417 13.8423 163.552 13.2681 163.552 12.6263C163.552 11.9845 163.417 11.4187 163.147 10.9289C162.877 10.4392 162.505 10.0591 162.032 9.78892C161.56 9.5018 161.011 9.35824 160.386 9.35824C159.778 9.35824 159.237 9.5018 158.764 9.78892C158.291 10.0591 157.92 10.4392 157.65 10.9289C157.379 11.4187 157.244 11.9845 157.244 12.6263C157.244 13.2681 157.379 13.8423 157.65 14.349C157.92 14.8388 158.291 15.2272 158.764 15.5144C159.237 15.7846 159.778 15.9197 160.386 15.9197Z" fill="#175D63"/>
<path d="M133.492 18.7572V0.94751H135.924L143.144 12.4997H141.751L148.946 0.94751H151.378V18.7572H147.958V6.85028L148.616 7.05296L143.6 15.1091H141.27L136.254 7.05296L136.938 6.85028V18.7572H133.492Z" fill="#175D63"/>
<path d="M121.314 18.7575V5.2039C121.314 4.22433 121.525 3.36298 121.947 2.61985C122.37 1.85984 122.969 1.26027 123.746 0.821155C124.523 0.382036 125.435 0.162476 126.482 0.162476C127.276 0.162476 127.96 0.297589 128.534 0.567816C129.108 0.838043 129.623 1.20961 130.079 1.6825L127.977 3.81054C127.791 3.62476 127.588 3.4812 127.369 3.37987C127.149 3.27853 126.87 3.22787 126.533 3.22787C125.925 3.22787 125.452 3.39676 125.114 3.73454C124.793 4.05544 124.633 4.51989 124.633 5.1279V18.7575H121.314ZM118.477 9.43465V6.52126H128.255V9.43465H118.477Z" fill="#175D63"/>
<path d="M111.319 19.0109C110.086 19.0109 108.972 18.7322 107.975 18.1749C106.996 17.6007 106.21 16.8322 105.619 15.8695C105.045 14.8899 104.758 13.8006 104.758 12.6015C104.758 11.4023 105.045 10.3299 105.619 9.38407C106.193 8.42138 106.979 7.66137 107.975 7.10403C108.972 6.52979 110.078 6.24268 111.294 6.24268C112.544 6.24268 113.658 6.52979 114.638 7.10403C115.634 7.66137 116.42 8.42138 116.994 9.38407C117.568 10.3299 117.855 11.4023 117.855 12.6015C117.855 13.8006 117.568 14.8899 116.994 15.8695C116.42 16.8322 115.634 17.6007 114.638 18.1749C113.658 18.7322 112.552 19.0109 111.319 19.0109ZM111.294 15.9202C111.919 15.9202 112.468 15.7851 112.941 15.5148C113.43 15.2277 113.802 14.8393 114.055 14.3495C114.326 13.8428 114.461 13.2686 114.461 12.6268C114.461 11.985 114.326 11.4192 114.055 10.9294C113.785 10.4396 113.414 10.0596 112.941 9.78941C112.468 9.50229 111.919 9.35873 111.294 9.35873C110.686 9.35873 110.145 9.50229 109.673 9.78941C109.2 10.0596 108.828 10.4396 108.558 10.9294C108.288 11.4192 108.153 11.985 108.153 12.6268C108.153 13.2686 108.288 13.8428 108.558 14.3495C108.828 14.8393 109.2 15.2277 109.673 15.5148C110.145 15.7851 110.686 15.9202 111.294 15.9202Z" fill="#175D63"/>
<path d="M94.5531 19.0107C93.4215 19.0107 92.4082 18.732 91.5131 18.1747C90.6179 17.6174 89.9086 16.8573 89.385 15.8947C88.8783 14.932 88.625 13.8511 88.625 12.6519C88.625 11.4359 88.8783 10.3466 89.385 9.38387C89.9086 8.42119 90.6095 7.66117 91.4877 7.10383C92.3828 6.54649 93.4046 6.26781 94.5531 6.26781C95.4313 6.26781 96.2167 6.44515 96.9092 6.79982C97.6185 7.1545 98.1843 7.65273 98.6065 8.29452C99.0456 8.91942 99.2821 9.62876 99.3159 10.4226V14.78C99.2821 15.5738 99.0541 16.2916 98.6319 16.9333C98.2096 17.5751 97.6438 18.0818 96.9345 18.4534C96.2251 18.8249 95.4313 19.0107 94.5531 19.0107ZM95.1105 15.9453C95.7354 15.9453 96.2758 15.8102 96.7318 15.54C97.2047 15.2529 97.5678 14.8644 97.8212 14.3746C98.0914 13.868 98.2265 13.2853 98.2265 12.6266C98.2265 11.9848 98.0914 11.419 97.8212 10.9292C97.5678 10.4226 97.2047 10.0341 96.7318 9.76388C96.2758 9.47676 95.7438 9.3332 95.1358 9.3332C94.5109 9.3332 93.962 9.47676 93.4891 9.76388C93.0331 10.051 92.67 10.4394 92.3997 10.9292C92.1464 11.419 92.0197 11.9848 92.0197 12.6266C92.0197 13.2853 92.1464 13.868 92.3997 14.3746C92.67 14.8644 93.0415 15.2529 93.5144 15.54C93.9873 15.8102 94.5193 15.9453 95.1105 15.9453ZM101.343 18.7574H98.0492V15.464L98.5812 12.4746L98.0238 9.53587V0.44104H101.343V18.7574Z" fill="#175D63"/>
<path d="M79.1934 18.7574V6.52116H82.5121V18.7574H79.1934ZM82.5121 11.9933L81.2201 11.1319C81.3721 9.62877 81.8112 8.44653 82.5374 7.58518C83.2637 6.70694 84.3108 6.26782 85.6788 6.26782C86.2699 6.26782 86.8019 6.36916 87.2748 6.57183C87.7477 6.75761 88.1784 7.07006 88.5669 7.50918L86.4895 9.89056C86.3037 9.68789 86.0757 9.53588 85.8055 9.43455C85.5521 9.33321 85.2566 9.28255 84.9188 9.28255C84.2095 9.28255 83.6268 9.51055 83.1708 9.96656C82.7316 10.4057 82.5121 11.0812 82.5121 11.9933Z" fill="#175D63"/>
<path d="M70.5204 19.0108C69.2875 19.0108 68.1728 18.7321 67.1764 18.1748C66.1968 17.6005 65.4115 16.8321 64.8203 15.8694C64.2461 14.8898 63.959 13.8005 63.959 12.6013C63.959 11.4022 64.2461 10.3297 64.8203 9.38395C65.3946 8.42126 66.1799 7.66125 67.1764 7.1039C68.1728 6.52967 69.2791 6.24255 70.4951 6.24255C71.7449 6.24255 72.8596 6.52967 73.8392 7.1039C74.8356 7.66125 75.621 8.42126 76.1952 9.38395C76.7694 10.3297 77.0566 11.4022 77.0566 12.6013C77.0566 13.8005 76.7694 14.8898 76.1952 15.8694C75.621 16.8321 74.8356 17.6005 73.8392 18.1748C72.8596 18.7321 71.7534 19.0108 70.5204 19.0108ZM70.4951 15.9201C71.12 15.9201 71.6689 15.785 72.1418 15.5147C72.6316 15.2276 73.0031 14.8392 73.2565 14.3494C73.5267 13.8427 73.6618 13.2685 73.6618 12.6267C73.6618 11.9849 73.5267 11.4191 73.2565 10.9293C72.9863 10.4395 72.6147 10.0595 72.1418 9.78929C71.6689 9.50217 71.12 9.35861 70.4951 9.35861C69.8871 9.35861 69.3466 9.50217 68.8737 9.78929C68.4008 10.0595 68.0293 10.4395 67.7591 10.9293C67.4888 11.4191 67.3537 11.9849 67.3537 12.6267C67.3537 13.2685 67.4888 13.8427 67.7591 14.3494C68.0293 14.8392 68.4008 15.2276 68.8737 15.5147C69.3466 15.785 69.8871 15.9201 70.4951 15.9201Z" fill="#175D63"/>
<path d="M46.1824 18.7574L40.4062 0.947754H43.801L48.0824 14.6533H46.9424L51.1478 0.947754H53.7065L57.9119 14.6533H56.7466L61.0533 0.947754H64.448L58.6466 18.7574H56.0879L51.8571 5.07716H52.9718L48.7664 18.7574H46.1824Z" fill="#175D63"/>
</svg>
