<svg width="204" height="20" viewBox="0 0 204 20" fill="none" xmlns="http://www.w3.org/2000/svg">
<circle cx="4.19734" cy="4.19789" r="4.19734" fill="#175D63"/>
<circle cx="11.5489" cy="14.2355" r="4.19734" fill="#175D63"/>
<circle cx="17.2755" cy="4.19753" r="4.19734" fill="#175D63"/>
<circle cx="24.6192" cy="14.2354" r="4.19734" fill="#175D63"/>
<circle cx="30.3595" cy="4.19765" r="4.19734" fill="#175D63"/>
<path d="M200.548 18.7575V11.74C200.548 11.0138 200.32 10.4227 199.864 9.96667C199.408 9.51066 198.817 9.28266 198.091 9.28266C197.618 9.28266 197.195 9.38399 196.824 9.58666C196.452 9.78933 196.157 10.0765 195.937 10.448C195.735 10.8196 195.633 11.2502 195.633 11.74L194.341 11.0814C194.341 10.1187 194.544 9.28266 194.949 8.57331C195.355 7.84708 195.912 7.28129 196.621 6.87595C197.347 6.47061 198.175 6.26794 199.104 6.26794C200.033 6.26794 200.852 6.47061 201.561 6.87595C202.288 7.28129 202.853 7.83863 203.259 8.54798C203.664 9.25732 203.867 10.0765 203.867 11.0054V18.7575H200.548ZM192.314 18.7575V0.441162H195.633V18.7575H192.314Z" fill="#175D63"/>
<path d="M184.269 18.7578V1.42944H187.588V18.7578H184.269ZM181.406 9.43492V6.52154H190.45V9.43492H181.406Z" fill="#175D63"/>
<path d="M174.304 19.0106C173.223 19.0106 172.26 18.7826 171.416 18.3266C170.588 17.8706 169.938 17.2373 169.465 16.4266C168.992 15.6159 168.756 14.6785 168.756 13.6145V6.52106H172.1V13.5385C172.1 14.0452 172.184 14.4843 172.353 14.8559C172.522 15.2106 172.775 15.4808 173.113 15.6666C173.451 15.8523 173.848 15.9452 174.304 15.9452C174.996 15.9452 175.537 15.7341 175.925 15.3119C176.314 14.8897 176.508 14.2985 176.508 13.5385V6.52106H179.827V13.6145C179.827 14.6954 179.59 15.6412 179.117 16.4519C178.661 17.2626 178.011 17.8959 177.167 18.3519C176.339 18.7911 175.385 19.0106 174.304 19.0106Z" fill="#175D63"/>
<path d="M160.411 19.0105C159.178 19.0105 158.063 18.7318 157.067 18.1745C156.087 17.6002 155.302 16.8318 154.711 15.8691C154.137 14.8895 153.85 13.8002 153.85 12.601C153.85 11.4019 154.137 10.3294 154.711 9.38364C155.285 8.42096 156.071 7.66094 157.067 7.1036C158.063 6.52937 159.17 6.24225 160.386 6.24225C161.636 6.24225 162.75 6.52937 163.73 7.1036C164.726 7.66094 165.512 8.42096 166.086 9.38364C166.66 10.3294 166.947 11.4019 166.947 12.601C166.947 13.8002 166.66 14.8895 166.086 15.8691C165.512 16.8318 164.726 17.6002 163.73 18.1745C162.75 18.7318 161.644 19.0105 160.411 19.0105ZM160.386 15.9198C161.011 15.9198 161.56 15.7846 162.032 15.5144C162.522 15.2273 162.894 14.8389 163.147 14.3491C163.417 13.8424 163.552 13.2682 163.552 12.6264C163.552 11.9846 163.417 11.4188 163.147 10.929C162.877 10.4392 162.505 10.0592 162.032 9.78898C161.56 9.50186 161.011 9.3583 160.386 9.3583C159.778 9.3583 159.237 9.50186 158.764 9.78898C158.291 10.0592 157.92 10.4392 157.65 10.929C157.379 11.4188 157.244 11.9846 157.244 12.6264C157.244 13.2682 157.379 13.8424 157.65 14.3491C157.92 14.8389 158.291 15.2273 158.764 15.5144C159.237 15.7846 159.778 15.9198 160.386 15.9198Z" fill="#175D63"/>
<path d="M133.492 18.7573V0.947632H135.924L143.144 12.4998H141.751L148.946 0.947632H151.378V18.7573H147.958V6.85041L148.616 7.05308L143.6 15.1092H141.27L136.254 7.05308L136.938 6.85041V18.7573H133.492Z" fill="#175D63"/>
<path d="M121.314 18.7576V5.20402C121.314 4.22445 121.525 3.3631 121.947 2.61998C122.37 1.85996 122.969 1.2604 123.746 0.821277C124.523 0.382158 125.435 0.162598 126.482 0.162598C127.276 0.162598 127.96 0.297711 128.534 0.567938C129.108 0.838166 129.623 1.20973 130.079 1.68263L127.977 3.81067C127.791 3.62488 127.588 3.48133 127.369 3.37999C127.149 3.27866 126.87 3.22799 126.533 3.22799C125.925 3.22799 125.452 3.39688 125.114 3.73466C124.793 4.05556 124.633 4.52001 124.633 5.12802V18.7576H121.314ZM118.477 9.43477V6.52138H128.255V9.43477H118.477Z" fill="#175D63"/>
<path d="M111.319 19.011C110.086 19.011 108.972 18.7323 107.975 18.175C106.996 17.6007 106.21 16.8323 105.619 15.8696C105.045 14.89 104.758 13.8007 104.758 12.6015C104.758 11.4024 105.045 10.3299 105.619 9.38413C106.193 8.42144 106.979 7.66143 107.975 7.10409C108.972 6.52985 110.078 6.24274 111.294 6.24274C112.544 6.24274 113.658 6.52985 114.638 7.10409C115.634 7.66143 116.42 8.42144 116.994 9.38413C117.568 10.3299 117.855 11.4024 117.855 12.6015C117.855 13.8007 117.568 14.89 116.994 15.8696C116.42 16.8323 115.634 17.6007 114.638 18.175C113.658 18.7323 112.552 19.011 111.319 19.011ZM111.294 15.9202C111.919 15.9202 112.468 15.7851 112.941 15.5149C113.43 15.2278 113.802 14.8393 114.055 14.3496C114.326 13.8429 114.461 13.2686 114.461 12.6269C114.461 11.9851 114.326 11.4193 114.055 10.9295C113.785 10.4397 113.414 10.0597 112.941 9.78947C112.468 9.50235 111.919 9.35879 111.294 9.35879C110.686 9.35879 110.145 9.50235 109.673 9.78947C109.2 10.0597 108.828 10.4397 108.558 10.9295C108.288 11.4193 108.153 11.9851 108.153 12.6269C108.153 13.2686 108.288 13.8429 108.558 14.3496C108.828 14.8393 109.2 15.2278 109.673 15.5149C110.145 15.7851 110.686 15.9202 111.294 15.9202Z" fill="#175D63"/>
<path d="M94.5531 19.0108C93.4215 19.0108 92.4082 18.7321 91.5131 18.1748C90.6179 17.6174 89.9086 16.8574 89.385 15.8947C88.8783 14.932 88.625 13.8511 88.625 12.652C88.625 11.436 88.8783 10.3466 89.385 9.38393C89.9086 8.42125 90.6095 7.66123 91.4877 7.10389C92.3828 6.54655 93.4046 6.26787 94.5531 6.26787C95.4313 6.26787 96.2167 6.44521 96.9092 6.79988C97.6185 7.15456 98.1843 7.65279 98.6065 8.29458C99.0456 8.91948 99.2821 9.62883 99.3159 10.4226V14.78C99.2821 15.5738 99.0541 16.2916 98.6319 16.9334C98.2096 17.5752 97.6438 18.0819 96.9345 18.4534C96.2251 18.825 95.4313 19.0108 94.5531 19.0108ZM95.1105 15.9454C95.7354 15.9454 96.2758 15.8103 96.7318 15.54C97.2047 15.2529 97.5678 14.8645 97.8212 14.3747C98.0914 13.868 98.2265 13.2853 98.2265 12.6267C98.2265 11.9849 98.0914 11.4191 97.8212 10.9293C97.5678 10.4226 97.2047 10.0342 96.7318 9.76394C96.2758 9.47682 95.7438 9.33327 95.1358 9.33327C94.5109 9.33327 93.962 9.47682 93.4891 9.76394C93.0331 10.0511 92.67 10.4395 92.3997 10.9293C92.1464 11.4191 92.0197 11.9849 92.0197 12.6267C92.0197 13.2853 92.1464 13.868 92.3997 14.3747C92.67 14.8645 93.0415 15.2529 93.5144 15.54C93.9873 15.8103 94.5193 15.9454 95.1105 15.9454ZM101.343 18.7574H98.0492V15.464L98.5812 12.4747L98.0238 9.53593V0.441101H101.343V18.7574Z" fill="#175D63"/>
<path d="M79.1934 18.7574V6.52116H82.5121V18.7574H79.1934ZM82.5121 11.9933L81.2201 11.1319C81.3721 9.62877 81.8112 8.44653 82.5374 7.58518C83.2637 6.70694 84.3108 6.26782 85.6788 6.26782C86.2699 6.26782 86.8019 6.36916 87.2748 6.57183C87.7477 6.75761 88.1784 7.07006 88.5669 7.50918L86.4895 9.89056C86.3037 9.68789 86.0757 9.53588 85.8055 9.43455C85.5521 9.33321 85.2566 9.28255 84.9188 9.28255C84.2095 9.28255 83.6268 9.51055 83.1708 9.96656C82.7316 10.4057 82.5121 11.0812 82.5121 11.9933Z" fill="#175D63"/>
<path d="M70.5204 19.0109C69.2875 19.0109 68.1728 18.7322 67.1764 18.1749C66.1968 17.6007 65.4115 16.8322 64.8203 15.8695C64.2461 14.8899 63.959 13.8006 63.959 12.6015C63.959 11.4023 64.2461 10.3299 64.8203 9.38407C65.3946 8.42138 66.1799 7.66137 67.1764 7.10403C68.1728 6.52979 69.2791 6.24268 70.4951 6.24268C71.7449 6.24268 72.8596 6.52979 73.8392 7.10403C74.8356 7.66137 75.621 8.42138 76.1952 9.38407C76.7694 10.3299 77.0566 11.4023 77.0566 12.6015C77.0566 13.8006 76.7694 14.8899 76.1952 15.8695C75.621 16.8322 74.8356 17.6007 73.8392 18.1749C72.8596 18.7322 71.7534 19.0109 70.5204 19.0109ZM70.4951 15.9202C71.12 15.9202 71.6689 15.7851 72.1418 15.5148C72.6316 15.2277 73.0031 14.8393 73.2565 14.3495C73.5267 13.8428 73.6618 13.2686 73.6618 12.6268C73.6618 11.985 73.5267 11.4192 73.2565 10.9294C72.9863 10.4396 72.6147 10.0596 72.1418 9.78941C71.6689 9.50229 71.12 9.35873 70.4951 9.35873C69.8871 9.35873 69.3466 9.50229 68.8737 9.78941C68.4008 10.0596 68.0293 10.4396 67.7591 10.9294C67.4888 11.4192 67.3537 11.985 67.3537 12.6268C67.3537 13.2686 67.4888 13.8428 67.7591 14.3495C68.0293 14.8393 68.4008 15.2277 68.8737 15.5148C69.3466 15.7851 69.8871 15.9202 70.4951 15.9202Z" fill="#175D63"/>
<path d="M46.1824 18.7575L40.4062 0.947815H43.801L48.0824 14.6534H46.9424L51.1478 0.947815H53.7065L57.9119 14.6534H56.7466L61.0533 0.947815H64.448L58.6466 18.7575H56.0879L51.8571 5.07722H52.9718L48.7664 18.7575H46.1824Z" fill="#175D63"/>
</svg>
